G04 EAGLE Gerber RS-274X export*
G75*
%MOMM*%
%FSLAX34Y34*%
%LPD*%
%INSolderpaste Bottom*%
%IPPOS*%
%AMOC8*
5,1,8,0,0,1.08239X$1,22.5*%
G01*
%ADD10R,1.000000X1.100000*%
%ADD11R,1.600000X1.400000*%
%ADD12R,0.830000X0.630000*%
%ADD13R,1.000000X2.800000*%
%ADD14R,1.200000X2.750000*%
%ADD15R,0.200000X1.450000*%
%ADD16R,1.400000X1.800000*%
%ADD17R,1.900000X1.400000*%
%ADD18R,1.500000X0.800000*%
%ADD19R,0.300000X1.000000*%
%ADD20R,0.600000X1.000000*%
%ADD21R,1.524000X0.762000*%
%ADD22R,1.375000X0.800000*%
%ADD23R,0.300000X0.650000*%
%ADD24R,1.100000X1.000000*%
%ADD25R,0.300000X1.200000*%
%ADD26R,1.800000X2.000000*%
%ADD27R,0.800000X0.900000*%
%ADD28R,2.000000X1.200000*%
%ADD29R,1.350000X0.600000*%
%ADD30R,2.500000X3.200000*%
%ADD31R,1.800000X1.600000*%
%ADD32R,0.900000X0.800000*%

G36*
X818439Y1254141D02*
X818439Y1254141D01*
X818484Y1254142D01*
X818535Y1254164D01*
X818590Y1254177D01*
X818626Y1254203D01*
X818666Y1254221D01*
X818705Y1254262D01*
X818750Y1254295D01*
X818773Y1254333D01*
X818803Y1254365D01*
X818823Y1254418D01*
X818852Y1254466D01*
X818860Y1254517D01*
X818873Y1254551D01*
X818872Y1254585D01*
X818879Y1254630D01*
X818879Y1265630D01*
X818869Y1265683D01*
X818868Y1265736D01*
X818849Y1265779D01*
X818840Y1265825D01*
X818809Y1265869D01*
X818788Y1265918D01*
X818754Y1265950D01*
X818727Y1265989D01*
X818682Y1266018D01*
X818643Y1266054D01*
X818592Y1266075D01*
X818560Y1266096D01*
X818528Y1266101D01*
X818489Y1266117D01*
X815754Y1266728D01*
X813190Y1267756D01*
X810826Y1269183D01*
X808722Y1270972D01*
X806933Y1273076D01*
X805506Y1275440D01*
X804478Y1278004D01*
X803867Y1280739D01*
X803845Y1280788D01*
X803833Y1280840D01*
X803805Y1280878D01*
X803786Y1280920D01*
X803747Y1280957D01*
X803715Y1281000D01*
X803675Y1281024D01*
X803641Y1281056D01*
X803590Y1281074D01*
X803544Y1281102D01*
X803490Y1281111D01*
X803454Y1281124D01*
X803422Y1281122D01*
X803380Y1281129D01*
X792380Y1281129D01*
X792325Y1281118D01*
X792269Y1281117D01*
X792228Y1281098D01*
X792185Y1281090D01*
X792139Y1281058D01*
X792088Y1281035D01*
X792058Y1281002D01*
X792021Y1280977D01*
X791991Y1280930D01*
X791953Y1280888D01*
X791938Y1280847D01*
X791914Y1280810D01*
X791905Y1280754D01*
X791886Y1280701D01*
X791887Y1280649D01*
X791881Y1280613D01*
X791889Y1280581D01*
X791889Y1280576D01*
X791889Y1280574D01*
X791889Y1280573D01*
X791890Y1280535D01*
X792729Y1276214D01*
X792741Y1276185D01*
X792749Y1276143D01*
X794218Y1271993D01*
X794234Y1271966D01*
X794248Y1271926D01*
X796314Y1268039D01*
X796334Y1268015D01*
X796353Y1267977D01*
X798971Y1264438D01*
X798995Y1264417D01*
X799020Y1264382D01*
X802132Y1261270D01*
X802147Y1261260D01*
X802155Y1261249D01*
X802170Y1261240D01*
X802188Y1261221D01*
X805727Y1258603D01*
X805755Y1258590D01*
X805789Y1258564D01*
X809676Y1256498D01*
X809706Y1256489D01*
X809743Y1256468D01*
X813893Y1254999D01*
X813924Y1254994D01*
X813964Y1254979D01*
X818285Y1254140D01*
X818341Y1254140D01*
X818397Y1254131D01*
X818439Y1254141D01*
G37*
G36*
X241859Y1254141D02*
X241859Y1254141D01*
X241904Y1254142D01*
X241955Y1254164D01*
X242010Y1254177D01*
X242046Y1254203D01*
X242086Y1254221D01*
X242125Y1254262D01*
X242170Y1254295D01*
X242193Y1254333D01*
X242223Y1254365D01*
X242243Y1254418D01*
X242272Y1254466D01*
X242280Y1254517D01*
X242293Y1254551D01*
X242292Y1254585D01*
X242299Y1254630D01*
X242299Y1265630D01*
X242289Y1265683D01*
X242288Y1265736D01*
X242269Y1265779D01*
X242260Y1265825D01*
X242229Y1265869D01*
X242208Y1265918D01*
X242174Y1265950D01*
X242147Y1265989D01*
X242102Y1266018D01*
X242063Y1266054D01*
X242012Y1266075D01*
X241980Y1266096D01*
X241948Y1266101D01*
X241909Y1266117D01*
X239174Y1266728D01*
X236610Y1267756D01*
X234246Y1269183D01*
X232142Y1270972D01*
X230353Y1273076D01*
X228926Y1275440D01*
X227898Y1278004D01*
X227287Y1280739D01*
X227265Y1280788D01*
X227253Y1280840D01*
X227225Y1280878D01*
X227206Y1280920D01*
X227167Y1280957D01*
X227135Y1281000D01*
X227095Y1281024D01*
X227061Y1281056D01*
X227010Y1281074D01*
X226964Y1281102D01*
X226910Y1281111D01*
X226874Y1281124D01*
X226842Y1281122D01*
X226800Y1281129D01*
X215800Y1281129D01*
X215745Y1281118D01*
X215689Y1281117D01*
X215648Y1281098D01*
X215605Y1281090D01*
X215559Y1281058D01*
X215508Y1281035D01*
X215478Y1281002D01*
X215441Y1280977D01*
X215411Y1280930D01*
X215373Y1280888D01*
X215358Y1280847D01*
X215334Y1280810D01*
X215325Y1280754D01*
X215306Y1280701D01*
X215307Y1280649D01*
X215301Y1280613D01*
X215309Y1280581D01*
X215309Y1280576D01*
X215309Y1280574D01*
X215309Y1280573D01*
X215310Y1280535D01*
X216149Y1276214D01*
X216161Y1276185D01*
X216169Y1276143D01*
X217638Y1271993D01*
X217654Y1271966D01*
X217668Y1271926D01*
X219734Y1268039D01*
X219754Y1268015D01*
X219773Y1267977D01*
X222391Y1264438D01*
X222415Y1264417D01*
X222440Y1264382D01*
X225552Y1261270D01*
X225567Y1261260D01*
X225575Y1261249D01*
X225590Y1261240D01*
X225608Y1261221D01*
X229147Y1258603D01*
X229175Y1258590D01*
X229209Y1258564D01*
X233096Y1256498D01*
X233126Y1256489D01*
X233163Y1256468D01*
X237313Y1254999D01*
X237344Y1254994D01*
X237384Y1254979D01*
X241705Y1254140D01*
X241761Y1254140D01*
X241817Y1254131D01*
X241859Y1254141D01*
G37*
G36*
X818439Y398161D02*
X818439Y398161D01*
X818484Y398162D01*
X818535Y398184D01*
X818590Y398197D01*
X818626Y398223D01*
X818666Y398241D01*
X818705Y398282D01*
X818750Y398315D01*
X818773Y398353D01*
X818803Y398385D01*
X818823Y398438D01*
X818852Y398486D01*
X818860Y398537D01*
X818873Y398571D01*
X818872Y398605D01*
X818879Y398650D01*
X818879Y409650D01*
X818869Y409703D01*
X818868Y409756D01*
X818849Y409799D01*
X818840Y409845D01*
X818809Y409889D01*
X818788Y409938D01*
X818754Y409970D01*
X818727Y410009D01*
X818682Y410038D01*
X818643Y410074D01*
X818592Y410095D01*
X818560Y410116D01*
X818528Y410121D01*
X818489Y410137D01*
X815754Y410748D01*
X813190Y411776D01*
X810826Y413203D01*
X808722Y414992D01*
X806933Y417096D01*
X805506Y419460D01*
X804478Y422024D01*
X803867Y424759D01*
X803845Y424808D01*
X803833Y424860D01*
X803805Y424898D01*
X803786Y424940D01*
X803747Y424977D01*
X803715Y425020D01*
X803675Y425044D01*
X803641Y425076D01*
X803590Y425094D01*
X803544Y425122D01*
X803490Y425131D01*
X803454Y425144D01*
X803422Y425142D01*
X803380Y425149D01*
X792380Y425149D01*
X792325Y425138D01*
X792269Y425137D01*
X792228Y425118D01*
X792185Y425110D01*
X792139Y425078D01*
X792088Y425055D01*
X792058Y425022D01*
X792021Y424997D01*
X791991Y424950D01*
X791953Y424908D01*
X791938Y424867D01*
X791914Y424830D01*
X791905Y424774D01*
X791886Y424721D01*
X791887Y424669D01*
X791881Y424633D01*
X791889Y424601D01*
X791889Y424596D01*
X791889Y424594D01*
X791889Y424593D01*
X791890Y424555D01*
X792729Y420234D01*
X792741Y420205D01*
X792749Y420163D01*
X794218Y416013D01*
X794234Y415986D01*
X794248Y415946D01*
X796314Y412059D01*
X796334Y412035D01*
X796353Y411997D01*
X798971Y408458D01*
X798995Y408437D01*
X799020Y408402D01*
X802132Y405290D01*
X802147Y405280D01*
X802155Y405269D01*
X802170Y405260D01*
X802188Y405241D01*
X805727Y402623D01*
X805755Y402610D01*
X805789Y402584D01*
X809676Y400518D01*
X809706Y400509D01*
X809743Y400488D01*
X813893Y399019D01*
X813924Y399014D01*
X813964Y398999D01*
X818285Y398160D01*
X818341Y398160D01*
X818397Y398151D01*
X818439Y398161D01*
G37*
G36*
X241859Y398161D02*
X241859Y398161D01*
X241904Y398162D01*
X241955Y398184D01*
X242010Y398197D01*
X242046Y398223D01*
X242086Y398241D01*
X242125Y398282D01*
X242170Y398315D01*
X242193Y398353D01*
X242223Y398385D01*
X242243Y398438D01*
X242272Y398486D01*
X242280Y398537D01*
X242293Y398571D01*
X242292Y398605D01*
X242299Y398650D01*
X242299Y409650D01*
X242289Y409703D01*
X242288Y409756D01*
X242269Y409799D01*
X242260Y409845D01*
X242229Y409889D01*
X242208Y409938D01*
X242174Y409970D01*
X242147Y410009D01*
X242102Y410038D01*
X242063Y410074D01*
X242012Y410095D01*
X241980Y410116D01*
X241948Y410121D01*
X241909Y410137D01*
X239174Y410748D01*
X236610Y411776D01*
X234246Y413203D01*
X232142Y414992D01*
X230353Y417096D01*
X228926Y419460D01*
X227898Y422024D01*
X227287Y424759D01*
X227265Y424808D01*
X227253Y424860D01*
X227225Y424898D01*
X227206Y424940D01*
X227167Y424977D01*
X227135Y425020D01*
X227095Y425044D01*
X227061Y425076D01*
X227010Y425094D01*
X226964Y425122D01*
X226910Y425131D01*
X226874Y425144D01*
X226842Y425142D01*
X226800Y425149D01*
X215800Y425149D01*
X215745Y425138D01*
X215689Y425137D01*
X215648Y425118D01*
X215605Y425110D01*
X215559Y425078D01*
X215508Y425055D01*
X215478Y425022D01*
X215441Y424997D01*
X215411Y424950D01*
X215373Y424908D01*
X215358Y424867D01*
X215334Y424830D01*
X215325Y424774D01*
X215306Y424721D01*
X215307Y424669D01*
X215301Y424633D01*
X215309Y424601D01*
X215309Y424596D01*
X215309Y424594D01*
X215309Y424593D01*
X215310Y424555D01*
X216149Y420234D01*
X216161Y420205D01*
X216169Y420163D01*
X217638Y416013D01*
X217654Y415986D01*
X217668Y415946D01*
X219734Y412059D01*
X219754Y412035D01*
X219773Y411997D01*
X222391Y408458D01*
X222415Y408437D01*
X222440Y408402D01*
X225552Y405290D01*
X225567Y405280D01*
X225575Y405269D01*
X225590Y405260D01*
X225608Y405241D01*
X229147Y402623D01*
X229175Y402610D01*
X229209Y402584D01*
X233096Y400518D01*
X233126Y400509D01*
X233163Y400488D01*
X237313Y399019D01*
X237344Y399014D01*
X237384Y398999D01*
X241705Y398160D01*
X241761Y398160D01*
X241817Y398151D01*
X241859Y398161D01*
G37*
G36*
X226853Y1288141D02*
X226853Y1288141D01*
X226906Y1288142D01*
X226949Y1288161D01*
X226995Y1288170D01*
X227039Y1288201D01*
X227088Y1288222D01*
X227120Y1288256D01*
X227159Y1288283D01*
X227188Y1288328D01*
X227224Y1288367D01*
X227245Y1288418D01*
X227266Y1288450D01*
X227271Y1288482D01*
X227287Y1288521D01*
X227898Y1291256D01*
X228926Y1293820D01*
X230353Y1296184D01*
X232142Y1298288D01*
X234246Y1300077D01*
X236610Y1301504D01*
X239174Y1302532D01*
X241909Y1303143D01*
X241958Y1303165D01*
X242010Y1303177D01*
X242048Y1303205D01*
X242090Y1303224D01*
X242127Y1303263D01*
X242170Y1303295D01*
X242194Y1303335D01*
X242226Y1303369D01*
X242244Y1303420D01*
X242272Y1303466D01*
X242281Y1303520D01*
X242294Y1303556D01*
X242292Y1303588D01*
X242299Y1303630D01*
X242299Y1314630D01*
X242288Y1314685D01*
X242287Y1314741D01*
X242268Y1314782D01*
X242260Y1314825D01*
X242228Y1314871D01*
X242205Y1314923D01*
X242172Y1314952D01*
X242147Y1314989D01*
X242100Y1315019D01*
X242058Y1315057D01*
X242017Y1315072D01*
X241980Y1315096D01*
X241924Y1315105D01*
X241871Y1315124D01*
X241819Y1315123D01*
X241783Y1315129D01*
X241751Y1315121D01*
X241705Y1315120D01*
X237384Y1314281D01*
X237355Y1314269D01*
X237313Y1314261D01*
X233163Y1312792D01*
X233136Y1312776D01*
X233096Y1312762D01*
X229209Y1310696D01*
X229185Y1310676D01*
X229147Y1310657D01*
X225608Y1308039D01*
X225587Y1308015D01*
X225552Y1307990D01*
X222440Y1304878D01*
X222422Y1304852D01*
X222391Y1304822D01*
X219773Y1301284D01*
X219760Y1301255D01*
X219734Y1301221D01*
X217668Y1297334D01*
X217661Y1297311D01*
X217652Y1297297D01*
X217650Y1297289D01*
X217638Y1297267D01*
X216169Y1293117D01*
X216164Y1293086D01*
X216149Y1293046D01*
X215310Y1288725D01*
X215310Y1288669D01*
X215301Y1288613D01*
X215311Y1288571D01*
X215312Y1288526D01*
X215334Y1288475D01*
X215347Y1288420D01*
X215373Y1288385D01*
X215391Y1288344D01*
X215432Y1288305D01*
X215465Y1288260D01*
X215503Y1288237D01*
X215535Y1288207D01*
X215588Y1288187D01*
X215636Y1288158D01*
X215687Y1288150D01*
X215721Y1288137D01*
X215755Y1288138D01*
X215800Y1288131D01*
X226800Y1288131D01*
X226853Y1288141D01*
G37*
G36*
X803433Y1288141D02*
X803433Y1288141D01*
X803486Y1288142D01*
X803529Y1288161D01*
X803575Y1288170D01*
X803619Y1288201D01*
X803668Y1288222D01*
X803700Y1288256D01*
X803739Y1288283D01*
X803768Y1288328D01*
X803804Y1288367D01*
X803825Y1288418D01*
X803846Y1288450D01*
X803851Y1288482D01*
X803867Y1288521D01*
X804478Y1291256D01*
X805506Y1293820D01*
X806933Y1296184D01*
X808722Y1298288D01*
X810826Y1300077D01*
X813190Y1301504D01*
X815754Y1302532D01*
X818489Y1303143D01*
X818538Y1303165D01*
X818590Y1303177D01*
X818628Y1303205D01*
X818670Y1303224D01*
X818707Y1303263D01*
X818750Y1303295D01*
X818774Y1303335D01*
X818806Y1303369D01*
X818824Y1303420D01*
X818852Y1303466D01*
X818861Y1303520D01*
X818874Y1303556D01*
X818872Y1303588D01*
X818879Y1303630D01*
X818879Y1314630D01*
X818868Y1314685D01*
X818867Y1314741D01*
X818848Y1314782D01*
X818840Y1314825D01*
X818808Y1314871D01*
X818785Y1314923D01*
X818752Y1314952D01*
X818727Y1314989D01*
X818680Y1315019D01*
X818638Y1315057D01*
X818597Y1315072D01*
X818560Y1315096D01*
X818504Y1315105D01*
X818451Y1315124D01*
X818399Y1315123D01*
X818363Y1315129D01*
X818331Y1315121D01*
X818285Y1315120D01*
X813964Y1314281D01*
X813935Y1314269D01*
X813893Y1314261D01*
X809743Y1312792D01*
X809716Y1312776D01*
X809676Y1312762D01*
X805789Y1310696D01*
X805765Y1310676D01*
X805727Y1310657D01*
X802188Y1308039D01*
X802167Y1308015D01*
X802132Y1307990D01*
X799020Y1304878D01*
X799002Y1304852D01*
X798971Y1304822D01*
X796353Y1301284D01*
X796340Y1301255D01*
X796314Y1301221D01*
X794248Y1297334D01*
X794241Y1297311D01*
X794232Y1297297D01*
X794230Y1297289D01*
X794218Y1297267D01*
X792749Y1293117D01*
X792744Y1293086D01*
X792729Y1293046D01*
X791890Y1288725D01*
X791890Y1288669D01*
X791881Y1288613D01*
X791891Y1288571D01*
X791892Y1288526D01*
X791914Y1288475D01*
X791927Y1288420D01*
X791953Y1288385D01*
X791971Y1288344D01*
X792012Y1288305D01*
X792045Y1288260D01*
X792083Y1288237D01*
X792115Y1288207D01*
X792168Y1288187D01*
X792216Y1288158D01*
X792267Y1288150D01*
X792301Y1288137D01*
X792335Y1288138D01*
X792380Y1288131D01*
X803380Y1288131D01*
X803433Y1288141D01*
G37*
G36*
X803433Y432161D02*
X803433Y432161D01*
X803486Y432162D01*
X803529Y432181D01*
X803575Y432190D01*
X803619Y432221D01*
X803668Y432242D01*
X803700Y432276D01*
X803739Y432303D01*
X803768Y432348D01*
X803804Y432387D01*
X803825Y432438D01*
X803846Y432470D01*
X803851Y432502D01*
X803867Y432541D01*
X804478Y435276D01*
X805506Y437840D01*
X806933Y440204D01*
X808722Y442308D01*
X810826Y444097D01*
X813190Y445524D01*
X815754Y446552D01*
X818489Y447163D01*
X818538Y447185D01*
X818590Y447197D01*
X818628Y447225D01*
X818670Y447244D01*
X818707Y447283D01*
X818750Y447315D01*
X818774Y447355D01*
X818806Y447389D01*
X818824Y447440D01*
X818852Y447486D01*
X818861Y447540D01*
X818874Y447576D01*
X818872Y447608D01*
X818879Y447650D01*
X818879Y458650D01*
X818868Y458705D01*
X818867Y458761D01*
X818848Y458802D01*
X818840Y458845D01*
X818808Y458891D01*
X818785Y458943D01*
X818752Y458972D01*
X818727Y459009D01*
X818680Y459039D01*
X818638Y459077D01*
X818597Y459092D01*
X818560Y459116D01*
X818504Y459125D01*
X818451Y459144D01*
X818399Y459143D01*
X818363Y459149D01*
X818331Y459141D01*
X818285Y459140D01*
X813964Y458301D01*
X813935Y458289D01*
X813893Y458281D01*
X809743Y456812D01*
X809716Y456796D01*
X809676Y456782D01*
X805789Y454716D01*
X805765Y454696D01*
X805727Y454677D01*
X802188Y452059D01*
X802167Y452035D01*
X802132Y452010D01*
X799020Y448898D01*
X799002Y448872D01*
X798971Y448842D01*
X796353Y445304D01*
X796340Y445275D01*
X796314Y445241D01*
X794248Y441354D01*
X794241Y441331D01*
X794232Y441317D01*
X794230Y441309D01*
X794218Y441287D01*
X792749Y437137D01*
X792744Y437106D01*
X792729Y437066D01*
X791890Y432745D01*
X791890Y432689D01*
X791881Y432633D01*
X791891Y432591D01*
X791892Y432546D01*
X791914Y432495D01*
X791927Y432440D01*
X791953Y432405D01*
X791971Y432364D01*
X792012Y432325D01*
X792045Y432280D01*
X792083Y432257D01*
X792115Y432227D01*
X792168Y432207D01*
X792216Y432178D01*
X792267Y432170D01*
X792301Y432157D01*
X792335Y432158D01*
X792380Y432151D01*
X803380Y432151D01*
X803433Y432161D01*
G37*
G36*
X226853Y432161D02*
X226853Y432161D01*
X226906Y432162D01*
X226949Y432181D01*
X226995Y432190D01*
X227039Y432221D01*
X227088Y432242D01*
X227120Y432276D01*
X227159Y432303D01*
X227188Y432348D01*
X227224Y432387D01*
X227245Y432438D01*
X227266Y432470D01*
X227271Y432502D01*
X227287Y432541D01*
X227898Y435276D01*
X228926Y437840D01*
X230353Y440204D01*
X232142Y442308D01*
X234246Y444097D01*
X236610Y445524D01*
X239174Y446552D01*
X241909Y447163D01*
X241958Y447185D01*
X242010Y447197D01*
X242048Y447225D01*
X242090Y447244D01*
X242127Y447283D01*
X242170Y447315D01*
X242194Y447355D01*
X242226Y447389D01*
X242244Y447440D01*
X242272Y447486D01*
X242281Y447540D01*
X242294Y447576D01*
X242292Y447608D01*
X242299Y447650D01*
X242299Y458650D01*
X242288Y458705D01*
X242287Y458761D01*
X242268Y458802D01*
X242260Y458845D01*
X242228Y458891D01*
X242205Y458943D01*
X242172Y458972D01*
X242147Y459009D01*
X242100Y459039D01*
X242058Y459077D01*
X242017Y459092D01*
X241980Y459116D01*
X241924Y459125D01*
X241871Y459144D01*
X241819Y459143D01*
X241783Y459149D01*
X241751Y459141D01*
X241705Y459140D01*
X237384Y458301D01*
X237355Y458289D01*
X237313Y458281D01*
X233163Y456812D01*
X233136Y456796D01*
X233096Y456782D01*
X229209Y454716D01*
X229185Y454696D01*
X229147Y454677D01*
X225608Y452059D01*
X225587Y452035D01*
X225552Y452010D01*
X222440Y448898D01*
X222422Y448872D01*
X222391Y448842D01*
X219773Y445304D01*
X219760Y445275D01*
X219734Y445241D01*
X217668Y441354D01*
X217661Y441331D01*
X217652Y441317D01*
X217650Y441309D01*
X217638Y441287D01*
X216169Y437137D01*
X216164Y437106D01*
X216149Y437066D01*
X215310Y432745D01*
X215310Y432689D01*
X215301Y432633D01*
X215311Y432591D01*
X215312Y432546D01*
X215334Y432495D01*
X215347Y432440D01*
X215373Y432405D01*
X215391Y432364D01*
X215432Y432325D01*
X215465Y432280D01*
X215503Y432257D01*
X215535Y432227D01*
X215588Y432207D01*
X215636Y432178D01*
X215687Y432170D01*
X215721Y432157D01*
X215755Y432158D01*
X215800Y432151D01*
X226800Y432151D01*
X226853Y432161D01*
G37*
G36*
X852435Y1288142D02*
X852435Y1288142D01*
X852491Y1288143D01*
X852532Y1288162D01*
X852575Y1288170D01*
X852621Y1288202D01*
X852673Y1288225D01*
X852702Y1288258D01*
X852739Y1288283D01*
X852769Y1288330D01*
X852807Y1288372D01*
X852822Y1288413D01*
X852846Y1288450D01*
X852855Y1288506D01*
X852874Y1288559D01*
X852873Y1288611D01*
X852879Y1288647D01*
X852871Y1288679D01*
X852870Y1288725D01*
X852031Y1293046D01*
X852019Y1293075D01*
X852011Y1293117D01*
X850542Y1297267D01*
X850526Y1297294D01*
X850517Y1297321D01*
X850515Y1297327D01*
X850514Y1297329D01*
X850512Y1297334D01*
X848446Y1301221D01*
X848426Y1301245D01*
X848407Y1301284D01*
X845789Y1304822D01*
X845765Y1304843D01*
X845740Y1304878D01*
X842628Y1307990D01*
X842602Y1308008D01*
X842572Y1308039D01*
X839034Y1310657D01*
X839005Y1310670D01*
X838971Y1310696D01*
X835084Y1312762D01*
X835054Y1312771D01*
X835017Y1312792D01*
X830867Y1314261D01*
X830836Y1314266D01*
X830796Y1314281D01*
X826475Y1315120D01*
X826419Y1315120D01*
X826363Y1315129D01*
X826321Y1315119D01*
X826276Y1315118D01*
X826225Y1315096D01*
X826170Y1315083D01*
X826135Y1315057D01*
X826094Y1315039D01*
X826055Y1314998D01*
X826010Y1314965D01*
X825987Y1314927D01*
X825957Y1314895D01*
X825937Y1314842D01*
X825908Y1314794D01*
X825900Y1314743D01*
X825887Y1314709D01*
X825888Y1314675D01*
X825881Y1314630D01*
X825881Y1303630D01*
X825891Y1303577D01*
X825892Y1303524D01*
X825911Y1303481D01*
X825920Y1303435D01*
X825951Y1303391D01*
X825972Y1303342D01*
X826006Y1303310D01*
X826033Y1303271D01*
X826078Y1303242D01*
X826117Y1303206D01*
X826168Y1303185D01*
X826200Y1303164D01*
X826232Y1303159D01*
X826271Y1303143D01*
X829006Y1302532D01*
X831570Y1301504D01*
X833934Y1300077D01*
X836038Y1298288D01*
X837827Y1296184D01*
X839254Y1293820D01*
X840282Y1291256D01*
X840893Y1288521D01*
X840915Y1288472D01*
X840927Y1288420D01*
X840955Y1288382D01*
X840974Y1288340D01*
X841013Y1288303D01*
X841045Y1288260D01*
X841085Y1288236D01*
X841119Y1288204D01*
X841170Y1288186D01*
X841216Y1288158D01*
X841270Y1288149D01*
X841306Y1288136D01*
X841338Y1288138D01*
X841380Y1288131D01*
X852380Y1288131D01*
X852435Y1288142D01*
G37*
G36*
X275855Y1288142D02*
X275855Y1288142D01*
X275911Y1288143D01*
X275952Y1288162D01*
X275995Y1288170D01*
X276041Y1288202D01*
X276093Y1288225D01*
X276122Y1288258D01*
X276159Y1288283D01*
X276189Y1288330D01*
X276227Y1288372D01*
X276242Y1288413D01*
X276266Y1288450D01*
X276275Y1288506D01*
X276294Y1288559D01*
X276293Y1288611D01*
X276299Y1288647D01*
X276291Y1288679D01*
X276290Y1288725D01*
X275451Y1293046D01*
X275439Y1293075D01*
X275431Y1293117D01*
X273962Y1297267D01*
X273946Y1297294D01*
X273937Y1297321D01*
X273935Y1297327D01*
X273934Y1297329D01*
X273932Y1297334D01*
X271866Y1301221D01*
X271846Y1301245D01*
X271827Y1301284D01*
X269209Y1304822D01*
X269185Y1304843D01*
X269160Y1304878D01*
X266048Y1307990D01*
X266022Y1308008D01*
X265992Y1308039D01*
X262454Y1310657D01*
X262425Y1310670D01*
X262391Y1310696D01*
X258504Y1312762D01*
X258474Y1312771D01*
X258437Y1312792D01*
X254287Y1314261D01*
X254256Y1314266D01*
X254216Y1314281D01*
X249895Y1315120D01*
X249839Y1315120D01*
X249783Y1315129D01*
X249741Y1315119D01*
X249696Y1315118D01*
X249645Y1315096D01*
X249590Y1315083D01*
X249555Y1315057D01*
X249514Y1315039D01*
X249475Y1314998D01*
X249430Y1314965D01*
X249407Y1314927D01*
X249377Y1314895D01*
X249357Y1314842D01*
X249328Y1314794D01*
X249320Y1314743D01*
X249307Y1314709D01*
X249308Y1314675D01*
X249301Y1314630D01*
X249301Y1303630D01*
X249311Y1303577D01*
X249312Y1303524D01*
X249331Y1303481D01*
X249340Y1303435D01*
X249371Y1303391D01*
X249392Y1303342D01*
X249426Y1303310D01*
X249453Y1303271D01*
X249498Y1303242D01*
X249537Y1303206D01*
X249588Y1303185D01*
X249620Y1303164D01*
X249652Y1303159D01*
X249691Y1303143D01*
X252426Y1302532D01*
X254990Y1301504D01*
X257354Y1300077D01*
X259458Y1298288D01*
X261247Y1296184D01*
X262674Y1293820D01*
X263702Y1291256D01*
X264313Y1288521D01*
X264335Y1288472D01*
X264347Y1288420D01*
X264375Y1288382D01*
X264394Y1288340D01*
X264433Y1288303D01*
X264465Y1288260D01*
X264505Y1288236D01*
X264539Y1288204D01*
X264590Y1288186D01*
X264636Y1288158D01*
X264690Y1288149D01*
X264726Y1288136D01*
X264758Y1288138D01*
X264800Y1288131D01*
X275800Y1288131D01*
X275855Y1288142D01*
G37*
G36*
X852435Y432162D02*
X852435Y432162D01*
X852491Y432163D01*
X852532Y432182D01*
X852575Y432190D01*
X852621Y432222D01*
X852673Y432245D01*
X852702Y432278D01*
X852739Y432303D01*
X852769Y432350D01*
X852807Y432392D01*
X852822Y432433D01*
X852846Y432470D01*
X852855Y432526D01*
X852874Y432579D01*
X852873Y432631D01*
X852879Y432667D01*
X852871Y432699D01*
X852870Y432745D01*
X852031Y437066D01*
X852019Y437095D01*
X852011Y437137D01*
X850542Y441287D01*
X850526Y441314D01*
X850517Y441341D01*
X850515Y441347D01*
X850514Y441349D01*
X850512Y441354D01*
X848446Y445241D01*
X848426Y445265D01*
X848407Y445304D01*
X845789Y448842D01*
X845765Y448863D01*
X845740Y448898D01*
X842628Y452010D01*
X842602Y452028D01*
X842572Y452059D01*
X839034Y454677D01*
X839005Y454690D01*
X838971Y454716D01*
X835084Y456782D01*
X835054Y456791D01*
X835017Y456812D01*
X830867Y458281D01*
X830836Y458286D01*
X830796Y458301D01*
X826475Y459140D01*
X826419Y459140D01*
X826363Y459149D01*
X826321Y459139D01*
X826276Y459138D01*
X826225Y459116D01*
X826170Y459103D01*
X826135Y459077D01*
X826094Y459059D01*
X826055Y459018D01*
X826010Y458985D01*
X825987Y458947D01*
X825957Y458915D01*
X825937Y458862D01*
X825908Y458814D01*
X825900Y458763D01*
X825887Y458729D01*
X825888Y458695D01*
X825881Y458650D01*
X825881Y447650D01*
X825891Y447597D01*
X825892Y447544D01*
X825911Y447501D01*
X825920Y447455D01*
X825951Y447411D01*
X825972Y447362D01*
X826006Y447330D01*
X826033Y447291D01*
X826078Y447262D01*
X826117Y447226D01*
X826168Y447205D01*
X826200Y447184D01*
X826232Y447179D01*
X826271Y447163D01*
X829006Y446552D01*
X831570Y445524D01*
X833934Y444097D01*
X836038Y442308D01*
X837827Y440204D01*
X839254Y437840D01*
X840282Y435276D01*
X840893Y432541D01*
X840915Y432492D01*
X840927Y432440D01*
X840955Y432402D01*
X840974Y432360D01*
X841013Y432323D01*
X841045Y432280D01*
X841085Y432256D01*
X841119Y432224D01*
X841170Y432206D01*
X841216Y432178D01*
X841270Y432169D01*
X841306Y432156D01*
X841338Y432158D01*
X841380Y432151D01*
X852380Y432151D01*
X852435Y432162D01*
G37*
G36*
X275855Y432162D02*
X275855Y432162D01*
X275911Y432163D01*
X275952Y432182D01*
X275995Y432190D01*
X276041Y432222D01*
X276093Y432245D01*
X276122Y432278D01*
X276159Y432303D01*
X276189Y432350D01*
X276227Y432392D01*
X276242Y432433D01*
X276266Y432470D01*
X276275Y432526D01*
X276294Y432579D01*
X276293Y432631D01*
X276299Y432667D01*
X276291Y432699D01*
X276290Y432745D01*
X275451Y437066D01*
X275439Y437095D01*
X275431Y437137D01*
X273962Y441287D01*
X273946Y441314D01*
X273937Y441341D01*
X273935Y441347D01*
X273934Y441349D01*
X273932Y441354D01*
X271866Y445241D01*
X271846Y445265D01*
X271827Y445304D01*
X269209Y448842D01*
X269185Y448863D01*
X269160Y448898D01*
X266048Y452010D01*
X266022Y452028D01*
X265992Y452059D01*
X262454Y454677D01*
X262425Y454690D01*
X262391Y454716D01*
X258504Y456782D01*
X258474Y456791D01*
X258437Y456812D01*
X254287Y458281D01*
X254256Y458286D01*
X254216Y458301D01*
X249895Y459140D01*
X249839Y459140D01*
X249783Y459149D01*
X249741Y459139D01*
X249696Y459138D01*
X249645Y459116D01*
X249590Y459103D01*
X249555Y459077D01*
X249514Y459059D01*
X249475Y459018D01*
X249430Y458985D01*
X249407Y458947D01*
X249377Y458915D01*
X249357Y458862D01*
X249328Y458814D01*
X249320Y458763D01*
X249307Y458729D01*
X249308Y458695D01*
X249301Y458650D01*
X249301Y447650D01*
X249311Y447597D01*
X249312Y447544D01*
X249331Y447501D01*
X249340Y447455D01*
X249371Y447411D01*
X249392Y447362D01*
X249426Y447330D01*
X249453Y447291D01*
X249498Y447262D01*
X249537Y447226D01*
X249588Y447205D01*
X249620Y447184D01*
X249652Y447179D01*
X249691Y447163D01*
X252426Y446552D01*
X254990Y445524D01*
X257354Y444097D01*
X259458Y442308D01*
X261247Y440204D01*
X262674Y437840D01*
X263702Y435276D01*
X264313Y432541D01*
X264335Y432492D01*
X264347Y432440D01*
X264375Y432402D01*
X264394Y432360D01*
X264433Y432323D01*
X264465Y432280D01*
X264505Y432256D01*
X264539Y432224D01*
X264590Y432206D01*
X264636Y432178D01*
X264690Y432169D01*
X264726Y432156D01*
X264758Y432158D01*
X264800Y432151D01*
X275800Y432151D01*
X275855Y432162D01*
G37*
G36*
X249849Y1254139D02*
X249849Y1254139D01*
X249895Y1254140D01*
X254216Y1254979D01*
X254245Y1254991D01*
X254287Y1254999D01*
X258437Y1256468D01*
X258464Y1256484D01*
X258504Y1256498D01*
X262391Y1258564D01*
X262415Y1258584D01*
X262454Y1258603D01*
X265992Y1261221D01*
X266013Y1261245D01*
X266048Y1261270D01*
X269160Y1264382D01*
X269178Y1264409D01*
X269209Y1264438D01*
X271827Y1267977D01*
X271840Y1268005D01*
X271866Y1268039D01*
X273932Y1271926D01*
X273941Y1271956D01*
X273962Y1271993D01*
X275431Y1276143D01*
X275436Y1276174D01*
X275451Y1276214D01*
X276290Y1280535D01*
X276290Y1280591D01*
X276299Y1280647D01*
X276289Y1280689D01*
X276288Y1280734D01*
X276266Y1280785D01*
X276253Y1280840D01*
X276227Y1280876D01*
X276209Y1280916D01*
X276168Y1280955D01*
X276135Y1281000D01*
X276097Y1281023D01*
X276065Y1281053D01*
X276012Y1281073D01*
X275964Y1281102D01*
X275913Y1281110D01*
X275879Y1281123D01*
X275845Y1281122D01*
X275800Y1281129D01*
X264800Y1281129D01*
X264747Y1281119D01*
X264694Y1281118D01*
X264651Y1281099D01*
X264605Y1281090D01*
X264561Y1281059D01*
X264512Y1281038D01*
X264480Y1281004D01*
X264441Y1280977D01*
X264412Y1280932D01*
X264376Y1280893D01*
X264355Y1280842D01*
X264334Y1280810D01*
X264329Y1280778D01*
X264326Y1280772D01*
X264325Y1280771D01*
X264325Y1280769D01*
X264313Y1280739D01*
X263702Y1278004D01*
X262674Y1275440D01*
X261247Y1273076D01*
X259458Y1270972D01*
X257354Y1269183D01*
X254990Y1267756D01*
X252426Y1266728D01*
X249691Y1266117D01*
X249642Y1266095D01*
X249590Y1266083D01*
X249552Y1266055D01*
X249510Y1266036D01*
X249473Y1265997D01*
X249430Y1265965D01*
X249406Y1265925D01*
X249374Y1265891D01*
X249356Y1265840D01*
X249328Y1265794D01*
X249319Y1265740D01*
X249306Y1265704D01*
X249308Y1265672D01*
X249301Y1265630D01*
X249301Y1254630D01*
X249312Y1254575D01*
X249313Y1254519D01*
X249332Y1254478D01*
X249340Y1254435D01*
X249372Y1254389D01*
X249395Y1254338D01*
X249428Y1254308D01*
X249453Y1254271D01*
X249500Y1254241D01*
X249542Y1254203D01*
X249583Y1254188D01*
X249620Y1254164D01*
X249676Y1254155D01*
X249729Y1254136D01*
X249781Y1254137D01*
X249817Y1254131D01*
X249849Y1254139D01*
G37*
G36*
X826429Y1254139D02*
X826429Y1254139D01*
X826475Y1254140D01*
X830796Y1254979D01*
X830825Y1254991D01*
X830867Y1254999D01*
X835017Y1256468D01*
X835044Y1256484D01*
X835084Y1256498D01*
X838971Y1258564D01*
X838995Y1258584D01*
X839034Y1258603D01*
X842572Y1261221D01*
X842593Y1261245D01*
X842628Y1261270D01*
X845740Y1264382D01*
X845758Y1264409D01*
X845789Y1264438D01*
X848407Y1267977D01*
X848420Y1268005D01*
X848446Y1268039D01*
X850512Y1271926D01*
X850521Y1271956D01*
X850542Y1271993D01*
X852011Y1276143D01*
X852016Y1276174D01*
X852031Y1276214D01*
X852870Y1280535D01*
X852870Y1280591D01*
X852879Y1280647D01*
X852869Y1280689D01*
X852868Y1280734D01*
X852846Y1280785D01*
X852833Y1280840D01*
X852807Y1280876D01*
X852789Y1280916D01*
X852748Y1280955D01*
X852715Y1281000D01*
X852677Y1281023D01*
X852645Y1281053D01*
X852592Y1281073D01*
X852544Y1281102D01*
X852493Y1281110D01*
X852459Y1281123D01*
X852425Y1281122D01*
X852380Y1281129D01*
X841380Y1281129D01*
X841327Y1281119D01*
X841274Y1281118D01*
X841231Y1281099D01*
X841185Y1281090D01*
X841141Y1281059D01*
X841092Y1281038D01*
X841060Y1281004D01*
X841021Y1280977D01*
X840992Y1280932D01*
X840956Y1280893D01*
X840935Y1280842D01*
X840914Y1280810D01*
X840909Y1280778D01*
X840906Y1280772D01*
X840905Y1280771D01*
X840905Y1280769D01*
X840893Y1280739D01*
X840282Y1278004D01*
X839254Y1275440D01*
X837827Y1273076D01*
X836038Y1270972D01*
X833934Y1269183D01*
X831570Y1267756D01*
X829006Y1266728D01*
X826271Y1266117D01*
X826222Y1266095D01*
X826170Y1266083D01*
X826132Y1266055D01*
X826090Y1266036D01*
X826053Y1265997D01*
X826010Y1265965D01*
X825986Y1265925D01*
X825954Y1265891D01*
X825936Y1265840D01*
X825908Y1265794D01*
X825899Y1265740D01*
X825886Y1265704D01*
X825888Y1265672D01*
X825881Y1265630D01*
X825881Y1254630D01*
X825892Y1254575D01*
X825893Y1254519D01*
X825912Y1254478D01*
X825920Y1254435D01*
X825952Y1254389D01*
X825975Y1254338D01*
X826008Y1254308D01*
X826033Y1254271D01*
X826080Y1254241D01*
X826122Y1254203D01*
X826163Y1254188D01*
X826200Y1254164D01*
X826256Y1254155D01*
X826309Y1254136D01*
X826361Y1254137D01*
X826397Y1254131D01*
X826429Y1254139D01*
G37*
G36*
X826429Y398159D02*
X826429Y398159D01*
X826475Y398160D01*
X830796Y398999D01*
X830825Y399011D01*
X830867Y399019D01*
X835017Y400488D01*
X835044Y400504D01*
X835084Y400518D01*
X838971Y402584D01*
X838995Y402604D01*
X839034Y402623D01*
X842572Y405241D01*
X842593Y405265D01*
X842628Y405290D01*
X845740Y408402D01*
X845758Y408429D01*
X845789Y408458D01*
X848407Y411997D01*
X848420Y412025D01*
X848446Y412059D01*
X850512Y415946D01*
X850521Y415976D01*
X850542Y416013D01*
X852011Y420163D01*
X852016Y420194D01*
X852031Y420234D01*
X852870Y424555D01*
X852870Y424611D01*
X852879Y424667D01*
X852869Y424709D01*
X852868Y424754D01*
X852846Y424805D01*
X852833Y424860D01*
X852807Y424896D01*
X852789Y424936D01*
X852748Y424975D01*
X852715Y425020D01*
X852677Y425043D01*
X852645Y425073D01*
X852592Y425093D01*
X852544Y425122D01*
X852493Y425130D01*
X852459Y425143D01*
X852425Y425142D01*
X852380Y425149D01*
X841380Y425149D01*
X841327Y425139D01*
X841274Y425138D01*
X841231Y425119D01*
X841185Y425110D01*
X841141Y425079D01*
X841092Y425058D01*
X841060Y425024D01*
X841021Y424997D01*
X840992Y424952D01*
X840956Y424913D01*
X840935Y424862D01*
X840914Y424830D01*
X840909Y424798D01*
X840906Y424792D01*
X840905Y424791D01*
X840905Y424789D01*
X840893Y424759D01*
X840282Y422024D01*
X839254Y419460D01*
X837827Y417096D01*
X836038Y414992D01*
X833934Y413203D01*
X831570Y411776D01*
X829006Y410748D01*
X826271Y410137D01*
X826222Y410115D01*
X826170Y410103D01*
X826132Y410075D01*
X826090Y410056D01*
X826053Y410017D01*
X826010Y409985D01*
X825986Y409945D01*
X825954Y409911D01*
X825936Y409860D01*
X825908Y409814D01*
X825899Y409760D01*
X825886Y409724D01*
X825888Y409692D01*
X825881Y409650D01*
X825881Y398650D01*
X825892Y398595D01*
X825893Y398539D01*
X825912Y398498D01*
X825920Y398455D01*
X825952Y398409D01*
X825975Y398358D01*
X826008Y398328D01*
X826033Y398291D01*
X826080Y398261D01*
X826122Y398223D01*
X826163Y398208D01*
X826200Y398184D01*
X826256Y398175D01*
X826309Y398156D01*
X826361Y398157D01*
X826397Y398151D01*
X826429Y398159D01*
G37*
G36*
X249849Y398159D02*
X249849Y398159D01*
X249895Y398160D01*
X254216Y398999D01*
X254245Y399011D01*
X254287Y399019D01*
X258437Y400488D01*
X258464Y400504D01*
X258504Y400518D01*
X262391Y402584D01*
X262415Y402604D01*
X262454Y402623D01*
X265992Y405241D01*
X266013Y405265D01*
X266048Y405290D01*
X269160Y408402D01*
X269178Y408429D01*
X269209Y408458D01*
X271827Y411997D01*
X271840Y412025D01*
X271866Y412059D01*
X273932Y415946D01*
X273941Y415976D01*
X273962Y416013D01*
X275431Y420163D01*
X275436Y420194D01*
X275451Y420234D01*
X276290Y424555D01*
X276290Y424611D01*
X276299Y424667D01*
X276289Y424709D01*
X276288Y424754D01*
X276266Y424805D01*
X276253Y424860D01*
X276227Y424896D01*
X276209Y424936D01*
X276168Y424975D01*
X276135Y425020D01*
X276097Y425043D01*
X276065Y425073D01*
X276012Y425093D01*
X275964Y425122D01*
X275913Y425130D01*
X275879Y425143D01*
X275845Y425142D01*
X275800Y425149D01*
X264800Y425149D01*
X264747Y425139D01*
X264694Y425138D01*
X264651Y425119D01*
X264605Y425110D01*
X264561Y425079D01*
X264512Y425058D01*
X264480Y425024D01*
X264441Y424997D01*
X264412Y424952D01*
X264376Y424913D01*
X264355Y424862D01*
X264334Y424830D01*
X264329Y424798D01*
X264326Y424792D01*
X264325Y424791D01*
X264325Y424789D01*
X264313Y424759D01*
X263702Y422024D01*
X262674Y419460D01*
X261247Y417096D01*
X259458Y414992D01*
X257354Y413203D01*
X254990Y411776D01*
X252426Y410748D01*
X249691Y410137D01*
X249642Y410115D01*
X249590Y410103D01*
X249552Y410075D01*
X249510Y410056D01*
X249473Y410017D01*
X249430Y409985D01*
X249406Y409945D01*
X249374Y409911D01*
X249356Y409860D01*
X249328Y409814D01*
X249319Y409760D01*
X249306Y409724D01*
X249308Y409692D01*
X249301Y409650D01*
X249301Y398650D01*
X249312Y398595D01*
X249313Y398539D01*
X249332Y398498D01*
X249340Y398455D01*
X249372Y398409D01*
X249395Y398358D01*
X249428Y398328D01*
X249453Y398291D01*
X249500Y398261D01*
X249542Y398223D01*
X249583Y398208D01*
X249620Y398184D01*
X249676Y398175D01*
X249729Y398156D01*
X249781Y398157D01*
X249817Y398151D01*
X249849Y398159D01*
G37*
G36*
X243726Y899932D02*
X243726Y899932D01*
X243730Y899929D01*
X244676Y900141D01*
X244681Y900147D01*
X244686Y900144D01*
X245561Y900562D01*
X245565Y900569D01*
X245571Y900568D01*
X246331Y901169D01*
X246333Y901177D01*
X246339Y901177D01*
X246946Y901933D01*
X246946Y901941D01*
X246952Y901942D01*
X247375Y902814D01*
X247375Y902818D01*
X247377Y902820D01*
X247375Y902823D01*
X247379Y902825D01*
X247598Y903769D01*
X247595Y903776D01*
X247599Y903780D01*
X247599Y915780D01*
X247598Y915782D01*
X247599Y915784D01*
X247518Y916901D01*
X247513Y916907D01*
X247516Y916912D01*
X247189Y917984D01*
X247182Y917988D01*
X247184Y917994D01*
X246627Y918966D01*
X246619Y918969D01*
X246620Y918975D01*
X245860Y919798D01*
X245852Y919799D01*
X245852Y919805D01*
X244927Y920439D01*
X244919Y920438D01*
X244918Y920444D01*
X243876Y920856D01*
X243868Y920854D01*
X243865Y920859D01*
X242757Y921029D01*
X242751Y921025D01*
X242747Y921029D01*
X241639Y920961D01*
X241635Y920957D01*
X241631Y920957D01*
X241628Y920959D01*
X240564Y920646D01*
X240559Y920639D01*
X240553Y920641D01*
X239585Y920099D01*
X239582Y920091D01*
X239576Y920092D01*
X238753Y919348D01*
X238751Y919340D01*
X238746Y919340D01*
X238108Y918431D01*
X238109Y918423D01*
X238103Y918422D01*
X237684Y917394D01*
X237686Y917386D01*
X237681Y917383D01*
X237501Y916288D01*
X237504Y916283D01*
X237501Y916280D01*
X237501Y904280D01*
X237505Y904274D01*
X237502Y904270D01*
X237721Y903224D01*
X237727Y903219D01*
X237724Y903214D01*
X238171Y902243D01*
X238178Y902239D01*
X238177Y902234D01*
X238828Y901387D01*
X238836Y901384D01*
X238836Y901379D01*
X239659Y900698D01*
X239667Y900697D01*
X239668Y900692D01*
X240622Y900211D01*
X240630Y900213D01*
X240633Y900207D01*
X241670Y899951D01*
X241677Y899954D01*
X241681Y899950D01*
X242749Y899931D01*
X242750Y899931D01*
X243719Y899927D01*
X243726Y899932D01*
G37*
G36*
X820306Y899932D02*
X820306Y899932D01*
X820310Y899929D01*
X821256Y900141D01*
X821261Y900147D01*
X821266Y900144D01*
X822141Y900562D01*
X822145Y900569D01*
X822151Y900568D01*
X822911Y901169D01*
X822913Y901177D01*
X822919Y901177D01*
X823526Y901933D01*
X823526Y901941D01*
X823532Y901942D01*
X823955Y902814D01*
X823955Y902818D01*
X823957Y902820D01*
X823955Y902823D01*
X823959Y902825D01*
X824178Y903769D01*
X824175Y903776D01*
X824179Y903780D01*
X824179Y915780D01*
X824178Y915782D01*
X824179Y915784D01*
X824098Y916901D01*
X824093Y916907D01*
X824096Y916912D01*
X823769Y917984D01*
X823762Y917988D01*
X823764Y917994D01*
X823207Y918966D01*
X823199Y918969D01*
X823200Y918975D01*
X822440Y919798D01*
X822432Y919799D01*
X822432Y919805D01*
X821507Y920439D01*
X821499Y920438D01*
X821498Y920444D01*
X820456Y920856D01*
X820448Y920854D01*
X820445Y920859D01*
X819337Y921029D01*
X819331Y921025D01*
X819327Y921029D01*
X818219Y920961D01*
X818215Y920957D01*
X818211Y920957D01*
X818208Y920959D01*
X817144Y920646D01*
X817139Y920639D01*
X817133Y920641D01*
X816165Y920099D01*
X816162Y920091D01*
X816156Y920092D01*
X815333Y919348D01*
X815331Y919340D01*
X815326Y919340D01*
X814688Y918431D01*
X814689Y918423D01*
X814683Y918422D01*
X814264Y917394D01*
X814266Y917386D01*
X814261Y917383D01*
X814081Y916288D01*
X814084Y916283D01*
X814081Y916280D01*
X814081Y904280D01*
X814085Y904274D01*
X814082Y904270D01*
X814301Y903224D01*
X814307Y903219D01*
X814304Y903214D01*
X814751Y902243D01*
X814758Y902239D01*
X814757Y902234D01*
X815408Y901387D01*
X815416Y901384D01*
X815416Y901379D01*
X816239Y900698D01*
X816247Y900697D01*
X816248Y900692D01*
X817202Y900211D01*
X817210Y900213D01*
X817213Y900207D01*
X818250Y899951D01*
X818257Y899954D01*
X818261Y899950D01*
X819329Y899931D01*
X819330Y899931D01*
X820299Y899927D01*
X820306Y899932D01*
G37*
G36*
X243726Y43952D02*
X243726Y43952D01*
X243730Y43949D01*
X244676Y44161D01*
X244681Y44167D01*
X244686Y44164D01*
X245561Y44582D01*
X245565Y44589D01*
X245571Y44588D01*
X246331Y45189D01*
X246333Y45197D01*
X246339Y45197D01*
X246946Y45953D01*
X246946Y45961D01*
X246952Y45962D01*
X247375Y46834D01*
X247375Y46838D01*
X247377Y46840D01*
X247375Y46843D01*
X247379Y46845D01*
X247598Y47789D01*
X247595Y47796D01*
X247599Y47800D01*
X247599Y59800D01*
X247598Y59802D01*
X247599Y59804D01*
X247518Y60921D01*
X247513Y60927D01*
X247516Y60932D01*
X247189Y62004D01*
X247182Y62008D01*
X247184Y62014D01*
X246627Y62986D01*
X246619Y62989D01*
X246620Y62995D01*
X245860Y63818D01*
X245852Y63819D01*
X245852Y63825D01*
X244927Y64459D01*
X244919Y64458D01*
X244918Y64464D01*
X243876Y64876D01*
X243868Y64874D01*
X243865Y64879D01*
X242757Y65049D01*
X242751Y65045D01*
X242747Y65049D01*
X241639Y64981D01*
X241635Y64977D01*
X241631Y64977D01*
X241628Y64979D01*
X240564Y64666D01*
X240559Y64659D01*
X240553Y64661D01*
X239585Y64119D01*
X239582Y64111D01*
X239576Y64112D01*
X238753Y63368D01*
X238751Y63360D01*
X238746Y63360D01*
X238108Y62451D01*
X238109Y62443D01*
X238103Y62442D01*
X237684Y61414D01*
X237686Y61406D01*
X237681Y61403D01*
X237501Y60308D01*
X237504Y60303D01*
X237501Y60300D01*
X237501Y48300D01*
X237505Y48294D01*
X237502Y48290D01*
X237721Y47244D01*
X237727Y47239D01*
X237724Y47234D01*
X238171Y46263D01*
X238178Y46259D01*
X238177Y46254D01*
X238828Y45407D01*
X238836Y45404D01*
X238836Y45399D01*
X239659Y44718D01*
X239667Y44717D01*
X239668Y44712D01*
X240622Y44231D01*
X240630Y44233D01*
X240633Y44227D01*
X241670Y43971D01*
X241677Y43974D01*
X241681Y43970D01*
X242749Y43951D01*
X242750Y43951D01*
X243719Y43947D01*
X243726Y43952D01*
G37*
G36*
X820306Y43952D02*
X820306Y43952D01*
X820310Y43949D01*
X821256Y44161D01*
X821261Y44167D01*
X821266Y44164D01*
X822141Y44582D01*
X822145Y44589D01*
X822151Y44588D01*
X822911Y45189D01*
X822913Y45197D01*
X822919Y45197D01*
X823526Y45953D01*
X823526Y45961D01*
X823532Y45962D01*
X823955Y46834D01*
X823955Y46838D01*
X823957Y46840D01*
X823955Y46843D01*
X823959Y46845D01*
X824178Y47789D01*
X824175Y47796D01*
X824179Y47800D01*
X824179Y59800D01*
X824178Y59802D01*
X824179Y59804D01*
X824098Y60921D01*
X824093Y60927D01*
X824096Y60932D01*
X823769Y62004D01*
X823762Y62008D01*
X823764Y62014D01*
X823207Y62986D01*
X823199Y62989D01*
X823200Y62995D01*
X822440Y63818D01*
X822432Y63819D01*
X822432Y63825D01*
X821507Y64459D01*
X821499Y64458D01*
X821498Y64464D01*
X820456Y64876D01*
X820448Y64874D01*
X820445Y64879D01*
X819337Y65049D01*
X819331Y65045D01*
X819327Y65049D01*
X818219Y64981D01*
X818215Y64977D01*
X818211Y64977D01*
X818208Y64979D01*
X817144Y64666D01*
X817139Y64659D01*
X817133Y64661D01*
X816165Y64119D01*
X816162Y64111D01*
X816156Y64112D01*
X815333Y63368D01*
X815331Y63360D01*
X815326Y63360D01*
X814688Y62451D01*
X814689Y62443D01*
X814683Y62442D01*
X814264Y61414D01*
X814266Y61406D01*
X814261Y61403D01*
X814081Y60308D01*
X814084Y60303D01*
X814081Y60300D01*
X814081Y48300D01*
X814085Y48294D01*
X814082Y48290D01*
X814301Y47244D01*
X814307Y47239D01*
X814304Y47234D01*
X814751Y46263D01*
X814758Y46259D01*
X814757Y46254D01*
X815408Y45407D01*
X815416Y45404D01*
X815416Y45399D01*
X816239Y44718D01*
X816247Y44717D01*
X816248Y44712D01*
X817202Y44231D01*
X817210Y44233D01*
X817213Y44227D01*
X818250Y43971D01*
X818257Y43974D01*
X818261Y43970D01*
X819329Y43951D01*
X819330Y43951D01*
X820299Y43947D01*
X820306Y43952D01*
G37*
G36*
X329252Y899933D02*
X329252Y899933D01*
X329253Y899931D01*
X330260Y899999D01*
X330266Y900005D01*
X330271Y900001D01*
X331236Y900292D01*
X331241Y900298D01*
X331247Y900296D01*
X332124Y900794D01*
X332127Y900802D01*
X332133Y900801D01*
X332877Y901482D01*
X332878Y901490D01*
X332884Y901490D01*
X333458Y902319D01*
X333458Y902327D01*
X333459Y902328D01*
X333463Y902329D01*
X333838Y903265D01*
X333838Y903266D01*
X333838Y903267D01*
X333836Y903273D01*
X333841Y903276D01*
X333999Y904272D01*
X333996Y904277D01*
X333999Y904280D01*
X333999Y916280D01*
X333997Y916283D01*
X333999Y916286D01*
X333881Y917331D01*
X333875Y917337D01*
X333879Y917342D01*
X333531Y918336D01*
X333524Y918340D01*
X333526Y918345D01*
X332966Y919237D01*
X332959Y919240D01*
X332959Y919245D01*
X332215Y919989D01*
X332207Y919991D01*
X332207Y919996D01*
X331315Y920556D01*
X331307Y920556D01*
X331306Y920561D01*
X330312Y920909D01*
X330304Y920906D01*
X330301Y920911D01*
X329256Y921029D01*
X329250Y921026D01*
X329247Y921029D01*
X328127Y920971D01*
X328121Y920965D01*
X328116Y920969D01*
X327037Y920662D01*
X327032Y920656D01*
X327027Y920658D01*
X326043Y920119D01*
X326040Y920112D01*
X326034Y920113D01*
X325195Y919369D01*
X325194Y919361D01*
X325188Y919361D01*
X324535Y918448D01*
X324535Y918440D01*
X324530Y918439D01*
X324097Y917404D01*
X324099Y917396D01*
X324094Y917394D01*
X323901Y916288D01*
X323904Y916283D01*
X323901Y916280D01*
X323901Y904280D01*
X323906Y904274D01*
X323902Y904269D01*
X324134Y903214D01*
X324140Y903209D01*
X324137Y903203D01*
X324598Y902226D01*
X324605Y902222D01*
X324604Y902217D01*
X325270Y901366D01*
X325278Y901364D01*
X325278Y901358D01*
X326117Y900677D01*
X326125Y900677D01*
X326126Y900671D01*
X327096Y900194D01*
X327104Y900196D01*
X327106Y900191D01*
X328158Y899941D01*
X328166Y899945D01*
X328169Y899940D01*
X329250Y899931D01*
X329252Y899933D01*
G37*
G36*
X905832Y899933D02*
X905832Y899933D01*
X905833Y899931D01*
X906840Y899999D01*
X906846Y900005D01*
X906851Y900001D01*
X907816Y900292D01*
X907821Y900298D01*
X907827Y900296D01*
X908704Y900794D01*
X908707Y900802D01*
X908713Y900801D01*
X909457Y901482D01*
X909458Y901490D01*
X909464Y901490D01*
X910038Y902319D01*
X910038Y902327D01*
X910039Y902328D01*
X910043Y902329D01*
X910418Y903265D01*
X910418Y903266D01*
X910418Y903267D01*
X910416Y903273D01*
X910421Y903276D01*
X910579Y904272D01*
X910576Y904277D01*
X910579Y904280D01*
X910579Y916280D01*
X910577Y916283D01*
X910579Y916286D01*
X910461Y917331D01*
X910455Y917337D01*
X910459Y917342D01*
X910111Y918336D01*
X910104Y918340D01*
X910106Y918345D01*
X909546Y919237D01*
X909539Y919240D01*
X909539Y919245D01*
X908795Y919989D01*
X908787Y919991D01*
X908787Y919996D01*
X907895Y920556D01*
X907887Y920556D01*
X907886Y920561D01*
X906892Y920909D01*
X906884Y920906D01*
X906881Y920911D01*
X905836Y921029D01*
X905830Y921026D01*
X905827Y921029D01*
X904707Y920971D01*
X904701Y920965D01*
X904696Y920969D01*
X903617Y920662D01*
X903612Y920656D01*
X903607Y920658D01*
X902623Y920119D01*
X902620Y920112D01*
X902614Y920113D01*
X901775Y919369D01*
X901774Y919361D01*
X901768Y919361D01*
X901115Y918448D01*
X901115Y918440D01*
X901110Y918439D01*
X900677Y917404D01*
X900679Y917396D01*
X900674Y917394D01*
X900481Y916288D01*
X900484Y916283D01*
X900481Y916280D01*
X900481Y904280D01*
X900486Y904274D01*
X900482Y904269D01*
X900714Y903214D01*
X900720Y903209D01*
X900717Y903203D01*
X901178Y902226D01*
X901185Y902222D01*
X901184Y902217D01*
X901850Y901366D01*
X901858Y901364D01*
X901858Y901358D01*
X902697Y900677D01*
X902705Y900677D01*
X902706Y900671D01*
X903676Y900194D01*
X903684Y900196D01*
X903686Y900191D01*
X904738Y899941D01*
X904746Y899945D01*
X904749Y899940D01*
X905830Y899931D01*
X905832Y899933D01*
G37*
G36*
X905832Y43953D02*
X905832Y43953D01*
X905833Y43951D01*
X906840Y44019D01*
X906846Y44025D01*
X906851Y44021D01*
X907816Y44312D01*
X907821Y44318D01*
X907827Y44316D01*
X908704Y44814D01*
X908707Y44822D01*
X908713Y44821D01*
X909457Y45502D01*
X909458Y45510D01*
X909464Y45510D01*
X910038Y46339D01*
X910038Y46347D01*
X910039Y46348D01*
X910043Y46349D01*
X910418Y47285D01*
X910418Y47286D01*
X910418Y47287D01*
X910416Y47293D01*
X910421Y47296D01*
X910579Y48292D01*
X910576Y48297D01*
X910579Y48300D01*
X910579Y60300D01*
X910577Y60303D01*
X910579Y60306D01*
X910461Y61351D01*
X910455Y61357D01*
X910459Y61362D01*
X910111Y62356D01*
X910104Y62360D01*
X910106Y62365D01*
X909546Y63257D01*
X909539Y63260D01*
X909539Y63265D01*
X908795Y64009D01*
X908787Y64011D01*
X908787Y64016D01*
X907895Y64576D01*
X907887Y64576D01*
X907886Y64581D01*
X906892Y64929D01*
X906884Y64926D01*
X906881Y64931D01*
X905836Y65049D01*
X905830Y65046D01*
X905827Y65049D01*
X904707Y64991D01*
X904701Y64985D01*
X904696Y64989D01*
X903617Y64682D01*
X903612Y64676D01*
X903607Y64678D01*
X902623Y64139D01*
X902620Y64132D01*
X902614Y64133D01*
X901775Y63389D01*
X901774Y63381D01*
X901768Y63381D01*
X901115Y62468D01*
X901115Y62460D01*
X901110Y62459D01*
X900677Y61424D01*
X900679Y61416D01*
X900674Y61414D01*
X900481Y60308D01*
X900484Y60303D01*
X900481Y60300D01*
X900481Y48300D01*
X900486Y48294D01*
X900482Y48289D01*
X900714Y47234D01*
X900720Y47229D01*
X900717Y47223D01*
X901178Y46246D01*
X901185Y46242D01*
X901184Y46237D01*
X901850Y45386D01*
X901858Y45384D01*
X901858Y45378D01*
X902697Y44697D01*
X902705Y44697D01*
X902706Y44691D01*
X903676Y44214D01*
X903684Y44216D01*
X903686Y44211D01*
X904738Y43961D01*
X904746Y43965D01*
X904749Y43960D01*
X905830Y43951D01*
X905832Y43953D01*
G37*
G36*
X329252Y43953D02*
X329252Y43953D01*
X329253Y43951D01*
X330260Y44019D01*
X330266Y44025D01*
X330271Y44021D01*
X331236Y44312D01*
X331241Y44318D01*
X331247Y44316D01*
X332124Y44814D01*
X332127Y44822D01*
X332133Y44821D01*
X332877Y45502D01*
X332878Y45510D01*
X332884Y45510D01*
X333458Y46339D01*
X333458Y46347D01*
X333459Y46348D01*
X333463Y46349D01*
X333838Y47285D01*
X333838Y47286D01*
X333838Y47287D01*
X333836Y47293D01*
X333841Y47296D01*
X333999Y48292D01*
X333996Y48297D01*
X333999Y48300D01*
X333999Y60300D01*
X333997Y60303D01*
X333999Y60306D01*
X333881Y61351D01*
X333875Y61357D01*
X333879Y61362D01*
X333531Y62356D01*
X333524Y62360D01*
X333526Y62365D01*
X332966Y63257D01*
X332959Y63260D01*
X332959Y63265D01*
X332215Y64009D01*
X332207Y64011D01*
X332207Y64016D01*
X331315Y64576D01*
X331307Y64576D01*
X331306Y64581D01*
X330312Y64929D01*
X330304Y64926D01*
X330301Y64931D01*
X329256Y65049D01*
X329250Y65046D01*
X329247Y65049D01*
X328127Y64991D01*
X328121Y64985D01*
X328116Y64989D01*
X327037Y64682D01*
X327032Y64676D01*
X327027Y64678D01*
X326043Y64139D01*
X326040Y64132D01*
X326034Y64133D01*
X325195Y63389D01*
X325194Y63381D01*
X325188Y63381D01*
X324535Y62468D01*
X324535Y62460D01*
X324530Y62459D01*
X324097Y61424D01*
X324099Y61416D01*
X324094Y61414D01*
X323901Y60308D01*
X323904Y60303D01*
X323901Y60300D01*
X323901Y48300D01*
X323906Y48294D01*
X323902Y48289D01*
X324134Y47234D01*
X324140Y47229D01*
X324137Y47223D01*
X324598Y46246D01*
X324605Y46242D01*
X324604Y46237D01*
X325270Y45386D01*
X325278Y45384D01*
X325278Y45378D01*
X326117Y44697D01*
X326125Y44697D01*
X326126Y44691D01*
X327096Y44214D01*
X327104Y44216D01*
X327106Y44211D01*
X328158Y43961D01*
X328166Y43965D01*
X328169Y43960D01*
X329250Y43951D01*
X329252Y43953D01*
G37*
G36*
X243352Y860465D02*
X243352Y860465D01*
X243358Y860470D01*
X243363Y860466D01*
X244428Y860744D01*
X244433Y860750D01*
X244438Y860748D01*
X245415Y861256D01*
X245419Y861263D01*
X245424Y861262D01*
X246263Y861975D01*
X246265Y861983D01*
X246271Y861983D01*
X246931Y862864D01*
X246931Y862872D01*
X246936Y862874D01*
X247383Y863880D01*
X247381Y863888D01*
X247386Y863890D01*
X247598Y864971D01*
X247595Y864977D01*
X247599Y864980D01*
X247599Y870980D01*
X247598Y870981D01*
X247599Y870982D01*
X247548Y872137D01*
X247543Y872143D01*
X247546Y872148D01*
X247239Y873262D01*
X247233Y873267D01*
X247235Y873272D01*
X246688Y874291D01*
X246681Y874294D01*
X246682Y874300D01*
X245922Y875171D01*
X245914Y875172D01*
X245914Y875178D01*
X244979Y875858D01*
X244971Y875858D01*
X244969Y875863D01*
X243907Y876318D01*
X243899Y876316D01*
X243896Y876321D01*
X242759Y876528D01*
X242750Y876524D01*
X242745Y876529D01*
X241608Y876423D01*
X241602Y876418D01*
X241597Y876421D01*
X240512Y876065D01*
X240507Y876058D01*
X240502Y876061D01*
X239523Y875472D01*
X239520Y875464D01*
X239514Y875465D01*
X238691Y874673D01*
X238690Y874665D01*
X238684Y874665D01*
X238057Y873710D01*
X238058Y873702D01*
X238052Y873700D01*
X237654Y872630D01*
X237656Y872622D01*
X237651Y872619D01*
X237501Y871486D01*
X237504Y871482D01*
X237501Y871480D01*
X237501Y865480D01*
X237503Y865478D01*
X237501Y865476D01*
X237589Y864393D01*
X237595Y864387D01*
X237591Y864382D01*
X237918Y863346D01*
X237925Y863341D01*
X237923Y863336D01*
X238472Y862398D01*
X238480Y862395D01*
X238479Y862390D01*
X239223Y861598D01*
X239231Y861597D01*
X239231Y861591D01*
X240133Y860985D01*
X240141Y860985D01*
X240143Y860979D01*
X241157Y860589D01*
X241165Y860591D01*
X241168Y860586D01*
X242243Y860431D01*
X242249Y860434D01*
X242252Y860431D01*
X243352Y860465D01*
G37*
G36*
X819932Y860465D02*
X819932Y860465D01*
X819938Y860470D01*
X819943Y860466D01*
X821008Y860744D01*
X821013Y860750D01*
X821018Y860748D01*
X821995Y861256D01*
X821999Y861263D01*
X822004Y861262D01*
X822843Y861975D01*
X822845Y861983D01*
X822851Y861983D01*
X823511Y862864D01*
X823511Y862872D01*
X823516Y862874D01*
X823963Y863880D01*
X823961Y863888D01*
X823966Y863890D01*
X824178Y864971D01*
X824175Y864977D01*
X824179Y864980D01*
X824179Y870980D01*
X824178Y870981D01*
X824179Y870982D01*
X824128Y872137D01*
X824123Y872143D01*
X824126Y872148D01*
X823819Y873262D01*
X823813Y873267D01*
X823815Y873272D01*
X823268Y874291D01*
X823261Y874294D01*
X823262Y874300D01*
X822502Y875171D01*
X822494Y875172D01*
X822494Y875178D01*
X821559Y875858D01*
X821551Y875858D01*
X821549Y875863D01*
X820487Y876318D01*
X820479Y876316D01*
X820476Y876321D01*
X819339Y876528D01*
X819330Y876524D01*
X819325Y876529D01*
X818188Y876423D01*
X818182Y876418D01*
X818177Y876421D01*
X817092Y876065D01*
X817087Y876058D01*
X817082Y876061D01*
X816103Y875472D01*
X816100Y875464D01*
X816094Y875465D01*
X815271Y874673D01*
X815270Y874665D01*
X815264Y874665D01*
X814637Y873710D01*
X814638Y873702D01*
X814632Y873700D01*
X814234Y872630D01*
X814236Y872622D01*
X814231Y872619D01*
X814081Y871486D01*
X814084Y871482D01*
X814081Y871480D01*
X814081Y865480D01*
X814083Y865478D01*
X814081Y865476D01*
X814169Y864393D01*
X814175Y864387D01*
X814171Y864382D01*
X814498Y863346D01*
X814505Y863341D01*
X814503Y863336D01*
X815052Y862398D01*
X815060Y862395D01*
X815059Y862390D01*
X815803Y861598D01*
X815811Y861597D01*
X815811Y861591D01*
X816713Y860985D01*
X816721Y860985D01*
X816723Y860979D01*
X817737Y860589D01*
X817745Y860591D01*
X817748Y860586D01*
X818823Y860431D01*
X818829Y860434D01*
X818832Y860431D01*
X819932Y860465D01*
G37*
G36*
X243352Y4485D02*
X243352Y4485D01*
X243358Y4490D01*
X243363Y4486D01*
X244428Y4764D01*
X244433Y4770D01*
X244438Y4768D01*
X245415Y5276D01*
X245419Y5283D01*
X245424Y5282D01*
X246263Y5995D01*
X246265Y6003D01*
X246271Y6003D01*
X246931Y6884D01*
X246931Y6892D01*
X246936Y6894D01*
X247383Y7900D01*
X247381Y7908D01*
X247386Y7910D01*
X247598Y8991D01*
X247595Y8997D01*
X247599Y9000D01*
X247599Y15000D01*
X247598Y15001D01*
X247599Y15002D01*
X247548Y16157D01*
X247543Y16163D01*
X247546Y16168D01*
X247239Y17282D01*
X247233Y17287D01*
X247235Y17292D01*
X246688Y18311D01*
X246681Y18314D01*
X246682Y18320D01*
X245922Y19191D01*
X245914Y19192D01*
X245914Y19198D01*
X244979Y19878D01*
X244971Y19878D01*
X244969Y19883D01*
X243907Y20338D01*
X243899Y20336D01*
X243896Y20341D01*
X242759Y20548D01*
X242750Y20544D01*
X242745Y20549D01*
X241608Y20443D01*
X241602Y20438D01*
X241597Y20441D01*
X240512Y20085D01*
X240507Y20078D01*
X240502Y20081D01*
X239523Y19492D01*
X239520Y19484D01*
X239514Y19485D01*
X238691Y18693D01*
X238690Y18685D01*
X238684Y18685D01*
X238057Y17730D01*
X238058Y17722D01*
X238052Y17720D01*
X237654Y16650D01*
X237656Y16642D01*
X237651Y16639D01*
X237501Y15506D01*
X237504Y15502D01*
X237501Y15500D01*
X237501Y9500D01*
X237503Y9498D01*
X237501Y9496D01*
X237589Y8413D01*
X237595Y8407D01*
X237591Y8402D01*
X237918Y7366D01*
X237925Y7361D01*
X237923Y7356D01*
X238472Y6418D01*
X238480Y6415D01*
X238479Y6410D01*
X239223Y5618D01*
X239231Y5617D01*
X239231Y5611D01*
X240133Y5005D01*
X240141Y5005D01*
X240143Y4999D01*
X241157Y4609D01*
X241165Y4611D01*
X241168Y4606D01*
X242243Y4451D01*
X242249Y4454D01*
X242252Y4451D01*
X243352Y4485D01*
G37*
G36*
X819932Y4485D02*
X819932Y4485D01*
X819938Y4490D01*
X819943Y4486D01*
X821008Y4764D01*
X821013Y4770D01*
X821018Y4768D01*
X821995Y5276D01*
X821999Y5283D01*
X822004Y5282D01*
X822843Y5995D01*
X822845Y6003D01*
X822851Y6003D01*
X823511Y6884D01*
X823511Y6892D01*
X823516Y6894D01*
X823963Y7900D01*
X823961Y7908D01*
X823966Y7910D01*
X824178Y8991D01*
X824175Y8997D01*
X824179Y9000D01*
X824179Y15000D01*
X824178Y15001D01*
X824179Y15002D01*
X824128Y16157D01*
X824123Y16163D01*
X824126Y16168D01*
X823819Y17282D01*
X823813Y17287D01*
X823815Y17292D01*
X823268Y18311D01*
X823261Y18314D01*
X823262Y18320D01*
X822502Y19191D01*
X822494Y19192D01*
X822494Y19198D01*
X821559Y19878D01*
X821551Y19878D01*
X821549Y19883D01*
X820487Y20338D01*
X820479Y20336D01*
X820476Y20341D01*
X819339Y20548D01*
X819330Y20544D01*
X819325Y20549D01*
X818188Y20443D01*
X818182Y20438D01*
X818177Y20441D01*
X817092Y20085D01*
X817087Y20078D01*
X817082Y20081D01*
X816103Y19492D01*
X816100Y19484D01*
X816094Y19485D01*
X815271Y18693D01*
X815270Y18685D01*
X815264Y18685D01*
X814637Y17730D01*
X814638Y17722D01*
X814632Y17720D01*
X814234Y16650D01*
X814236Y16642D01*
X814231Y16639D01*
X814081Y15506D01*
X814084Y15502D01*
X814081Y15500D01*
X814081Y9500D01*
X814083Y9498D01*
X814081Y9496D01*
X814169Y8413D01*
X814175Y8407D01*
X814171Y8402D01*
X814498Y7366D01*
X814505Y7361D01*
X814503Y7356D01*
X815052Y6418D01*
X815060Y6415D01*
X815059Y6410D01*
X815803Y5618D01*
X815811Y5617D01*
X815811Y5611D01*
X816713Y5005D01*
X816721Y5005D01*
X816723Y4999D01*
X817737Y4609D01*
X817745Y4611D01*
X817748Y4606D01*
X818823Y4451D01*
X818829Y4454D01*
X818832Y4451D01*
X819932Y4485D01*
G37*
G36*
X906472Y860537D02*
X906472Y860537D01*
X906478Y860542D01*
X906483Y860539D01*
X907568Y860895D01*
X907573Y860902D01*
X907578Y860899D01*
X908557Y861488D01*
X908560Y861496D01*
X908566Y861495D01*
X909389Y862287D01*
X909390Y862295D01*
X909396Y862295D01*
X910023Y863250D01*
X910022Y863258D01*
X910028Y863260D01*
X910426Y864330D01*
X910424Y864338D01*
X910429Y864341D01*
X910579Y865474D01*
X910576Y865478D01*
X910579Y865480D01*
X910579Y871480D01*
X910576Y871484D01*
X910579Y871486D01*
X910429Y872619D01*
X910423Y872625D01*
X910426Y872630D01*
X910028Y873700D01*
X910021Y873704D01*
X910023Y873710D01*
X909396Y874665D01*
X909388Y874668D01*
X909389Y874673D01*
X908566Y875465D01*
X908558Y875466D01*
X908557Y875472D01*
X907578Y876061D01*
X907570Y876060D01*
X907568Y876065D01*
X906483Y876421D01*
X906475Y876419D01*
X906472Y876423D01*
X905335Y876529D01*
X905328Y876525D01*
X905324Y876529D01*
X904236Y876384D01*
X904230Y876378D01*
X904225Y876381D01*
X903197Y875998D01*
X903192Y875991D01*
X903187Y875993D01*
X902270Y875390D01*
X902267Y875382D01*
X902261Y875383D01*
X901501Y874591D01*
X901500Y874583D01*
X901494Y874582D01*
X900930Y873641D01*
X900931Y873633D01*
X900925Y873631D01*
X900584Y872588D01*
X900586Y872580D01*
X900582Y872577D01*
X900481Y871485D01*
X900483Y871482D01*
X900481Y871480D01*
X900481Y865480D01*
X900483Y865477D01*
X900481Y865476D01*
X900582Y864383D01*
X900587Y864377D01*
X900584Y864372D01*
X900925Y863329D01*
X900932Y863324D01*
X900930Y863319D01*
X901494Y862378D01*
X901502Y862375D01*
X901501Y862369D01*
X902261Y861577D01*
X902269Y861576D01*
X902270Y861570D01*
X903187Y860968D01*
X903195Y860968D01*
X903197Y860963D01*
X904225Y860579D01*
X904233Y860581D01*
X904236Y860576D01*
X905324Y860431D01*
X905331Y860435D01*
X905335Y860431D01*
X906472Y860537D01*
G37*
G36*
X329892Y860537D02*
X329892Y860537D01*
X329898Y860542D01*
X329903Y860539D01*
X330988Y860895D01*
X330993Y860902D01*
X330998Y860899D01*
X331977Y861488D01*
X331980Y861496D01*
X331986Y861495D01*
X332809Y862287D01*
X332810Y862295D01*
X332816Y862295D01*
X333443Y863250D01*
X333442Y863258D01*
X333448Y863260D01*
X333846Y864330D01*
X333844Y864338D01*
X333849Y864341D01*
X333999Y865474D01*
X333996Y865478D01*
X333999Y865480D01*
X333999Y871480D01*
X333996Y871484D01*
X333999Y871486D01*
X333849Y872619D01*
X333843Y872625D01*
X333846Y872630D01*
X333448Y873700D01*
X333441Y873704D01*
X333443Y873710D01*
X332816Y874665D01*
X332808Y874668D01*
X332809Y874673D01*
X331986Y875465D01*
X331978Y875466D01*
X331977Y875472D01*
X330998Y876061D01*
X330990Y876060D01*
X330988Y876065D01*
X329903Y876421D01*
X329895Y876419D01*
X329892Y876423D01*
X328755Y876529D01*
X328748Y876525D01*
X328744Y876529D01*
X327656Y876384D01*
X327650Y876378D01*
X327645Y876381D01*
X326617Y875998D01*
X326612Y875991D01*
X326607Y875993D01*
X325690Y875390D01*
X325687Y875382D01*
X325681Y875383D01*
X324921Y874591D01*
X324920Y874583D01*
X324914Y874582D01*
X324350Y873641D01*
X324351Y873633D01*
X324345Y873631D01*
X324004Y872588D01*
X324006Y872580D01*
X324002Y872577D01*
X323901Y871485D01*
X323903Y871482D01*
X323901Y871480D01*
X323901Y865480D01*
X323903Y865477D01*
X323901Y865476D01*
X324002Y864383D01*
X324007Y864377D01*
X324004Y864372D01*
X324345Y863329D01*
X324352Y863324D01*
X324350Y863319D01*
X324914Y862378D01*
X324922Y862375D01*
X324921Y862369D01*
X325681Y861577D01*
X325689Y861576D01*
X325690Y861570D01*
X326607Y860968D01*
X326615Y860968D01*
X326617Y860963D01*
X327645Y860579D01*
X327653Y860581D01*
X327656Y860576D01*
X328744Y860431D01*
X328751Y860435D01*
X328755Y860431D01*
X329892Y860537D01*
G37*
G36*
X329892Y4557D02*
X329892Y4557D01*
X329898Y4562D01*
X329903Y4559D01*
X330988Y4915D01*
X330993Y4922D01*
X330998Y4919D01*
X331977Y5508D01*
X331980Y5516D01*
X331986Y5515D01*
X332809Y6307D01*
X332810Y6315D01*
X332816Y6315D01*
X333443Y7270D01*
X333442Y7278D01*
X333448Y7280D01*
X333846Y8350D01*
X333844Y8358D01*
X333849Y8361D01*
X333999Y9494D01*
X333996Y9498D01*
X333999Y9500D01*
X333999Y15500D01*
X333996Y15504D01*
X333999Y15506D01*
X333849Y16639D01*
X333843Y16645D01*
X333846Y16650D01*
X333448Y17720D01*
X333441Y17724D01*
X333443Y17730D01*
X332816Y18685D01*
X332808Y18688D01*
X332809Y18693D01*
X331986Y19485D01*
X331978Y19486D01*
X331977Y19492D01*
X330998Y20081D01*
X330990Y20080D01*
X330988Y20085D01*
X329903Y20441D01*
X329895Y20439D01*
X329892Y20443D01*
X328755Y20549D01*
X328748Y20545D01*
X328744Y20549D01*
X327656Y20404D01*
X327650Y20398D01*
X327645Y20401D01*
X326617Y20018D01*
X326612Y20011D01*
X326607Y20013D01*
X325690Y19410D01*
X325687Y19402D01*
X325681Y19403D01*
X324921Y18611D01*
X324920Y18603D01*
X324914Y18602D01*
X324350Y17661D01*
X324351Y17653D01*
X324345Y17651D01*
X324004Y16608D01*
X324006Y16600D01*
X324002Y16597D01*
X323901Y15505D01*
X323903Y15502D01*
X323901Y15500D01*
X323901Y9500D01*
X323903Y9497D01*
X323901Y9496D01*
X324002Y8403D01*
X324007Y8397D01*
X324004Y8392D01*
X324345Y7349D01*
X324352Y7344D01*
X324350Y7339D01*
X324914Y6398D01*
X324922Y6395D01*
X324921Y6389D01*
X325681Y5597D01*
X325689Y5596D01*
X325690Y5590D01*
X326607Y4988D01*
X326615Y4988D01*
X326617Y4983D01*
X327645Y4599D01*
X327653Y4601D01*
X327656Y4596D01*
X328744Y4451D01*
X328751Y4455D01*
X328755Y4451D01*
X329892Y4557D01*
G37*
G36*
X906472Y4557D02*
X906472Y4557D01*
X906478Y4562D01*
X906483Y4559D01*
X907568Y4915D01*
X907573Y4922D01*
X907578Y4919D01*
X908557Y5508D01*
X908560Y5516D01*
X908566Y5515D01*
X909389Y6307D01*
X909390Y6315D01*
X909396Y6315D01*
X910023Y7270D01*
X910022Y7278D01*
X910028Y7280D01*
X910426Y8350D01*
X910424Y8358D01*
X910429Y8361D01*
X910579Y9494D01*
X910576Y9498D01*
X910579Y9500D01*
X910579Y15500D01*
X910576Y15504D01*
X910579Y15506D01*
X910429Y16639D01*
X910423Y16645D01*
X910426Y16650D01*
X910028Y17720D01*
X910021Y17724D01*
X910023Y17730D01*
X909396Y18685D01*
X909388Y18688D01*
X909389Y18693D01*
X908566Y19485D01*
X908558Y19486D01*
X908557Y19492D01*
X907578Y20081D01*
X907570Y20080D01*
X907568Y20085D01*
X906483Y20441D01*
X906475Y20439D01*
X906472Y20443D01*
X905335Y20549D01*
X905328Y20545D01*
X905324Y20549D01*
X904236Y20404D01*
X904230Y20398D01*
X904225Y20401D01*
X903197Y20018D01*
X903192Y20011D01*
X903187Y20013D01*
X902270Y19410D01*
X902267Y19402D01*
X902261Y19403D01*
X901501Y18611D01*
X901500Y18603D01*
X901494Y18602D01*
X900930Y17661D01*
X900931Y17653D01*
X900925Y17651D01*
X900584Y16608D01*
X900586Y16600D01*
X900582Y16597D01*
X900481Y15505D01*
X900483Y15502D01*
X900481Y15500D01*
X900481Y9500D01*
X900483Y9497D01*
X900481Y9496D01*
X900582Y8403D01*
X900587Y8397D01*
X900584Y8392D01*
X900925Y7349D01*
X900932Y7344D01*
X900930Y7339D01*
X901494Y6398D01*
X901502Y6395D01*
X901501Y6389D01*
X902261Y5597D01*
X902269Y5596D01*
X902270Y5590D01*
X903187Y4988D01*
X903195Y4988D01*
X903197Y4983D01*
X904225Y4599D01*
X904233Y4601D01*
X904236Y4596D01*
X905324Y4451D01*
X905331Y4455D01*
X905335Y4451D01*
X906472Y4557D01*
G37*
D10*
X419100Y36440D03*
X419100Y19440D03*
X403860Y36440D03*
X403860Y19440D03*
D11*
X387350Y92740D03*
X387350Y64740D03*
D10*
X441960Y138040D03*
X441960Y121040D03*
X426720Y138040D03*
X426720Y121040D03*
X411480Y138040D03*
X411480Y121040D03*
D12*
X453390Y39440D03*
X453390Y16440D03*
D13*
X357110Y27940D03*
X387110Y27940D03*
D14*
X182250Y183600D03*
X389250Y183600D03*
D15*
X375750Y251350D03*
X378250Y175850D03*
X370750Y251350D03*
X373250Y175850D03*
X365750Y251350D03*
X368250Y175850D03*
X360750Y251350D03*
X363250Y175850D03*
X355750Y251350D03*
X358250Y175850D03*
X350750Y251350D03*
X353250Y175850D03*
X345750Y251350D03*
X348250Y175850D03*
X340750Y251350D03*
X343250Y175850D03*
X335750Y251350D03*
X338250Y175850D03*
X330750Y251350D03*
X333250Y175850D03*
X325750Y251350D03*
X328250Y175850D03*
X320750Y251350D03*
X323250Y175850D03*
X315750Y251350D03*
X318250Y175850D03*
X310750Y251350D03*
X313250Y175850D03*
X305750Y251350D03*
X308250Y175850D03*
X300750Y251350D03*
X303250Y175850D03*
X295750Y251350D03*
X298250Y175850D03*
X290750Y251350D03*
X293250Y175850D03*
X285750Y251350D03*
X288250Y175850D03*
X280750Y251350D03*
X283250Y175850D03*
X275750Y251350D03*
X278250Y175850D03*
X270750Y251350D03*
X273250Y175850D03*
X245750Y251350D03*
X248250Y175850D03*
X240750Y251350D03*
X243250Y175850D03*
X235750Y251350D03*
X238250Y175850D03*
X230750Y251350D03*
X233250Y175850D03*
X225750Y251350D03*
X228250Y175850D03*
X220750Y251350D03*
X223250Y175850D03*
X215750Y251350D03*
X218250Y175850D03*
X210750Y251350D03*
X213250Y175850D03*
X205750Y251350D03*
X208250Y175850D03*
X200750Y251350D03*
X203250Y175850D03*
X195750Y251350D03*
X198250Y175850D03*
X193250Y175850D03*
D16*
X410400Y506700D03*
X410400Y563700D03*
D17*
X541900Y579700D03*
X551900Y448200D03*
D18*
X513400Y494800D03*
X509400Y505800D03*
X513400Y516800D03*
X515400Y527800D03*
X513400Y538800D03*
X515400Y549800D03*
X513400Y560800D03*
X513400Y571800D03*
D19*
X278250Y60100D03*
X283250Y60100D03*
D20*
X253500Y60100D03*
X261250Y60100D03*
D19*
X268250Y60100D03*
X273250Y60100D03*
X293250Y60100D03*
X288250Y60100D03*
D20*
X318000Y60100D03*
X310250Y60100D03*
D19*
X303250Y60100D03*
X298250Y60100D03*
D10*
X266700Y97400D03*
X266700Y80400D03*
X298450Y97400D03*
X298450Y80400D03*
X436880Y36440D03*
X436880Y19440D03*
D21*
X535940Y742950D03*
X480060Y742950D03*
X535940Y704850D03*
X480060Y704850D03*
X535940Y661670D03*
X480060Y661670D03*
X535940Y623570D03*
X480060Y623570D03*
D22*
X431800Y78740D03*
D23*
X422050Y92490D03*
X428550Y92490D03*
X435050Y92490D03*
X441550Y92490D03*
X441550Y64990D03*
X435050Y64990D03*
X428550Y64990D03*
X422050Y64990D03*
D24*
X431410Y431800D03*
X414410Y431800D03*
X288680Y537210D03*
X305680Y537210D03*
D25*
X197250Y599000D03*
X202250Y599000D03*
X207250Y599000D03*
X212250Y599000D03*
X217250Y599000D03*
X222250Y599000D03*
X227250Y599000D03*
X232250Y599000D03*
X237250Y599000D03*
X242250Y599000D03*
X247250Y599000D03*
X252250Y599000D03*
X257250Y599000D03*
X262250Y599000D03*
X267250Y599000D03*
X272250Y599000D03*
X277250Y599000D03*
X282250Y599000D03*
X287250Y599000D03*
X292250Y599000D03*
X297250Y599000D03*
X302250Y599000D03*
X307250Y599000D03*
X312250Y599000D03*
X317250Y599000D03*
X322250Y599000D03*
X327250Y599000D03*
X332250Y599000D03*
X337250Y599000D03*
X342250Y599000D03*
X347250Y599000D03*
X352250Y599000D03*
X357250Y599000D03*
X362250Y599000D03*
X367250Y599000D03*
X372250Y599000D03*
X377250Y599000D03*
X382250Y599000D03*
X387250Y599000D03*
X392250Y599000D03*
D26*
X408750Y630500D03*
X180750Y630500D03*
D27*
X241910Y522130D03*
X222910Y522130D03*
X232410Y543130D03*
D24*
X305680Y519430D03*
X288680Y519430D03*
X414410Y416560D03*
X431410Y416560D03*
D28*
X549830Y412810D03*
X549830Y356810D03*
D29*
X513080Y399810D03*
X513080Y389810D03*
X513080Y379810D03*
X513080Y369810D03*
D10*
X473710Y350130D03*
X473710Y333130D03*
X458470Y350130D03*
X458470Y333130D03*
D30*
X110490Y325760D03*
X110490Y405760D03*
D10*
X257810Y538090D03*
X257810Y521090D03*
X374650Y519820D03*
X374650Y536820D03*
D31*
X194310Y547400D03*
X194310Y519400D03*
D32*
X105090Y229820D03*
X105090Y210820D03*
X84090Y220320D03*
D10*
X121920Y211210D03*
X121920Y228210D03*
X995680Y36440D03*
X995680Y19440D03*
X980440Y36440D03*
X980440Y19440D03*
D11*
X963930Y92740D03*
X963930Y64740D03*
D10*
X1018540Y138040D03*
X1018540Y121040D03*
X1003300Y138040D03*
X1003300Y121040D03*
X988060Y138040D03*
X988060Y121040D03*
D12*
X1029970Y39440D03*
X1029970Y16440D03*
D13*
X933690Y27940D03*
X963690Y27940D03*
D14*
X758830Y183600D03*
X965830Y183600D03*
D15*
X952330Y251350D03*
X954830Y175850D03*
X947330Y251350D03*
X949830Y175850D03*
X942330Y251350D03*
X944830Y175850D03*
X937330Y251350D03*
X939830Y175850D03*
X932330Y251350D03*
X934830Y175850D03*
X927330Y251350D03*
X929830Y175850D03*
X922330Y251350D03*
X924830Y175850D03*
X917330Y251350D03*
X919830Y175850D03*
X912330Y251350D03*
X914830Y175850D03*
X907330Y251350D03*
X909830Y175850D03*
X902330Y251350D03*
X904830Y175850D03*
X897330Y251350D03*
X899830Y175850D03*
X892330Y251350D03*
X894830Y175850D03*
X887330Y251350D03*
X889830Y175850D03*
X882330Y251350D03*
X884830Y175850D03*
X877330Y251350D03*
X879830Y175850D03*
X872330Y251350D03*
X874830Y175850D03*
X867330Y251350D03*
X869830Y175850D03*
X862330Y251350D03*
X864830Y175850D03*
X857330Y251350D03*
X859830Y175850D03*
X852330Y251350D03*
X854830Y175850D03*
X847330Y251350D03*
X849830Y175850D03*
X822330Y251350D03*
X824830Y175850D03*
X817330Y251350D03*
X819830Y175850D03*
X812330Y251350D03*
X814830Y175850D03*
X807330Y251350D03*
X809830Y175850D03*
X802330Y251350D03*
X804830Y175850D03*
X797330Y251350D03*
X799830Y175850D03*
X792330Y251350D03*
X794830Y175850D03*
X787330Y251350D03*
X789830Y175850D03*
X782330Y251350D03*
X784830Y175850D03*
X777330Y251350D03*
X779830Y175850D03*
X772330Y251350D03*
X774830Y175850D03*
X769830Y175850D03*
D16*
X986980Y506700D03*
X986980Y563700D03*
D17*
X1118480Y579700D03*
X1128480Y448200D03*
D18*
X1089980Y494800D03*
X1085980Y505800D03*
X1089980Y516800D03*
X1091980Y527800D03*
X1089980Y538800D03*
X1091980Y549800D03*
X1089980Y560800D03*
X1089980Y571800D03*
D19*
X854830Y60100D03*
X859830Y60100D03*
D20*
X830080Y60100D03*
X837830Y60100D03*
D19*
X844830Y60100D03*
X849830Y60100D03*
X869830Y60100D03*
X864830Y60100D03*
D20*
X894580Y60100D03*
X886830Y60100D03*
D19*
X879830Y60100D03*
X874830Y60100D03*
D10*
X843280Y97400D03*
X843280Y80400D03*
X875030Y97400D03*
X875030Y80400D03*
X1013460Y36440D03*
X1013460Y19440D03*
D21*
X1112520Y742950D03*
X1056640Y742950D03*
X1112520Y704850D03*
X1056640Y704850D03*
X1112520Y661670D03*
X1056640Y661670D03*
X1112520Y623570D03*
X1056640Y623570D03*
D22*
X1008380Y78740D03*
D23*
X998630Y92490D03*
X1005130Y92490D03*
X1011630Y92490D03*
X1018130Y92490D03*
X1018130Y64990D03*
X1011630Y64990D03*
X1005130Y64990D03*
X998630Y64990D03*
D24*
X1007990Y431800D03*
X990990Y431800D03*
X865260Y537210D03*
X882260Y537210D03*
D25*
X773830Y599000D03*
X778830Y599000D03*
X783830Y599000D03*
X788830Y599000D03*
X793830Y599000D03*
X798830Y599000D03*
X803830Y599000D03*
X808830Y599000D03*
X813830Y599000D03*
X818830Y599000D03*
X823830Y599000D03*
X828830Y599000D03*
X833830Y599000D03*
X838830Y599000D03*
X843830Y599000D03*
X848830Y599000D03*
X853830Y599000D03*
X858830Y599000D03*
X863830Y599000D03*
X868830Y599000D03*
X873830Y599000D03*
X878830Y599000D03*
X883830Y599000D03*
X888830Y599000D03*
X893830Y599000D03*
X898830Y599000D03*
X903830Y599000D03*
X908830Y599000D03*
X913830Y599000D03*
X918830Y599000D03*
X923830Y599000D03*
X928830Y599000D03*
X933830Y599000D03*
X938830Y599000D03*
X943830Y599000D03*
X948830Y599000D03*
X953830Y599000D03*
X958830Y599000D03*
X963830Y599000D03*
X968830Y599000D03*
D26*
X985330Y630500D03*
X757330Y630500D03*
D27*
X818490Y522130D03*
X799490Y522130D03*
X808990Y543130D03*
D24*
X882260Y519430D03*
X865260Y519430D03*
X990990Y416560D03*
X1007990Y416560D03*
D28*
X1126410Y412810D03*
X1126410Y356810D03*
D29*
X1089660Y399810D03*
X1089660Y389810D03*
X1089660Y379810D03*
X1089660Y369810D03*
D10*
X1050290Y350130D03*
X1050290Y333130D03*
X1035050Y350130D03*
X1035050Y333130D03*
D30*
X687070Y325760D03*
X687070Y405760D03*
D10*
X834390Y538090D03*
X834390Y521090D03*
X951230Y519820D03*
X951230Y536820D03*
D31*
X770890Y547400D03*
X770890Y519400D03*
D32*
X681670Y229820D03*
X681670Y210820D03*
X660670Y220320D03*
D10*
X698500Y211210D03*
X698500Y228210D03*
X419100Y892420D03*
X419100Y875420D03*
X403860Y892420D03*
X403860Y875420D03*
D11*
X387350Y948720D03*
X387350Y920720D03*
D10*
X441960Y994020D03*
X441960Y977020D03*
X426720Y994020D03*
X426720Y977020D03*
X411480Y994020D03*
X411480Y977020D03*
D12*
X453390Y895420D03*
X453390Y872420D03*
D13*
X357110Y883920D03*
X387110Y883920D03*
D14*
X182250Y1039580D03*
X389250Y1039580D03*
D15*
X375750Y1107330D03*
X378250Y1031830D03*
X370750Y1107330D03*
X373250Y1031830D03*
X365750Y1107330D03*
X368250Y1031830D03*
X360750Y1107330D03*
X363250Y1031830D03*
X355750Y1107330D03*
X358250Y1031830D03*
X350750Y1107330D03*
X353250Y1031830D03*
X345750Y1107330D03*
X348250Y1031830D03*
X340750Y1107330D03*
X343250Y1031830D03*
X335750Y1107330D03*
X338250Y1031830D03*
X330750Y1107330D03*
X333250Y1031830D03*
X325750Y1107330D03*
X328250Y1031830D03*
X320750Y1107330D03*
X323250Y1031830D03*
X315750Y1107330D03*
X318250Y1031830D03*
X310750Y1107330D03*
X313250Y1031830D03*
X305750Y1107330D03*
X308250Y1031830D03*
X300750Y1107330D03*
X303250Y1031830D03*
X295750Y1107330D03*
X298250Y1031830D03*
X290750Y1107330D03*
X293250Y1031830D03*
X285750Y1107330D03*
X288250Y1031830D03*
X280750Y1107330D03*
X283250Y1031830D03*
X275750Y1107330D03*
X278250Y1031830D03*
X270750Y1107330D03*
X273250Y1031830D03*
X245750Y1107330D03*
X248250Y1031830D03*
X240750Y1107330D03*
X243250Y1031830D03*
X235750Y1107330D03*
X238250Y1031830D03*
X230750Y1107330D03*
X233250Y1031830D03*
X225750Y1107330D03*
X228250Y1031830D03*
X220750Y1107330D03*
X223250Y1031830D03*
X215750Y1107330D03*
X218250Y1031830D03*
X210750Y1107330D03*
X213250Y1031830D03*
X205750Y1107330D03*
X208250Y1031830D03*
X200750Y1107330D03*
X203250Y1031830D03*
X195750Y1107330D03*
X198250Y1031830D03*
X193250Y1031830D03*
D16*
X410400Y1362680D03*
X410400Y1419680D03*
D17*
X541900Y1435680D03*
X551900Y1304180D03*
D18*
X513400Y1350780D03*
X509400Y1361780D03*
X513400Y1372780D03*
X515400Y1383780D03*
X513400Y1394780D03*
X515400Y1405780D03*
X513400Y1416780D03*
X513400Y1427780D03*
D19*
X278250Y916080D03*
X283250Y916080D03*
D20*
X253500Y916080D03*
X261250Y916080D03*
D19*
X268250Y916080D03*
X273250Y916080D03*
X293250Y916080D03*
X288250Y916080D03*
D20*
X318000Y916080D03*
X310250Y916080D03*
D19*
X303250Y916080D03*
X298250Y916080D03*
D10*
X266700Y953380D03*
X266700Y936380D03*
X298450Y953380D03*
X298450Y936380D03*
X436880Y892420D03*
X436880Y875420D03*
D21*
X535940Y1598930D03*
X480060Y1598930D03*
X535940Y1560830D03*
X480060Y1560830D03*
X535940Y1517650D03*
X480060Y1517650D03*
X535940Y1479550D03*
X480060Y1479550D03*
D22*
X431800Y934720D03*
D23*
X422050Y948470D03*
X428550Y948470D03*
X435050Y948470D03*
X441550Y948470D03*
X441550Y920970D03*
X435050Y920970D03*
X428550Y920970D03*
X422050Y920970D03*
D24*
X431410Y1287780D03*
X414410Y1287780D03*
X288680Y1393190D03*
X305680Y1393190D03*
D25*
X197250Y1454980D03*
X202250Y1454980D03*
X207250Y1454980D03*
X212250Y1454980D03*
X217250Y1454980D03*
X222250Y1454980D03*
X227250Y1454980D03*
X232250Y1454980D03*
X237250Y1454980D03*
X242250Y1454980D03*
X247250Y1454980D03*
X252250Y1454980D03*
X257250Y1454980D03*
X262250Y1454980D03*
X267250Y1454980D03*
X272250Y1454980D03*
X277250Y1454980D03*
X282250Y1454980D03*
X287250Y1454980D03*
X292250Y1454980D03*
X297250Y1454980D03*
X302250Y1454980D03*
X307250Y1454980D03*
X312250Y1454980D03*
X317250Y1454980D03*
X322250Y1454980D03*
X327250Y1454980D03*
X332250Y1454980D03*
X337250Y1454980D03*
X342250Y1454980D03*
X347250Y1454980D03*
X352250Y1454980D03*
X357250Y1454980D03*
X362250Y1454980D03*
X367250Y1454980D03*
X372250Y1454980D03*
X377250Y1454980D03*
X382250Y1454980D03*
X387250Y1454980D03*
X392250Y1454980D03*
D26*
X408750Y1486480D03*
X180750Y1486480D03*
D27*
X241910Y1378110D03*
X222910Y1378110D03*
X232410Y1399110D03*
D24*
X305680Y1375410D03*
X288680Y1375410D03*
X414410Y1272540D03*
X431410Y1272540D03*
D28*
X549830Y1268790D03*
X549830Y1212790D03*
D29*
X513080Y1255790D03*
X513080Y1245790D03*
X513080Y1235790D03*
X513080Y1225790D03*
D10*
X473710Y1206110D03*
X473710Y1189110D03*
X458470Y1206110D03*
X458470Y1189110D03*
D30*
X110490Y1181740D03*
X110490Y1261740D03*
D10*
X257810Y1394070D03*
X257810Y1377070D03*
X374650Y1375800D03*
X374650Y1392800D03*
D31*
X194310Y1403380D03*
X194310Y1375380D03*
D32*
X105090Y1085800D03*
X105090Y1066800D03*
X84090Y1076300D03*
D10*
X121920Y1067190D03*
X121920Y1084190D03*
X995680Y892420D03*
X995680Y875420D03*
X980440Y892420D03*
X980440Y875420D03*
D11*
X963930Y948720D03*
X963930Y920720D03*
D10*
X1018540Y994020D03*
X1018540Y977020D03*
X1003300Y994020D03*
X1003300Y977020D03*
X988060Y994020D03*
X988060Y977020D03*
D12*
X1029970Y895420D03*
X1029970Y872420D03*
D13*
X933690Y883920D03*
X963690Y883920D03*
D14*
X758830Y1039580D03*
X965830Y1039580D03*
D15*
X952330Y1107330D03*
X954830Y1031830D03*
X947330Y1107330D03*
X949830Y1031830D03*
X942330Y1107330D03*
X944830Y1031830D03*
X937330Y1107330D03*
X939830Y1031830D03*
X932330Y1107330D03*
X934830Y1031830D03*
X927330Y1107330D03*
X929830Y1031830D03*
X922330Y1107330D03*
X924830Y1031830D03*
X917330Y1107330D03*
X919830Y1031830D03*
X912330Y1107330D03*
X914830Y1031830D03*
X907330Y1107330D03*
X909830Y1031830D03*
X902330Y1107330D03*
X904830Y1031830D03*
X897330Y1107330D03*
X899830Y1031830D03*
X892330Y1107330D03*
X894830Y1031830D03*
X887330Y1107330D03*
X889830Y1031830D03*
X882330Y1107330D03*
X884830Y1031830D03*
X877330Y1107330D03*
X879830Y1031830D03*
X872330Y1107330D03*
X874830Y1031830D03*
X867330Y1107330D03*
X869830Y1031830D03*
X862330Y1107330D03*
X864830Y1031830D03*
X857330Y1107330D03*
X859830Y1031830D03*
X852330Y1107330D03*
X854830Y1031830D03*
X847330Y1107330D03*
X849830Y1031830D03*
X822330Y1107330D03*
X824830Y1031830D03*
X817330Y1107330D03*
X819830Y1031830D03*
X812330Y1107330D03*
X814830Y1031830D03*
X807330Y1107330D03*
X809830Y1031830D03*
X802330Y1107330D03*
X804830Y1031830D03*
X797330Y1107330D03*
X799830Y1031830D03*
X792330Y1107330D03*
X794830Y1031830D03*
X787330Y1107330D03*
X789830Y1031830D03*
X782330Y1107330D03*
X784830Y1031830D03*
X777330Y1107330D03*
X779830Y1031830D03*
X772330Y1107330D03*
X774830Y1031830D03*
X769830Y1031830D03*
D16*
X986980Y1362680D03*
X986980Y1419680D03*
D17*
X1118480Y1435680D03*
X1128480Y1304180D03*
D18*
X1089980Y1350780D03*
X1085980Y1361780D03*
X1089980Y1372780D03*
X1091980Y1383780D03*
X1089980Y1394780D03*
X1091980Y1405780D03*
X1089980Y1416780D03*
X1089980Y1427780D03*
D19*
X854830Y916080D03*
X859830Y916080D03*
D20*
X830080Y916080D03*
X837830Y916080D03*
D19*
X844830Y916080D03*
X849830Y916080D03*
X869830Y916080D03*
X864830Y916080D03*
D20*
X894580Y916080D03*
X886830Y916080D03*
D19*
X879830Y916080D03*
X874830Y916080D03*
D10*
X843280Y953380D03*
X843280Y936380D03*
X875030Y953380D03*
X875030Y936380D03*
X1013460Y892420D03*
X1013460Y875420D03*
D21*
X1112520Y1598930D03*
X1056640Y1598930D03*
X1112520Y1560830D03*
X1056640Y1560830D03*
X1112520Y1517650D03*
X1056640Y1517650D03*
X1112520Y1479550D03*
X1056640Y1479550D03*
D22*
X1008380Y934720D03*
D23*
X998630Y948470D03*
X1005130Y948470D03*
X1011630Y948470D03*
X1018130Y948470D03*
X1018130Y920970D03*
X1011630Y920970D03*
X1005130Y920970D03*
X998630Y920970D03*
D24*
X1007990Y1287780D03*
X990990Y1287780D03*
X865260Y1393190D03*
X882260Y1393190D03*
D25*
X773830Y1454980D03*
X778830Y1454980D03*
X783830Y1454980D03*
X788830Y1454980D03*
X793830Y1454980D03*
X798830Y1454980D03*
X803830Y1454980D03*
X808830Y1454980D03*
X813830Y1454980D03*
X818830Y1454980D03*
X823830Y1454980D03*
X828830Y1454980D03*
X833830Y1454980D03*
X838830Y1454980D03*
X843830Y1454980D03*
X848830Y1454980D03*
X853830Y1454980D03*
X858830Y1454980D03*
X863830Y1454980D03*
X868830Y1454980D03*
X873830Y1454980D03*
X878830Y1454980D03*
X883830Y1454980D03*
X888830Y1454980D03*
X893830Y1454980D03*
X898830Y1454980D03*
X903830Y1454980D03*
X908830Y1454980D03*
X913830Y1454980D03*
X918830Y1454980D03*
X923830Y1454980D03*
X928830Y1454980D03*
X933830Y1454980D03*
X938830Y1454980D03*
X943830Y1454980D03*
X948830Y1454980D03*
X953830Y1454980D03*
X958830Y1454980D03*
X963830Y1454980D03*
X968830Y1454980D03*
D26*
X985330Y1486480D03*
X757330Y1486480D03*
D27*
X818490Y1378110D03*
X799490Y1378110D03*
X808990Y1399110D03*
D24*
X882260Y1375410D03*
X865260Y1375410D03*
X990990Y1272540D03*
X1007990Y1272540D03*
D28*
X1126410Y1268790D03*
X1126410Y1212790D03*
D29*
X1089660Y1255790D03*
X1089660Y1245790D03*
X1089660Y1235790D03*
X1089660Y1225790D03*
D10*
X1050290Y1206110D03*
X1050290Y1189110D03*
X1035050Y1206110D03*
X1035050Y1189110D03*
D30*
X687070Y1181740D03*
X687070Y1261740D03*
D10*
X834390Y1394070D03*
X834390Y1377070D03*
X951230Y1375800D03*
X951230Y1392800D03*
D31*
X770890Y1403380D03*
X770890Y1375380D03*
D32*
X681670Y1085800D03*
X681670Y1066800D03*
X660670Y1076300D03*
D10*
X698500Y1067190D03*
X698500Y1084190D03*
M02*
