G04 EAGLE Gerber RS-274X export*
G75*
%MOMM*%
%FSLAX34Y34*%
%LPD*%
%INSoldermask Bottom*%
%IPPOS*%
%AMOC8*
5,1,8,0,0,1.08239X$1,22.5*%
G01*
%ADD10R,0.838200X1.473200*%
%ADD11R,1.203200X1.303200*%
%ADD12R,1.803200X1.603200*%
%ADD13R,1.033200X0.833200*%
%ADD14R,1.203200X3.003200*%
%ADD15C,6.203200*%
%ADD16C,1.303200*%
%ADD17C,1.803200*%
%ADD18R,0.503200X1.753200*%
%ADD19R,1.403200X2.953200*%
%ADD20R,1.603200X2.003200*%
%ADD21R,2.103200X1.603200*%
%ADD22R,1.703200X1.003200*%
%ADD23R,0.503200X1.203200*%
%ADD24R,0.803200X1.203200*%
%ADD25C,0.853200*%
%ADD26C,1.221313*%
%ADD27R,1.473200X0.863600*%
%ADD28R,1.473200X0.838200*%
%ADD29C,2.082800*%
%ADD30R,1.727200X0.965200*%
%ADD31C,0.953200*%
%ADD32C,1.253200*%
%ADD33R,0.503200X0.853200*%
%ADD34R,2.553200X1.803200*%
%ADD35R,1.303200X1.203200*%
%ADD36C,3.505200*%
%ADD37R,0.503200X1.403200*%
%ADD38R,2.000000X2.200000*%
%ADD39R,1.003200X1.103200*%
%ADD40C,0.838200*%
%ADD41R,2.203200X1.403200*%
%ADD42R,1.553200X0.803200*%
%ADD43R,0.863600X1.473200*%
%ADD44C,1.203200*%
%ADD45R,2.703200X3.403200*%
%ADD46C,1.003200*%
%ADD47C,0.965200*%
%ADD48R,2.003200X1.803200*%
%ADD49R,1.103200X1.003200*%
%ADD50C,1.270000*%
%ADD51C,1.703200*%

G36*
X820414Y898863D02*
X820414Y898863D01*
X820420Y898869D01*
X820425Y898865D01*
X821655Y899230D01*
X821660Y899237D01*
X821665Y899235D01*
X822784Y899865D01*
X822787Y899872D01*
X822793Y899871D01*
X823743Y900734D01*
X823744Y900742D01*
X823750Y900742D01*
X824484Y901795D01*
X824484Y901803D01*
X824489Y901805D01*
X824971Y902995D01*
X824969Y903000D01*
X824973Y903003D01*
X824972Y903004D01*
X824974Y903005D01*
X825179Y904272D01*
X825176Y904277D01*
X825179Y904280D01*
X825179Y916280D01*
X825176Y916284D01*
X825179Y916287D01*
X825024Y917409D01*
X825019Y917414D01*
X825022Y917418D01*
X824651Y918489D01*
X824645Y918493D01*
X824647Y918498D01*
X824074Y919475D01*
X824068Y919478D01*
X824069Y919483D01*
X823316Y920330D01*
X823309Y920332D01*
X823309Y920337D01*
X822406Y921021D01*
X822399Y921021D01*
X822398Y921026D01*
X821379Y921521D01*
X821372Y921519D01*
X821370Y921524D01*
X820273Y921811D01*
X820267Y921808D01*
X820264Y921812D01*
X819133Y921879D01*
X819127Y921879D01*
X817996Y921812D01*
X817991Y921807D01*
X817987Y921811D01*
X816890Y921524D01*
X816886Y921518D01*
X816881Y921521D01*
X815862Y921026D01*
X815859Y921020D01*
X815854Y921021D01*
X814951Y920337D01*
X814949Y920330D01*
X814944Y920330D01*
X814191Y919483D01*
X814191Y919476D01*
X814186Y919475D01*
X813613Y918498D01*
X813614Y918495D01*
X813613Y918494D01*
X813614Y918493D01*
X813614Y918491D01*
X813609Y918489D01*
X813238Y917418D01*
X813240Y917413D01*
X813237Y917411D01*
X813237Y917410D01*
X813236Y917409D01*
X813081Y916287D01*
X813084Y916282D01*
X813081Y916280D01*
X813081Y904280D01*
X813084Y904275D01*
X813081Y904272D01*
X813286Y903005D01*
X813292Y902999D01*
X813289Y902995D01*
X813771Y901805D01*
X813778Y901801D01*
X813776Y901795D01*
X814510Y900742D01*
X814518Y900740D01*
X814517Y900734D01*
X815467Y899871D01*
X815476Y899870D01*
X815476Y899865D01*
X816595Y899235D01*
X816603Y899236D01*
X816605Y899230D01*
X817835Y898865D01*
X817843Y898868D01*
X817846Y898863D01*
X819127Y898781D01*
X819131Y898784D01*
X819133Y898781D01*
X820414Y898863D01*
G37*
G36*
X330234Y898863D02*
X330234Y898863D01*
X330240Y898869D01*
X330245Y898865D01*
X331475Y899230D01*
X331480Y899237D01*
X331485Y899235D01*
X332604Y899865D01*
X332607Y899872D01*
X332613Y899871D01*
X333563Y900734D01*
X333564Y900742D01*
X333570Y900742D01*
X334304Y901795D01*
X334304Y901803D01*
X334309Y901805D01*
X334791Y902995D01*
X334789Y903000D01*
X334793Y903003D01*
X334792Y903004D01*
X334794Y903005D01*
X334999Y904272D01*
X334996Y904277D01*
X334999Y904280D01*
X334999Y916280D01*
X334996Y916284D01*
X334999Y916287D01*
X334844Y917409D01*
X334839Y917414D01*
X334842Y917418D01*
X334471Y918489D01*
X334465Y918493D01*
X334467Y918498D01*
X333894Y919475D01*
X333888Y919478D01*
X333889Y919483D01*
X333136Y920330D01*
X333129Y920332D01*
X333129Y920337D01*
X332226Y921021D01*
X332219Y921021D01*
X332218Y921026D01*
X331199Y921521D01*
X331192Y921519D01*
X331190Y921524D01*
X330093Y921811D01*
X330087Y921808D01*
X330084Y921812D01*
X328953Y921879D01*
X328947Y921879D01*
X327816Y921812D01*
X327811Y921807D01*
X327807Y921811D01*
X326710Y921524D01*
X326706Y921518D01*
X326701Y921521D01*
X325682Y921026D01*
X325679Y921020D01*
X325674Y921021D01*
X324771Y920337D01*
X324769Y920330D01*
X324764Y920330D01*
X324011Y919483D01*
X324011Y919476D01*
X324006Y919475D01*
X323433Y918498D01*
X323434Y918495D01*
X323433Y918494D01*
X323434Y918493D01*
X323434Y918491D01*
X323429Y918489D01*
X323058Y917418D01*
X323060Y917413D01*
X323057Y917411D01*
X323057Y917410D01*
X323056Y917409D01*
X322901Y916287D01*
X322904Y916282D01*
X322901Y916280D01*
X322901Y904280D01*
X322904Y904275D01*
X322901Y904272D01*
X323106Y903005D01*
X323112Y902999D01*
X323109Y902995D01*
X323591Y901805D01*
X323598Y901801D01*
X323596Y901795D01*
X324330Y900742D01*
X324338Y900740D01*
X324337Y900734D01*
X325287Y899871D01*
X325296Y899870D01*
X325296Y899865D01*
X326415Y899235D01*
X326423Y899236D01*
X326425Y899230D01*
X327655Y898865D01*
X327663Y898868D01*
X327666Y898863D01*
X328947Y898781D01*
X328951Y898784D01*
X328953Y898781D01*
X330234Y898863D01*
G37*
G36*
X243834Y898863D02*
X243834Y898863D01*
X243840Y898869D01*
X243845Y898865D01*
X245075Y899230D01*
X245080Y899237D01*
X245085Y899235D01*
X246204Y899865D01*
X246207Y899872D01*
X246213Y899871D01*
X247163Y900734D01*
X247164Y900742D01*
X247170Y900742D01*
X247904Y901795D01*
X247904Y901803D01*
X247909Y901805D01*
X248391Y902995D01*
X248389Y903000D01*
X248393Y903003D01*
X248392Y903004D01*
X248394Y903005D01*
X248599Y904272D01*
X248596Y904277D01*
X248599Y904280D01*
X248599Y916280D01*
X248596Y916284D01*
X248599Y916287D01*
X248444Y917409D01*
X248439Y917414D01*
X248442Y917418D01*
X248071Y918489D01*
X248065Y918493D01*
X248067Y918498D01*
X247494Y919475D01*
X247488Y919478D01*
X247489Y919483D01*
X246736Y920330D01*
X246729Y920332D01*
X246729Y920337D01*
X245826Y921021D01*
X245819Y921021D01*
X245818Y921026D01*
X244799Y921521D01*
X244792Y921519D01*
X244790Y921524D01*
X243693Y921811D01*
X243687Y921808D01*
X243684Y921812D01*
X242553Y921879D01*
X242547Y921879D01*
X241416Y921812D01*
X241411Y921807D01*
X241407Y921811D01*
X240310Y921524D01*
X240306Y921518D01*
X240301Y921521D01*
X239282Y921026D01*
X239279Y921020D01*
X239274Y921021D01*
X238371Y920337D01*
X238369Y920330D01*
X238364Y920330D01*
X237611Y919483D01*
X237611Y919476D01*
X237606Y919475D01*
X237033Y918498D01*
X237034Y918495D01*
X237033Y918494D01*
X237034Y918493D01*
X237034Y918491D01*
X237029Y918489D01*
X236658Y917418D01*
X236660Y917413D01*
X236657Y917411D01*
X236657Y917410D01*
X236656Y917409D01*
X236501Y916287D01*
X236504Y916282D01*
X236501Y916280D01*
X236501Y904280D01*
X236504Y904275D01*
X236501Y904272D01*
X236706Y903005D01*
X236712Y902999D01*
X236709Y902995D01*
X237191Y901805D01*
X237198Y901801D01*
X237196Y901795D01*
X237930Y900742D01*
X237938Y900740D01*
X237937Y900734D01*
X238887Y899871D01*
X238896Y899870D01*
X238896Y899865D01*
X240015Y899235D01*
X240023Y899236D01*
X240025Y899230D01*
X241255Y898865D01*
X241263Y898868D01*
X241266Y898863D01*
X242547Y898781D01*
X242551Y898784D01*
X242553Y898781D01*
X243834Y898863D01*
G37*
G36*
X906814Y898863D02*
X906814Y898863D01*
X906820Y898869D01*
X906825Y898865D01*
X908055Y899230D01*
X908060Y899237D01*
X908065Y899235D01*
X909184Y899865D01*
X909187Y899872D01*
X909193Y899871D01*
X910143Y900734D01*
X910144Y900742D01*
X910150Y900742D01*
X910884Y901795D01*
X910884Y901803D01*
X910889Y901805D01*
X911371Y902995D01*
X911369Y903000D01*
X911373Y903003D01*
X911372Y903004D01*
X911374Y903005D01*
X911579Y904272D01*
X911576Y904277D01*
X911579Y904280D01*
X911579Y916280D01*
X911576Y916284D01*
X911579Y916287D01*
X911424Y917409D01*
X911419Y917414D01*
X911422Y917418D01*
X911051Y918489D01*
X911045Y918493D01*
X911047Y918498D01*
X910474Y919475D01*
X910468Y919478D01*
X910469Y919483D01*
X909716Y920330D01*
X909709Y920332D01*
X909709Y920337D01*
X908806Y921021D01*
X908799Y921021D01*
X908798Y921026D01*
X907779Y921521D01*
X907772Y921519D01*
X907770Y921524D01*
X906673Y921811D01*
X906667Y921808D01*
X906664Y921812D01*
X905533Y921879D01*
X905527Y921879D01*
X904396Y921812D01*
X904391Y921807D01*
X904387Y921811D01*
X903290Y921524D01*
X903286Y921518D01*
X903281Y921521D01*
X902262Y921026D01*
X902259Y921020D01*
X902254Y921021D01*
X901351Y920337D01*
X901349Y920330D01*
X901344Y920330D01*
X900591Y919483D01*
X900591Y919476D01*
X900586Y919475D01*
X900013Y918498D01*
X900014Y918495D01*
X900013Y918494D01*
X900014Y918493D01*
X900014Y918491D01*
X900009Y918489D01*
X899638Y917418D01*
X899640Y917413D01*
X899637Y917411D01*
X899637Y917410D01*
X899636Y917409D01*
X899481Y916287D01*
X899484Y916282D01*
X899481Y916280D01*
X899481Y904280D01*
X899484Y904275D01*
X899481Y904272D01*
X899686Y903005D01*
X899692Y902999D01*
X899689Y902995D01*
X900171Y901805D01*
X900178Y901801D01*
X900176Y901795D01*
X900910Y900742D01*
X900918Y900740D01*
X900917Y900734D01*
X901867Y899871D01*
X901876Y899870D01*
X901876Y899865D01*
X902995Y899235D01*
X903003Y899236D01*
X903005Y899230D01*
X904235Y898865D01*
X904243Y898868D01*
X904246Y898863D01*
X905527Y898781D01*
X905531Y898784D01*
X905533Y898781D01*
X906814Y898863D01*
G37*
G36*
X820414Y42883D02*
X820414Y42883D01*
X820420Y42889D01*
X820425Y42885D01*
X821655Y43250D01*
X821660Y43257D01*
X821665Y43255D01*
X822784Y43885D01*
X822787Y43892D01*
X822793Y43891D01*
X823743Y44754D01*
X823744Y44762D01*
X823750Y44762D01*
X824484Y45815D01*
X824484Y45823D01*
X824489Y45825D01*
X824971Y47015D01*
X824969Y47020D01*
X824973Y47023D01*
X824972Y47024D01*
X824974Y47025D01*
X825179Y48292D01*
X825176Y48297D01*
X825179Y48300D01*
X825179Y60300D01*
X825176Y60304D01*
X825179Y60307D01*
X825024Y61429D01*
X825019Y61434D01*
X825022Y61438D01*
X824651Y62509D01*
X824645Y62513D01*
X824647Y62518D01*
X824074Y63495D01*
X824068Y63498D01*
X824069Y63503D01*
X823316Y64350D01*
X823309Y64352D01*
X823309Y64357D01*
X822406Y65041D01*
X822399Y65041D01*
X822398Y65046D01*
X821379Y65541D01*
X821372Y65539D01*
X821370Y65544D01*
X820273Y65831D01*
X820267Y65828D01*
X820264Y65832D01*
X819133Y65899D01*
X819127Y65899D01*
X817996Y65832D01*
X817991Y65827D01*
X817987Y65831D01*
X816890Y65544D01*
X816886Y65538D01*
X816881Y65541D01*
X815862Y65046D01*
X815859Y65040D01*
X815854Y65041D01*
X814951Y64357D01*
X814949Y64350D01*
X814944Y64350D01*
X814191Y63503D01*
X814191Y63496D01*
X814186Y63495D01*
X813613Y62518D01*
X813614Y62515D01*
X813613Y62514D01*
X813614Y62513D01*
X813614Y62511D01*
X813609Y62509D01*
X813238Y61438D01*
X813240Y61433D01*
X813237Y61431D01*
X813237Y61430D01*
X813236Y61429D01*
X813081Y60307D01*
X813084Y60302D01*
X813081Y60300D01*
X813081Y48300D01*
X813084Y48295D01*
X813081Y48292D01*
X813286Y47025D01*
X813292Y47019D01*
X813289Y47015D01*
X813771Y45825D01*
X813778Y45821D01*
X813776Y45815D01*
X814510Y44762D01*
X814518Y44760D01*
X814517Y44754D01*
X815467Y43891D01*
X815476Y43890D01*
X815476Y43885D01*
X816595Y43255D01*
X816603Y43256D01*
X816605Y43250D01*
X817835Y42885D01*
X817843Y42888D01*
X817846Y42883D01*
X819127Y42801D01*
X819131Y42804D01*
X819133Y42801D01*
X820414Y42883D01*
G37*
G36*
X243834Y42883D02*
X243834Y42883D01*
X243840Y42889D01*
X243845Y42885D01*
X245075Y43250D01*
X245080Y43257D01*
X245085Y43255D01*
X246204Y43885D01*
X246207Y43892D01*
X246213Y43891D01*
X247163Y44754D01*
X247164Y44762D01*
X247170Y44762D01*
X247904Y45815D01*
X247904Y45823D01*
X247909Y45825D01*
X248391Y47015D01*
X248389Y47020D01*
X248393Y47023D01*
X248392Y47024D01*
X248394Y47025D01*
X248599Y48292D01*
X248596Y48297D01*
X248599Y48300D01*
X248599Y60300D01*
X248596Y60304D01*
X248599Y60307D01*
X248444Y61429D01*
X248439Y61434D01*
X248442Y61438D01*
X248071Y62509D01*
X248065Y62513D01*
X248067Y62518D01*
X247494Y63495D01*
X247488Y63498D01*
X247489Y63503D01*
X246736Y64350D01*
X246729Y64352D01*
X246729Y64357D01*
X245826Y65041D01*
X245819Y65041D01*
X245818Y65046D01*
X244799Y65541D01*
X244792Y65539D01*
X244790Y65544D01*
X243693Y65831D01*
X243687Y65828D01*
X243684Y65832D01*
X242553Y65899D01*
X242547Y65899D01*
X241416Y65832D01*
X241411Y65827D01*
X241407Y65831D01*
X240310Y65544D01*
X240306Y65538D01*
X240301Y65541D01*
X239282Y65046D01*
X239279Y65040D01*
X239274Y65041D01*
X238371Y64357D01*
X238369Y64350D01*
X238364Y64350D01*
X237611Y63503D01*
X237611Y63496D01*
X237606Y63495D01*
X237033Y62518D01*
X237034Y62515D01*
X237033Y62514D01*
X237034Y62513D01*
X237034Y62511D01*
X237029Y62509D01*
X236658Y61438D01*
X236660Y61433D01*
X236657Y61431D01*
X236657Y61430D01*
X236656Y61429D01*
X236501Y60307D01*
X236504Y60302D01*
X236501Y60300D01*
X236501Y48300D01*
X236504Y48295D01*
X236501Y48292D01*
X236706Y47025D01*
X236712Y47019D01*
X236709Y47015D01*
X237191Y45825D01*
X237198Y45821D01*
X237196Y45815D01*
X237930Y44762D01*
X237938Y44760D01*
X237937Y44754D01*
X238887Y43891D01*
X238896Y43890D01*
X238896Y43885D01*
X240015Y43255D01*
X240023Y43256D01*
X240025Y43250D01*
X241255Y42885D01*
X241263Y42888D01*
X241266Y42883D01*
X242547Y42801D01*
X242551Y42804D01*
X242553Y42801D01*
X243834Y42883D01*
G37*
G36*
X330234Y42883D02*
X330234Y42883D01*
X330240Y42889D01*
X330245Y42885D01*
X331475Y43250D01*
X331480Y43257D01*
X331485Y43255D01*
X332604Y43885D01*
X332607Y43892D01*
X332613Y43891D01*
X333563Y44754D01*
X333564Y44762D01*
X333570Y44762D01*
X334304Y45815D01*
X334304Y45823D01*
X334309Y45825D01*
X334791Y47015D01*
X334789Y47020D01*
X334793Y47023D01*
X334792Y47024D01*
X334794Y47025D01*
X334999Y48292D01*
X334996Y48297D01*
X334999Y48300D01*
X334999Y60300D01*
X334996Y60304D01*
X334999Y60307D01*
X334844Y61429D01*
X334839Y61434D01*
X334842Y61438D01*
X334471Y62509D01*
X334465Y62513D01*
X334467Y62518D01*
X333894Y63495D01*
X333888Y63498D01*
X333889Y63503D01*
X333136Y64350D01*
X333129Y64352D01*
X333129Y64357D01*
X332226Y65041D01*
X332219Y65041D01*
X332218Y65046D01*
X331199Y65541D01*
X331192Y65539D01*
X331190Y65544D01*
X330093Y65831D01*
X330087Y65828D01*
X330084Y65832D01*
X328953Y65899D01*
X328947Y65899D01*
X327816Y65832D01*
X327811Y65827D01*
X327807Y65831D01*
X326710Y65544D01*
X326706Y65538D01*
X326701Y65541D01*
X325682Y65046D01*
X325679Y65040D01*
X325674Y65041D01*
X324771Y64357D01*
X324769Y64350D01*
X324764Y64350D01*
X324011Y63503D01*
X324011Y63496D01*
X324006Y63495D01*
X323433Y62518D01*
X323434Y62515D01*
X323433Y62514D01*
X323434Y62513D01*
X323434Y62511D01*
X323429Y62509D01*
X323058Y61438D01*
X323060Y61433D01*
X323057Y61431D01*
X323057Y61430D01*
X323056Y61429D01*
X322901Y60307D01*
X322904Y60302D01*
X322901Y60300D01*
X322901Y48300D01*
X322904Y48295D01*
X322901Y48292D01*
X323106Y47025D01*
X323112Y47019D01*
X323109Y47015D01*
X323591Y45825D01*
X323598Y45821D01*
X323596Y45815D01*
X324330Y44762D01*
X324338Y44760D01*
X324337Y44754D01*
X325287Y43891D01*
X325296Y43890D01*
X325296Y43885D01*
X326415Y43255D01*
X326423Y43256D01*
X326425Y43250D01*
X327655Y42885D01*
X327663Y42888D01*
X327666Y42883D01*
X328947Y42801D01*
X328951Y42804D01*
X328953Y42801D01*
X330234Y42883D01*
G37*
G36*
X906814Y42883D02*
X906814Y42883D01*
X906820Y42889D01*
X906825Y42885D01*
X908055Y43250D01*
X908060Y43257D01*
X908065Y43255D01*
X909184Y43885D01*
X909187Y43892D01*
X909193Y43891D01*
X910143Y44754D01*
X910144Y44762D01*
X910150Y44762D01*
X910884Y45815D01*
X910884Y45823D01*
X910889Y45825D01*
X911371Y47015D01*
X911369Y47020D01*
X911373Y47023D01*
X911372Y47024D01*
X911374Y47025D01*
X911579Y48292D01*
X911576Y48297D01*
X911579Y48300D01*
X911579Y60300D01*
X911576Y60304D01*
X911579Y60307D01*
X911424Y61429D01*
X911419Y61434D01*
X911422Y61438D01*
X911051Y62509D01*
X911045Y62513D01*
X911047Y62518D01*
X910474Y63495D01*
X910468Y63498D01*
X910469Y63503D01*
X909716Y64350D01*
X909709Y64352D01*
X909709Y64357D01*
X908806Y65041D01*
X908799Y65041D01*
X908798Y65046D01*
X907779Y65541D01*
X907772Y65539D01*
X907770Y65544D01*
X906673Y65831D01*
X906667Y65828D01*
X906664Y65832D01*
X905533Y65899D01*
X905527Y65899D01*
X904396Y65832D01*
X904391Y65827D01*
X904387Y65831D01*
X903290Y65544D01*
X903286Y65538D01*
X903281Y65541D01*
X902262Y65046D01*
X902259Y65040D01*
X902254Y65041D01*
X901351Y64357D01*
X901349Y64350D01*
X901344Y64350D01*
X900591Y63503D01*
X900591Y63496D01*
X900586Y63495D01*
X900013Y62518D01*
X900014Y62515D01*
X900013Y62514D01*
X900014Y62513D01*
X900014Y62511D01*
X900009Y62509D01*
X899638Y61438D01*
X899640Y61433D01*
X899637Y61431D01*
X899637Y61430D01*
X899636Y61429D01*
X899481Y60307D01*
X899484Y60302D01*
X899481Y60300D01*
X899481Y48300D01*
X899484Y48295D01*
X899481Y48292D01*
X899686Y47025D01*
X899692Y47019D01*
X899689Y47015D01*
X900171Y45825D01*
X900178Y45821D01*
X900176Y45815D01*
X900910Y44762D01*
X900918Y44760D01*
X900917Y44754D01*
X901867Y43891D01*
X901876Y43890D01*
X901876Y43885D01*
X902995Y43255D01*
X903003Y43256D01*
X903005Y43250D01*
X904235Y42885D01*
X904243Y42888D01*
X904246Y42883D01*
X905527Y42801D01*
X905531Y42804D01*
X905533Y42801D01*
X906814Y42883D01*
G37*
G36*
X819132Y859485D02*
X819132Y859485D01*
X819135Y859481D01*
X820466Y859625D01*
X820469Y859629D01*
X820470Y859629D01*
X820473Y859630D01*
X820476Y859628D01*
X821741Y860064D01*
X821746Y860071D01*
X821751Y860069D01*
X822887Y860776D01*
X822890Y860784D01*
X822896Y860783D01*
X823846Y861725D01*
X823847Y861733D01*
X823852Y861734D01*
X824569Y862864D01*
X824568Y862872D01*
X824574Y862874D01*
X825021Y864135D01*
X825019Y864142D01*
X825024Y864145D01*
X825179Y865474D01*
X825177Y865478D01*
X825179Y865480D01*
X825179Y871480D01*
X825177Y871483D01*
X825179Y871485D01*
X825033Y872827D01*
X825028Y872833D01*
X825031Y872837D01*
X824591Y874113D01*
X824584Y874117D01*
X824586Y874123D01*
X823873Y875268D01*
X823865Y875271D01*
X823866Y875277D01*
X822916Y876235D01*
X822908Y876236D01*
X822907Y876242D01*
X821768Y876964D01*
X821760Y876963D01*
X821758Y876969D01*
X820487Y877420D01*
X820479Y877417D01*
X820476Y877422D01*
X819136Y877579D01*
X819129Y877575D01*
X819125Y877579D01*
X817950Y877458D01*
X817945Y877453D01*
X817941Y877456D01*
X816812Y877109D01*
X816808Y877103D01*
X816803Y877105D01*
X815764Y876544D01*
X815761Y876537D01*
X815756Y876539D01*
X814846Y875786D01*
X814844Y875779D01*
X814839Y875779D01*
X814093Y874863D01*
X814093Y874855D01*
X814088Y874855D01*
X813536Y873811D01*
X813537Y873803D01*
X813532Y873802D01*
X813194Y872670D01*
X813196Y872663D01*
X813192Y872661D01*
X813081Y871485D01*
X813083Y871482D01*
X813081Y871480D01*
X813081Y865480D01*
X813083Y865477D01*
X813081Y865475D01*
X813201Y864310D01*
X813206Y864305D01*
X813203Y864300D01*
X813547Y863181D01*
X813553Y863177D01*
X813551Y863172D01*
X814108Y862141D01*
X814114Y862138D01*
X814113Y862133D01*
X814860Y861231D01*
X814867Y861229D01*
X814867Y861224D01*
X815775Y860485D01*
X815782Y860485D01*
X815783Y860480D01*
X816819Y859932D01*
X816826Y859933D01*
X816827Y859928D01*
X817950Y859593D01*
X817957Y859595D01*
X817959Y859591D01*
X819125Y859481D01*
X819132Y859485D01*
G37*
G36*
X905532Y859485D02*
X905532Y859485D01*
X905535Y859481D01*
X906866Y859625D01*
X906869Y859629D01*
X906870Y859629D01*
X906873Y859630D01*
X906876Y859628D01*
X908141Y860064D01*
X908146Y860071D01*
X908151Y860069D01*
X909287Y860776D01*
X909290Y860784D01*
X909296Y860783D01*
X910246Y861725D01*
X910247Y861733D01*
X910252Y861734D01*
X910969Y862864D01*
X910968Y862872D01*
X910974Y862874D01*
X911421Y864135D01*
X911419Y864142D01*
X911424Y864145D01*
X911579Y865474D01*
X911577Y865478D01*
X911579Y865480D01*
X911579Y871480D01*
X911577Y871483D01*
X911579Y871485D01*
X911433Y872827D01*
X911428Y872833D01*
X911431Y872837D01*
X910991Y874113D01*
X910984Y874117D01*
X910986Y874123D01*
X910273Y875268D01*
X910265Y875271D01*
X910266Y875277D01*
X909316Y876235D01*
X909308Y876236D01*
X909307Y876242D01*
X908168Y876964D01*
X908160Y876963D01*
X908158Y876969D01*
X906887Y877420D01*
X906879Y877417D01*
X906876Y877422D01*
X905536Y877579D01*
X905529Y877575D01*
X905525Y877579D01*
X904350Y877458D01*
X904345Y877453D01*
X904341Y877456D01*
X903212Y877109D01*
X903208Y877103D01*
X903203Y877105D01*
X902164Y876544D01*
X902161Y876537D01*
X902156Y876539D01*
X901246Y875786D01*
X901244Y875779D01*
X901239Y875779D01*
X900493Y874863D01*
X900493Y874855D01*
X900488Y874855D01*
X899936Y873811D01*
X899937Y873803D01*
X899932Y873802D01*
X899594Y872670D01*
X899596Y872663D01*
X899592Y872661D01*
X899481Y871485D01*
X899483Y871482D01*
X899481Y871480D01*
X899481Y865480D01*
X899483Y865477D01*
X899481Y865475D01*
X899601Y864310D01*
X899606Y864305D01*
X899603Y864300D01*
X899947Y863181D01*
X899953Y863177D01*
X899951Y863172D01*
X900508Y862141D01*
X900514Y862138D01*
X900513Y862133D01*
X901260Y861231D01*
X901267Y861229D01*
X901267Y861224D01*
X902175Y860485D01*
X902182Y860485D01*
X902183Y860480D01*
X903219Y859932D01*
X903226Y859933D01*
X903227Y859928D01*
X904350Y859593D01*
X904357Y859595D01*
X904359Y859591D01*
X905525Y859481D01*
X905532Y859485D01*
G37*
G36*
X328952Y859485D02*
X328952Y859485D01*
X328955Y859481D01*
X330286Y859625D01*
X330289Y859629D01*
X330290Y859629D01*
X330293Y859630D01*
X330296Y859628D01*
X331561Y860064D01*
X331566Y860071D01*
X331571Y860069D01*
X332707Y860776D01*
X332710Y860784D01*
X332716Y860783D01*
X333666Y861725D01*
X333667Y861733D01*
X333672Y861734D01*
X334389Y862864D01*
X334388Y862872D01*
X334394Y862874D01*
X334841Y864135D01*
X334839Y864142D01*
X334844Y864145D01*
X334999Y865474D01*
X334997Y865478D01*
X334999Y865480D01*
X334999Y871480D01*
X334997Y871483D01*
X334999Y871485D01*
X334853Y872827D01*
X334848Y872833D01*
X334851Y872837D01*
X334411Y874113D01*
X334404Y874117D01*
X334406Y874123D01*
X333693Y875268D01*
X333685Y875271D01*
X333686Y875277D01*
X332736Y876235D01*
X332728Y876236D01*
X332727Y876242D01*
X331588Y876964D01*
X331580Y876963D01*
X331578Y876969D01*
X330307Y877420D01*
X330299Y877417D01*
X330296Y877422D01*
X328956Y877579D01*
X328949Y877575D01*
X328945Y877579D01*
X327770Y877458D01*
X327765Y877453D01*
X327761Y877456D01*
X326632Y877109D01*
X326628Y877103D01*
X326623Y877105D01*
X325584Y876544D01*
X325581Y876537D01*
X325576Y876539D01*
X324666Y875786D01*
X324664Y875779D01*
X324659Y875779D01*
X323913Y874863D01*
X323913Y874855D01*
X323908Y874855D01*
X323356Y873811D01*
X323357Y873803D01*
X323352Y873802D01*
X323014Y872670D01*
X323016Y872663D01*
X323012Y872661D01*
X322901Y871485D01*
X322903Y871482D01*
X322901Y871480D01*
X322901Y865480D01*
X322903Y865477D01*
X322901Y865475D01*
X323021Y864310D01*
X323026Y864305D01*
X323023Y864300D01*
X323367Y863181D01*
X323373Y863177D01*
X323371Y863172D01*
X323928Y862141D01*
X323934Y862138D01*
X323933Y862133D01*
X324680Y861231D01*
X324687Y861229D01*
X324687Y861224D01*
X325595Y860485D01*
X325602Y860485D01*
X325603Y860480D01*
X326639Y859932D01*
X326646Y859933D01*
X326647Y859928D01*
X327770Y859593D01*
X327777Y859595D01*
X327779Y859591D01*
X328945Y859481D01*
X328952Y859485D01*
G37*
G36*
X242552Y859485D02*
X242552Y859485D01*
X242555Y859481D01*
X243886Y859625D01*
X243889Y859629D01*
X243890Y859629D01*
X243893Y859630D01*
X243896Y859628D01*
X245161Y860064D01*
X245166Y860071D01*
X245171Y860069D01*
X246307Y860776D01*
X246310Y860784D01*
X246316Y860783D01*
X247266Y861725D01*
X247267Y861733D01*
X247272Y861734D01*
X247989Y862864D01*
X247988Y862872D01*
X247994Y862874D01*
X248441Y864135D01*
X248439Y864142D01*
X248444Y864145D01*
X248599Y865474D01*
X248597Y865478D01*
X248599Y865480D01*
X248599Y871480D01*
X248597Y871483D01*
X248599Y871485D01*
X248453Y872827D01*
X248448Y872833D01*
X248451Y872837D01*
X248011Y874113D01*
X248004Y874117D01*
X248006Y874123D01*
X247293Y875268D01*
X247285Y875271D01*
X247286Y875277D01*
X246336Y876235D01*
X246328Y876236D01*
X246327Y876242D01*
X245188Y876964D01*
X245180Y876963D01*
X245178Y876969D01*
X243907Y877420D01*
X243899Y877417D01*
X243896Y877422D01*
X242556Y877579D01*
X242549Y877575D01*
X242545Y877579D01*
X241370Y877458D01*
X241365Y877453D01*
X241361Y877456D01*
X240232Y877109D01*
X240228Y877103D01*
X240223Y877105D01*
X239184Y876544D01*
X239181Y876537D01*
X239176Y876539D01*
X238266Y875786D01*
X238264Y875779D01*
X238259Y875779D01*
X237513Y874863D01*
X237513Y874855D01*
X237508Y874855D01*
X236956Y873811D01*
X236957Y873803D01*
X236952Y873802D01*
X236614Y872670D01*
X236616Y872663D01*
X236612Y872661D01*
X236501Y871485D01*
X236503Y871482D01*
X236501Y871480D01*
X236501Y865480D01*
X236503Y865477D01*
X236501Y865475D01*
X236621Y864310D01*
X236626Y864305D01*
X236623Y864300D01*
X236967Y863181D01*
X236973Y863177D01*
X236971Y863172D01*
X237528Y862141D01*
X237534Y862138D01*
X237533Y862133D01*
X238280Y861231D01*
X238287Y861229D01*
X238287Y861224D01*
X239195Y860485D01*
X239202Y860485D01*
X239203Y860480D01*
X240239Y859932D01*
X240246Y859933D01*
X240247Y859928D01*
X241370Y859593D01*
X241377Y859595D01*
X241379Y859591D01*
X242545Y859481D01*
X242552Y859485D01*
G37*
G36*
X328952Y3505D02*
X328952Y3505D01*
X328955Y3501D01*
X330286Y3645D01*
X330289Y3649D01*
X330290Y3649D01*
X330293Y3650D01*
X330296Y3648D01*
X331561Y4084D01*
X331566Y4091D01*
X331571Y4089D01*
X332707Y4796D01*
X332710Y4804D01*
X332716Y4803D01*
X333666Y5745D01*
X333667Y5753D01*
X333672Y5754D01*
X334389Y6884D01*
X334388Y6892D01*
X334394Y6894D01*
X334841Y8155D01*
X334839Y8162D01*
X334844Y8165D01*
X334999Y9494D01*
X334997Y9498D01*
X334999Y9500D01*
X334999Y15500D01*
X334997Y15503D01*
X334999Y15505D01*
X334853Y16847D01*
X334848Y16853D01*
X334851Y16857D01*
X334411Y18133D01*
X334404Y18137D01*
X334406Y18143D01*
X333693Y19288D01*
X333685Y19291D01*
X333686Y19297D01*
X332736Y20255D01*
X332728Y20256D01*
X332727Y20262D01*
X331588Y20984D01*
X331580Y20983D01*
X331578Y20989D01*
X330307Y21440D01*
X330299Y21437D01*
X330296Y21442D01*
X328956Y21599D01*
X328949Y21595D01*
X328945Y21599D01*
X327770Y21478D01*
X327765Y21473D01*
X327761Y21476D01*
X326632Y21129D01*
X326628Y21123D01*
X326623Y21125D01*
X325584Y20564D01*
X325581Y20557D01*
X325576Y20559D01*
X324666Y19806D01*
X324664Y19799D01*
X324659Y19799D01*
X323913Y18883D01*
X323913Y18875D01*
X323908Y18875D01*
X323356Y17831D01*
X323357Y17823D01*
X323352Y17822D01*
X323014Y16690D01*
X323016Y16683D01*
X323012Y16681D01*
X322901Y15505D01*
X322903Y15502D01*
X322901Y15500D01*
X322901Y9500D01*
X322903Y9497D01*
X322901Y9495D01*
X323021Y8330D01*
X323026Y8325D01*
X323023Y8320D01*
X323367Y7201D01*
X323373Y7197D01*
X323371Y7192D01*
X323928Y6161D01*
X323934Y6158D01*
X323933Y6153D01*
X324680Y5251D01*
X324687Y5249D01*
X324687Y5244D01*
X325595Y4505D01*
X325602Y4505D01*
X325603Y4500D01*
X326639Y3952D01*
X326646Y3953D01*
X326647Y3948D01*
X327770Y3613D01*
X327777Y3615D01*
X327779Y3611D01*
X328945Y3501D01*
X328952Y3505D01*
G37*
G36*
X905532Y3505D02*
X905532Y3505D01*
X905535Y3501D01*
X906866Y3645D01*
X906869Y3649D01*
X906870Y3649D01*
X906873Y3650D01*
X906876Y3648D01*
X908141Y4084D01*
X908146Y4091D01*
X908151Y4089D01*
X909287Y4796D01*
X909290Y4804D01*
X909296Y4803D01*
X910246Y5745D01*
X910247Y5753D01*
X910252Y5754D01*
X910969Y6884D01*
X910968Y6892D01*
X910974Y6894D01*
X911421Y8155D01*
X911419Y8162D01*
X911424Y8165D01*
X911579Y9494D01*
X911577Y9498D01*
X911579Y9500D01*
X911579Y15500D01*
X911577Y15503D01*
X911579Y15505D01*
X911433Y16847D01*
X911428Y16853D01*
X911431Y16857D01*
X910991Y18133D01*
X910984Y18137D01*
X910986Y18143D01*
X910273Y19288D01*
X910265Y19291D01*
X910266Y19297D01*
X909316Y20255D01*
X909308Y20256D01*
X909307Y20262D01*
X908168Y20984D01*
X908160Y20983D01*
X908158Y20989D01*
X906887Y21440D01*
X906879Y21437D01*
X906876Y21442D01*
X905536Y21599D01*
X905529Y21595D01*
X905525Y21599D01*
X904350Y21478D01*
X904345Y21473D01*
X904341Y21476D01*
X903212Y21129D01*
X903208Y21123D01*
X903203Y21125D01*
X902164Y20564D01*
X902161Y20557D01*
X902156Y20559D01*
X901246Y19806D01*
X901244Y19799D01*
X901239Y19799D01*
X900493Y18883D01*
X900493Y18875D01*
X900488Y18875D01*
X899936Y17831D01*
X899937Y17823D01*
X899932Y17822D01*
X899594Y16690D01*
X899596Y16683D01*
X899592Y16681D01*
X899481Y15505D01*
X899483Y15502D01*
X899481Y15500D01*
X899481Y9500D01*
X899483Y9497D01*
X899481Y9495D01*
X899601Y8330D01*
X899606Y8325D01*
X899603Y8320D01*
X899947Y7201D01*
X899953Y7197D01*
X899951Y7192D01*
X900508Y6161D01*
X900514Y6158D01*
X900513Y6153D01*
X901260Y5251D01*
X901267Y5249D01*
X901267Y5244D01*
X902175Y4505D01*
X902182Y4505D01*
X902183Y4500D01*
X903219Y3952D01*
X903226Y3953D01*
X903227Y3948D01*
X904350Y3613D01*
X904357Y3615D01*
X904359Y3611D01*
X905525Y3501D01*
X905532Y3505D01*
G37*
G36*
X819132Y3505D02*
X819132Y3505D01*
X819135Y3501D01*
X820466Y3645D01*
X820469Y3649D01*
X820470Y3649D01*
X820473Y3650D01*
X820476Y3648D01*
X821741Y4084D01*
X821746Y4091D01*
X821751Y4089D01*
X822887Y4796D01*
X822890Y4804D01*
X822896Y4803D01*
X823846Y5745D01*
X823847Y5753D01*
X823852Y5754D01*
X824569Y6884D01*
X824568Y6892D01*
X824574Y6894D01*
X825021Y8155D01*
X825019Y8162D01*
X825024Y8165D01*
X825179Y9494D01*
X825177Y9498D01*
X825179Y9500D01*
X825179Y15500D01*
X825177Y15503D01*
X825179Y15505D01*
X825033Y16847D01*
X825028Y16853D01*
X825031Y16857D01*
X824591Y18133D01*
X824584Y18137D01*
X824586Y18143D01*
X823873Y19288D01*
X823865Y19291D01*
X823866Y19297D01*
X822916Y20255D01*
X822908Y20256D01*
X822907Y20262D01*
X821768Y20984D01*
X821760Y20983D01*
X821758Y20989D01*
X820487Y21440D01*
X820479Y21437D01*
X820476Y21442D01*
X819136Y21599D01*
X819129Y21595D01*
X819125Y21599D01*
X817950Y21478D01*
X817945Y21473D01*
X817941Y21476D01*
X816812Y21129D01*
X816808Y21123D01*
X816803Y21125D01*
X815764Y20564D01*
X815761Y20557D01*
X815756Y20559D01*
X814846Y19806D01*
X814844Y19799D01*
X814839Y19799D01*
X814093Y18883D01*
X814093Y18875D01*
X814088Y18875D01*
X813536Y17831D01*
X813537Y17823D01*
X813532Y17822D01*
X813194Y16690D01*
X813196Y16683D01*
X813192Y16681D01*
X813081Y15505D01*
X813083Y15502D01*
X813081Y15500D01*
X813081Y9500D01*
X813083Y9497D01*
X813081Y9495D01*
X813201Y8330D01*
X813206Y8325D01*
X813203Y8320D01*
X813547Y7201D01*
X813553Y7197D01*
X813551Y7192D01*
X814108Y6161D01*
X814114Y6158D01*
X814113Y6153D01*
X814860Y5251D01*
X814867Y5249D01*
X814867Y5244D01*
X815775Y4505D01*
X815782Y4505D01*
X815783Y4500D01*
X816819Y3952D01*
X816826Y3953D01*
X816827Y3948D01*
X817950Y3613D01*
X817957Y3615D01*
X817959Y3611D01*
X819125Y3501D01*
X819132Y3505D01*
G37*
G36*
X242552Y3505D02*
X242552Y3505D01*
X242555Y3501D01*
X243886Y3645D01*
X243889Y3649D01*
X243890Y3649D01*
X243893Y3650D01*
X243896Y3648D01*
X245161Y4084D01*
X245166Y4091D01*
X245171Y4089D01*
X246307Y4796D01*
X246310Y4804D01*
X246316Y4803D01*
X247266Y5745D01*
X247267Y5753D01*
X247272Y5754D01*
X247989Y6884D01*
X247988Y6892D01*
X247994Y6894D01*
X248441Y8155D01*
X248439Y8162D01*
X248444Y8165D01*
X248599Y9494D01*
X248597Y9498D01*
X248599Y9500D01*
X248599Y15500D01*
X248597Y15503D01*
X248599Y15505D01*
X248453Y16847D01*
X248448Y16853D01*
X248451Y16857D01*
X248011Y18133D01*
X248004Y18137D01*
X248006Y18143D01*
X247293Y19288D01*
X247285Y19291D01*
X247286Y19297D01*
X246336Y20255D01*
X246328Y20256D01*
X246327Y20262D01*
X245188Y20984D01*
X245180Y20983D01*
X245178Y20989D01*
X243907Y21440D01*
X243899Y21437D01*
X243896Y21442D01*
X242556Y21599D01*
X242549Y21595D01*
X242545Y21599D01*
X241370Y21478D01*
X241365Y21473D01*
X241361Y21476D01*
X240232Y21129D01*
X240228Y21123D01*
X240223Y21125D01*
X239184Y20564D01*
X239181Y20557D01*
X239176Y20559D01*
X238266Y19806D01*
X238264Y19799D01*
X238259Y19799D01*
X237513Y18883D01*
X237513Y18875D01*
X237508Y18875D01*
X236956Y17831D01*
X236957Y17823D01*
X236952Y17822D01*
X236614Y16690D01*
X236616Y16683D01*
X236612Y16681D01*
X236501Y15505D01*
X236503Y15502D01*
X236501Y15500D01*
X236501Y9500D01*
X236503Y9497D01*
X236501Y9495D01*
X236621Y8330D01*
X236626Y8325D01*
X236623Y8320D01*
X236967Y7201D01*
X236973Y7197D01*
X236971Y7192D01*
X237528Y6161D01*
X237534Y6158D01*
X237533Y6153D01*
X238280Y5251D01*
X238287Y5249D01*
X238287Y5244D01*
X239195Y4505D01*
X239202Y4505D01*
X239203Y4500D01*
X240239Y3952D01*
X240246Y3953D01*
X240247Y3948D01*
X241370Y3613D01*
X241377Y3615D01*
X241379Y3611D01*
X242545Y3501D01*
X242552Y3505D01*
G37*
G36*
X352109Y982992D02*
X352109Y982992D01*
X352175Y982994D01*
X352218Y983012D01*
X352265Y983020D01*
X352322Y983054D01*
X352382Y983079D01*
X352417Y983110D01*
X352458Y983135D01*
X352500Y983186D01*
X352548Y983230D01*
X352570Y983272D01*
X352599Y983309D01*
X352620Y983371D01*
X352651Y983430D01*
X352659Y983484D01*
X352671Y983521D01*
X352670Y983561D01*
X352678Y983615D01*
X352678Y987425D01*
X352667Y987490D01*
X352665Y987556D01*
X352647Y987599D01*
X352639Y987646D01*
X352605Y987703D01*
X352580Y987763D01*
X352549Y987798D01*
X352524Y987839D01*
X352473Y987881D01*
X352429Y987929D01*
X352387Y987951D01*
X352350Y987980D01*
X352288Y988001D01*
X352229Y988032D01*
X352175Y988040D01*
X352138Y988052D01*
X352098Y988051D01*
X352044Y988059D01*
X346456Y988059D01*
X346391Y988048D01*
X346325Y988046D01*
X346282Y988028D01*
X346235Y988020D01*
X346178Y987986D01*
X346118Y987961D01*
X346083Y987930D01*
X346042Y987905D01*
X346001Y987854D01*
X345952Y987810D01*
X345930Y987768D01*
X345901Y987731D01*
X345880Y987669D01*
X345849Y987610D01*
X345841Y987556D01*
X345829Y987519D01*
X345829Y987515D01*
X345829Y987514D01*
X345830Y987479D01*
X345822Y987425D01*
X345822Y983615D01*
X345833Y983550D01*
X345835Y983484D01*
X345853Y983441D01*
X345861Y983394D01*
X345895Y983337D01*
X345920Y983277D01*
X345951Y983242D01*
X345976Y983201D01*
X346027Y983160D01*
X346071Y983111D01*
X346113Y983089D01*
X346150Y983060D01*
X346212Y983039D01*
X346271Y983008D01*
X346325Y983000D01*
X346362Y982988D01*
X346402Y982989D01*
X346456Y982981D01*
X352044Y982981D01*
X352109Y982992D01*
G37*
G36*
X928689Y982992D02*
X928689Y982992D01*
X928755Y982994D01*
X928798Y983012D01*
X928845Y983020D01*
X928902Y983054D01*
X928962Y983079D01*
X928997Y983110D01*
X929038Y983135D01*
X929080Y983186D01*
X929128Y983230D01*
X929150Y983272D01*
X929179Y983309D01*
X929200Y983371D01*
X929231Y983430D01*
X929239Y983484D01*
X929251Y983521D01*
X929250Y983561D01*
X929258Y983615D01*
X929258Y987425D01*
X929247Y987490D01*
X929245Y987556D01*
X929227Y987599D01*
X929219Y987646D01*
X929185Y987703D01*
X929160Y987763D01*
X929129Y987798D01*
X929104Y987839D01*
X929053Y987881D01*
X929009Y987929D01*
X928967Y987951D01*
X928930Y987980D01*
X928868Y988001D01*
X928809Y988032D01*
X928755Y988040D01*
X928718Y988052D01*
X928678Y988051D01*
X928624Y988059D01*
X923036Y988059D01*
X922971Y988048D01*
X922905Y988046D01*
X922862Y988028D01*
X922815Y988020D01*
X922758Y987986D01*
X922698Y987961D01*
X922663Y987930D01*
X922622Y987905D01*
X922581Y987854D01*
X922532Y987810D01*
X922510Y987768D01*
X922481Y987731D01*
X922460Y987669D01*
X922429Y987610D01*
X922421Y987556D01*
X922409Y987519D01*
X922409Y987515D01*
X922409Y987514D01*
X922410Y987479D01*
X922402Y987425D01*
X922402Y983615D01*
X922413Y983550D01*
X922415Y983484D01*
X922433Y983441D01*
X922441Y983394D01*
X922475Y983337D01*
X922500Y983277D01*
X922531Y983242D01*
X922556Y983201D01*
X922607Y983160D01*
X922651Y983111D01*
X922693Y983089D01*
X922730Y983060D01*
X922792Y983039D01*
X922851Y983008D01*
X922905Y983000D01*
X922942Y982988D01*
X922982Y982989D01*
X923036Y982981D01*
X928624Y982981D01*
X928689Y982992D01*
G37*
G36*
X928689Y127012D02*
X928689Y127012D01*
X928755Y127014D01*
X928798Y127032D01*
X928845Y127040D01*
X928902Y127074D01*
X928962Y127099D01*
X928997Y127130D01*
X929038Y127155D01*
X929080Y127206D01*
X929128Y127250D01*
X929150Y127292D01*
X929179Y127329D01*
X929200Y127391D01*
X929231Y127450D01*
X929239Y127504D01*
X929251Y127541D01*
X929250Y127581D01*
X929258Y127635D01*
X929258Y131445D01*
X929247Y131510D01*
X929245Y131576D01*
X929227Y131619D01*
X929219Y131666D01*
X929185Y131723D01*
X929160Y131783D01*
X929129Y131818D01*
X929104Y131859D01*
X929053Y131901D01*
X929009Y131949D01*
X928967Y131971D01*
X928930Y132000D01*
X928868Y132021D01*
X928809Y132052D01*
X928755Y132060D01*
X928718Y132072D01*
X928678Y132071D01*
X928624Y132079D01*
X923036Y132079D01*
X922971Y132068D01*
X922905Y132066D01*
X922862Y132048D01*
X922815Y132040D01*
X922758Y132006D01*
X922698Y131981D01*
X922663Y131950D01*
X922622Y131925D01*
X922581Y131874D01*
X922532Y131830D01*
X922510Y131788D01*
X922481Y131751D01*
X922460Y131689D01*
X922429Y131630D01*
X922421Y131576D01*
X922409Y131539D01*
X922409Y131535D01*
X922409Y131534D01*
X922410Y131499D01*
X922402Y131445D01*
X922402Y127635D01*
X922413Y127570D01*
X922415Y127504D01*
X922433Y127461D01*
X922441Y127414D01*
X922475Y127357D01*
X922500Y127297D01*
X922531Y127262D01*
X922556Y127221D01*
X922607Y127180D01*
X922651Y127131D01*
X922693Y127109D01*
X922730Y127080D01*
X922792Y127059D01*
X922851Y127028D01*
X922905Y127020D01*
X922942Y127008D01*
X922982Y127009D01*
X923036Y127001D01*
X928624Y127001D01*
X928689Y127012D01*
G37*
G36*
X352109Y127012D02*
X352109Y127012D01*
X352175Y127014D01*
X352218Y127032D01*
X352265Y127040D01*
X352322Y127074D01*
X352382Y127099D01*
X352417Y127130D01*
X352458Y127155D01*
X352500Y127206D01*
X352548Y127250D01*
X352570Y127292D01*
X352599Y127329D01*
X352620Y127391D01*
X352651Y127450D01*
X352659Y127504D01*
X352671Y127541D01*
X352670Y127581D01*
X352678Y127635D01*
X352678Y131445D01*
X352667Y131510D01*
X352665Y131576D01*
X352647Y131619D01*
X352639Y131666D01*
X352605Y131723D01*
X352580Y131783D01*
X352549Y131818D01*
X352524Y131859D01*
X352473Y131901D01*
X352429Y131949D01*
X352387Y131971D01*
X352350Y132000D01*
X352288Y132021D01*
X352229Y132052D01*
X352175Y132060D01*
X352138Y132072D01*
X352098Y132071D01*
X352044Y132079D01*
X346456Y132079D01*
X346391Y132068D01*
X346325Y132066D01*
X346282Y132048D01*
X346235Y132040D01*
X346178Y132006D01*
X346118Y131981D01*
X346083Y131950D01*
X346042Y131925D01*
X346001Y131874D01*
X345952Y131830D01*
X345930Y131788D01*
X345901Y131751D01*
X345880Y131689D01*
X345849Y131630D01*
X345841Y131576D01*
X345829Y131539D01*
X345829Y131535D01*
X345829Y131534D01*
X345830Y131499D01*
X345822Y131445D01*
X345822Y127635D01*
X345833Y127570D01*
X345835Y127504D01*
X345853Y127461D01*
X345861Y127414D01*
X345895Y127357D01*
X345920Y127297D01*
X345951Y127262D01*
X345976Y127221D01*
X346027Y127180D01*
X346071Y127131D01*
X346113Y127109D01*
X346150Y127080D01*
X346212Y127059D01*
X346271Y127028D01*
X346325Y127020D01*
X346362Y127008D01*
X346402Y127009D01*
X346456Y127001D01*
X352044Y127001D01*
X352109Y127012D01*
G37*
G36*
X468695Y1012202D02*
X468695Y1012202D01*
X468761Y1012204D01*
X468804Y1012222D01*
X468851Y1012230D01*
X468908Y1012264D01*
X468968Y1012289D01*
X469003Y1012320D01*
X469044Y1012345D01*
X469086Y1012396D01*
X469134Y1012440D01*
X469156Y1012482D01*
X469185Y1012519D01*
X469206Y1012581D01*
X469237Y1012640D01*
X469245Y1012694D01*
X469257Y1012731D01*
X469256Y1012771D01*
X469264Y1012825D01*
X469264Y1016635D01*
X469253Y1016700D01*
X469251Y1016766D01*
X469233Y1016809D01*
X469225Y1016856D01*
X469191Y1016913D01*
X469166Y1016973D01*
X469135Y1017008D01*
X469110Y1017049D01*
X469059Y1017091D01*
X469015Y1017139D01*
X468973Y1017161D01*
X468936Y1017190D01*
X468874Y1017211D01*
X468815Y1017242D01*
X468761Y1017250D01*
X468724Y1017262D01*
X468684Y1017261D01*
X468630Y1017269D01*
X466090Y1017269D01*
X466025Y1017258D01*
X465959Y1017256D01*
X465916Y1017238D01*
X465869Y1017230D01*
X465812Y1017196D01*
X465752Y1017171D01*
X465717Y1017140D01*
X465676Y1017115D01*
X465635Y1017064D01*
X465586Y1017020D01*
X465564Y1016978D01*
X465535Y1016941D01*
X465514Y1016879D01*
X465483Y1016820D01*
X465475Y1016766D01*
X465463Y1016729D01*
X465463Y1016725D01*
X465463Y1016724D01*
X465464Y1016689D01*
X465456Y1016635D01*
X465456Y1012825D01*
X465467Y1012760D01*
X465469Y1012694D01*
X465487Y1012651D01*
X465495Y1012604D01*
X465529Y1012547D01*
X465554Y1012487D01*
X465585Y1012452D01*
X465610Y1012411D01*
X465661Y1012370D01*
X465705Y1012321D01*
X465747Y1012299D01*
X465784Y1012270D01*
X465846Y1012249D01*
X465905Y1012218D01*
X465959Y1012210D01*
X465996Y1012198D01*
X466036Y1012199D01*
X466090Y1012191D01*
X468630Y1012191D01*
X468695Y1012202D01*
G37*
G36*
X1045275Y1012202D02*
X1045275Y1012202D01*
X1045341Y1012204D01*
X1045384Y1012222D01*
X1045431Y1012230D01*
X1045488Y1012264D01*
X1045548Y1012289D01*
X1045583Y1012320D01*
X1045624Y1012345D01*
X1045666Y1012396D01*
X1045714Y1012440D01*
X1045736Y1012482D01*
X1045765Y1012519D01*
X1045786Y1012581D01*
X1045817Y1012640D01*
X1045825Y1012694D01*
X1045837Y1012731D01*
X1045836Y1012771D01*
X1045844Y1012825D01*
X1045844Y1016635D01*
X1045833Y1016700D01*
X1045831Y1016766D01*
X1045813Y1016809D01*
X1045805Y1016856D01*
X1045771Y1016913D01*
X1045746Y1016973D01*
X1045715Y1017008D01*
X1045690Y1017049D01*
X1045639Y1017091D01*
X1045595Y1017139D01*
X1045553Y1017161D01*
X1045516Y1017190D01*
X1045454Y1017211D01*
X1045395Y1017242D01*
X1045341Y1017250D01*
X1045304Y1017262D01*
X1045264Y1017261D01*
X1045210Y1017269D01*
X1042670Y1017269D01*
X1042605Y1017258D01*
X1042539Y1017256D01*
X1042496Y1017238D01*
X1042449Y1017230D01*
X1042392Y1017196D01*
X1042332Y1017171D01*
X1042297Y1017140D01*
X1042256Y1017115D01*
X1042215Y1017064D01*
X1042166Y1017020D01*
X1042144Y1016978D01*
X1042115Y1016941D01*
X1042094Y1016879D01*
X1042063Y1016820D01*
X1042055Y1016766D01*
X1042043Y1016729D01*
X1042043Y1016725D01*
X1042043Y1016724D01*
X1042044Y1016689D01*
X1042036Y1016635D01*
X1042036Y1012825D01*
X1042047Y1012760D01*
X1042049Y1012694D01*
X1042067Y1012651D01*
X1042075Y1012604D01*
X1042109Y1012547D01*
X1042134Y1012487D01*
X1042165Y1012452D01*
X1042190Y1012411D01*
X1042241Y1012370D01*
X1042285Y1012321D01*
X1042327Y1012299D01*
X1042364Y1012270D01*
X1042426Y1012249D01*
X1042485Y1012218D01*
X1042539Y1012210D01*
X1042576Y1012198D01*
X1042616Y1012199D01*
X1042670Y1012191D01*
X1045210Y1012191D01*
X1045275Y1012202D01*
G37*
G36*
X468695Y156222D02*
X468695Y156222D01*
X468761Y156224D01*
X468804Y156242D01*
X468851Y156250D01*
X468908Y156284D01*
X468968Y156309D01*
X469003Y156340D01*
X469044Y156365D01*
X469086Y156416D01*
X469134Y156460D01*
X469156Y156502D01*
X469185Y156539D01*
X469206Y156601D01*
X469237Y156660D01*
X469245Y156714D01*
X469257Y156751D01*
X469256Y156791D01*
X469264Y156845D01*
X469264Y160655D01*
X469253Y160720D01*
X469251Y160786D01*
X469233Y160829D01*
X469225Y160876D01*
X469191Y160933D01*
X469166Y160993D01*
X469135Y161028D01*
X469110Y161069D01*
X469059Y161111D01*
X469015Y161159D01*
X468973Y161181D01*
X468936Y161210D01*
X468874Y161231D01*
X468815Y161262D01*
X468761Y161270D01*
X468724Y161282D01*
X468684Y161281D01*
X468630Y161289D01*
X466090Y161289D01*
X466025Y161278D01*
X465959Y161276D01*
X465916Y161258D01*
X465869Y161250D01*
X465812Y161216D01*
X465752Y161191D01*
X465717Y161160D01*
X465676Y161135D01*
X465635Y161084D01*
X465586Y161040D01*
X465564Y160998D01*
X465535Y160961D01*
X465514Y160899D01*
X465483Y160840D01*
X465475Y160786D01*
X465463Y160749D01*
X465463Y160745D01*
X465463Y160744D01*
X465464Y160709D01*
X465456Y160655D01*
X465456Y156845D01*
X465467Y156780D01*
X465469Y156714D01*
X465487Y156671D01*
X465495Y156624D01*
X465529Y156567D01*
X465554Y156507D01*
X465585Y156472D01*
X465610Y156431D01*
X465661Y156390D01*
X465705Y156341D01*
X465747Y156319D01*
X465784Y156290D01*
X465846Y156269D01*
X465905Y156238D01*
X465959Y156230D01*
X465996Y156218D01*
X466036Y156219D01*
X466090Y156211D01*
X468630Y156211D01*
X468695Y156222D01*
G37*
G36*
X1045275Y156222D02*
X1045275Y156222D01*
X1045341Y156224D01*
X1045384Y156242D01*
X1045431Y156250D01*
X1045488Y156284D01*
X1045548Y156309D01*
X1045583Y156340D01*
X1045624Y156365D01*
X1045666Y156416D01*
X1045714Y156460D01*
X1045736Y156502D01*
X1045765Y156539D01*
X1045786Y156601D01*
X1045817Y156660D01*
X1045825Y156714D01*
X1045837Y156751D01*
X1045836Y156791D01*
X1045844Y156845D01*
X1045844Y160655D01*
X1045833Y160720D01*
X1045831Y160786D01*
X1045813Y160829D01*
X1045805Y160876D01*
X1045771Y160933D01*
X1045746Y160993D01*
X1045715Y161028D01*
X1045690Y161069D01*
X1045639Y161111D01*
X1045595Y161159D01*
X1045553Y161181D01*
X1045516Y161210D01*
X1045454Y161231D01*
X1045395Y161262D01*
X1045341Y161270D01*
X1045304Y161282D01*
X1045264Y161281D01*
X1045210Y161289D01*
X1042670Y161289D01*
X1042605Y161278D01*
X1042539Y161276D01*
X1042496Y161258D01*
X1042449Y161250D01*
X1042392Y161216D01*
X1042332Y161191D01*
X1042297Y161160D01*
X1042256Y161135D01*
X1042215Y161084D01*
X1042166Y161040D01*
X1042144Y160998D01*
X1042115Y160961D01*
X1042094Y160899D01*
X1042063Y160840D01*
X1042055Y160786D01*
X1042043Y160749D01*
X1042043Y160745D01*
X1042043Y160744D01*
X1042044Y160709D01*
X1042036Y160655D01*
X1042036Y156845D01*
X1042047Y156780D01*
X1042049Y156714D01*
X1042067Y156671D01*
X1042075Y156624D01*
X1042109Y156567D01*
X1042134Y156507D01*
X1042165Y156472D01*
X1042190Y156431D01*
X1042241Y156390D01*
X1042285Y156341D01*
X1042327Y156319D01*
X1042364Y156290D01*
X1042426Y156269D01*
X1042485Y156238D01*
X1042539Y156230D01*
X1042576Y156218D01*
X1042616Y156219D01*
X1042670Y156211D01*
X1045210Y156211D01*
X1045275Y156222D01*
G37*
G36*
X1049720Y1155077D02*
X1049720Y1155077D01*
X1049786Y1155079D01*
X1049829Y1155097D01*
X1049876Y1155105D01*
X1049933Y1155139D01*
X1049993Y1155164D01*
X1050028Y1155195D01*
X1050069Y1155220D01*
X1050111Y1155271D01*
X1050159Y1155315D01*
X1050181Y1155357D01*
X1050210Y1155394D01*
X1050231Y1155456D01*
X1050262Y1155515D01*
X1050270Y1155569D01*
X1050282Y1155606D01*
X1050281Y1155646D01*
X1050289Y1155700D01*
X1050289Y1158240D01*
X1050278Y1158305D01*
X1050276Y1158371D01*
X1050258Y1158414D01*
X1050250Y1158461D01*
X1050216Y1158518D01*
X1050191Y1158578D01*
X1050160Y1158613D01*
X1050135Y1158654D01*
X1050084Y1158696D01*
X1050040Y1158744D01*
X1049998Y1158766D01*
X1049961Y1158795D01*
X1049899Y1158816D01*
X1049840Y1158847D01*
X1049786Y1158855D01*
X1049749Y1158867D01*
X1049709Y1158866D01*
X1049655Y1158874D01*
X1045845Y1158874D01*
X1045780Y1158863D01*
X1045714Y1158861D01*
X1045671Y1158843D01*
X1045624Y1158835D01*
X1045567Y1158801D01*
X1045507Y1158776D01*
X1045472Y1158745D01*
X1045431Y1158720D01*
X1045390Y1158669D01*
X1045341Y1158625D01*
X1045319Y1158583D01*
X1045290Y1158546D01*
X1045269Y1158484D01*
X1045238Y1158425D01*
X1045230Y1158371D01*
X1045218Y1158334D01*
X1045218Y1158331D01*
X1045219Y1158294D01*
X1045211Y1158240D01*
X1045211Y1155700D01*
X1045222Y1155635D01*
X1045224Y1155569D01*
X1045242Y1155526D01*
X1045250Y1155479D01*
X1045284Y1155422D01*
X1045309Y1155362D01*
X1045340Y1155327D01*
X1045365Y1155286D01*
X1045416Y1155245D01*
X1045460Y1155196D01*
X1045502Y1155174D01*
X1045539Y1155145D01*
X1045601Y1155124D01*
X1045660Y1155093D01*
X1045714Y1155085D01*
X1045751Y1155073D01*
X1045791Y1155074D01*
X1045845Y1155066D01*
X1049655Y1155066D01*
X1049720Y1155077D01*
G37*
G36*
X1039560Y1155077D02*
X1039560Y1155077D01*
X1039626Y1155079D01*
X1039669Y1155097D01*
X1039716Y1155105D01*
X1039773Y1155139D01*
X1039833Y1155164D01*
X1039868Y1155195D01*
X1039909Y1155220D01*
X1039951Y1155271D01*
X1039999Y1155315D01*
X1040021Y1155357D01*
X1040050Y1155394D01*
X1040071Y1155456D01*
X1040102Y1155515D01*
X1040110Y1155569D01*
X1040122Y1155606D01*
X1040121Y1155646D01*
X1040129Y1155700D01*
X1040129Y1158240D01*
X1040118Y1158305D01*
X1040116Y1158371D01*
X1040098Y1158414D01*
X1040090Y1158461D01*
X1040056Y1158518D01*
X1040031Y1158578D01*
X1040000Y1158613D01*
X1039975Y1158654D01*
X1039924Y1158696D01*
X1039880Y1158744D01*
X1039838Y1158766D01*
X1039801Y1158795D01*
X1039739Y1158816D01*
X1039680Y1158847D01*
X1039626Y1158855D01*
X1039589Y1158867D01*
X1039549Y1158866D01*
X1039495Y1158874D01*
X1035685Y1158874D01*
X1035620Y1158863D01*
X1035554Y1158861D01*
X1035511Y1158843D01*
X1035464Y1158835D01*
X1035407Y1158801D01*
X1035347Y1158776D01*
X1035312Y1158745D01*
X1035271Y1158720D01*
X1035230Y1158669D01*
X1035181Y1158625D01*
X1035159Y1158583D01*
X1035130Y1158546D01*
X1035109Y1158484D01*
X1035078Y1158425D01*
X1035070Y1158371D01*
X1035058Y1158334D01*
X1035058Y1158331D01*
X1035059Y1158294D01*
X1035051Y1158240D01*
X1035051Y1155700D01*
X1035062Y1155635D01*
X1035064Y1155569D01*
X1035082Y1155526D01*
X1035090Y1155479D01*
X1035124Y1155422D01*
X1035149Y1155362D01*
X1035180Y1155327D01*
X1035205Y1155286D01*
X1035256Y1155245D01*
X1035300Y1155196D01*
X1035342Y1155174D01*
X1035379Y1155145D01*
X1035441Y1155124D01*
X1035500Y1155093D01*
X1035554Y1155085D01*
X1035591Y1155073D01*
X1035631Y1155074D01*
X1035685Y1155066D01*
X1039495Y1155066D01*
X1039560Y1155077D01*
G37*
G36*
X462980Y1155077D02*
X462980Y1155077D01*
X463046Y1155079D01*
X463089Y1155097D01*
X463136Y1155105D01*
X463193Y1155139D01*
X463253Y1155164D01*
X463288Y1155195D01*
X463329Y1155220D01*
X463371Y1155271D01*
X463419Y1155315D01*
X463441Y1155357D01*
X463470Y1155394D01*
X463491Y1155456D01*
X463522Y1155515D01*
X463530Y1155569D01*
X463542Y1155606D01*
X463541Y1155646D01*
X463549Y1155700D01*
X463549Y1158240D01*
X463538Y1158305D01*
X463536Y1158371D01*
X463518Y1158414D01*
X463510Y1158461D01*
X463476Y1158518D01*
X463451Y1158578D01*
X463420Y1158613D01*
X463395Y1158654D01*
X463344Y1158696D01*
X463300Y1158744D01*
X463258Y1158766D01*
X463221Y1158795D01*
X463159Y1158816D01*
X463100Y1158847D01*
X463046Y1158855D01*
X463009Y1158867D01*
X462969Y1158866D01*
X462915Y1158874D01*
X459105Y1158874D01*
X459040Y1158863D01*
X458974Y1158861D01*
X458931Y1158843D01*
X458884Y1158835D01*
X458827Y1158801D01*
X458767Y1158776D01*
X458732Y1158745D01*
X458691Y1158720D01*
X458650Y1158669D01*
X458601Y1158625D01*
X458579Y1158583D01*
X458550Y1158546D01*
X458529Y1158484D01*
X458498Y1158425D01*
X458490Y1158371D01*
X458478Y1158334D01*
X458478Y1158331D01*
X458479Y1158294D01*
X458471Y1158240D01*
X458471Y1155700D01*
X458482Y1155635D01*
X458484Y1155569D01*
X458502Y1155526D01*
X458510Y1155479D01*
X458544Y1155422D01*
X458569Y1155362D01*
X458600Y1155327D01*
X458625Y1155286D01*
X458676Y1155245D01*
X458720Y1155196D01*
X458762Y1155174D01*
X458799Y1155145D01*
X458861Y1155124D01*
X458920Y1155093D01*
X458974Y1155085D01*
X459011Y1155073D01*
X459051Y1155074D01*
X459105Y1155066D01*
X462915Y1155066D01*
X462980Y1155077D01*
G37*
G36*
X473140Y1155077D02*
X473140Y1155077D01*
X473206Y1155079D01*
X473249Y1155097D01*
X473296Y1155105D01*
X473353Y1155139D01*
X473413Y1155164D01*
X473448Y1155195D01*
X473489Y1155220D01*
X473531Y1155271D01*
X473579Y1155315D01*
X473601Y1155357D01*
X473630Y1155394D01*
X473651Y1155456D01*
X473682Y1155515D01*
X473690Y1155569D01*
X473702Y1155606D01*
X473701Y1155646D01*
X473709Y1155700D01*
X473709Y1158240D01*
X473698Y1158305D01*
X473696Y1158371D01*
X473678Y1158414D01*
X473670Y1158461D01*
X473636Y1158518D01*
X473611Y1158578D01*
X473580Y1158613D01*
X473555Y1158654D01*
X473504Y1158696D01*
X473460Y1158744D01*
X473418Y1158766D01*
X473381Y1158795D01*
X473319Y1158816D01*
X473260Y1158847D01*
X473206Y1158855D01*
X473169Y1158867D01*
X473129Y1158866D01*
X473075Y1158874D01*
X469265Y1158874D01*
X469200Y1158863D01*
X469134Y1158861D01*
X469091Y1158843D01*
X469044Y1158835D01*
X468987Y1158801D01*
X468927Y1158776D01*
X468892Y1158745D01*
X468851Y1158720D01*
X468810Y1158669D01*
X468761Y1158625D01*
X468739Y1158583D01*
X468710Y1158546D01*
X468689Y1158484D01*
X468658Y1158425D01*
X468650Y1158371D01*
X468638Y1158334D01*
X468638Y1158331D01*
X468639Y1158294D01*
X468631Y1158240D01*
X468631Y1155700D01*
X468642Y1155635D01*
X468644Y1155569D01*
X468662Y1155526D01*
X468670Y1155479D01*
X468704Y1155422D01*
X468729Y1155362D01*
X468760Y1155327D01*
X468785Y1155286D01*
X468836Y1155245D01*
X468880Y1155196D01*
X468922Y1155174D01*
X468959Y1155145D01*
X469021Y1155124D01*
X469080Y1155093D01*
X469134Y1155085D01*
X469171Y1155073D01*
X469211Y1155074D01*
X469265Y1155066D01*
X473075Y1155066D01*
X473140Y1155077D01*
G37*
G36*
X462980Y299097D02*
X462980Y299097D01*
X463046Y299099D01*
X463089Y299117D01*
X463136Y299125D01*
X463193Y299159D01*
X463253Y299184D01*
X463288Y299215D01*
X463329Y299240D01*
X463371Y299291D01*
X463419Y299335D01*
X463441Y299377D01*
X463470Y299414D01*
X463491Y299476D01*
X463522Y299535D01*
X463530Y299589D01*
X463542Y299626D01*
X463541Y299666D01*
X463549Y299720D01*
X463549Y302260D01*
X463538Y302325D01*
X463536Y302391D01*
X463518Y302434D01*
X463510Y302481D01*
X463476Y302538D01*
X463451Y302598D01*
X463420Y302633D01*
X463395Y302674D01*
X463344Y302716D01*
X463300Y302764D01*
X463258Y302786D01*
X463221Y302815D01*
X463159Y302836D01*
X463100Y302867D01*
X463046Y302875D01*
X463009Y302887D01*
X462969Y302886D01*
X462915Y302894D01*
X459105Y302894D01*
X459040Y302883D01*
X458974Y302881D01*
X458931Y302863D01*
X458884Y302855D01*
X458827Y302821D01*
X458767Y302796D01*
X458732Y302765D01*
X458691Y302740D01*
X458650Y302689D01*
X458601Y302645D01*
X458579Y302603D01*
X458550Y302566D01*
X458529Y302504D01*
X458498Y302445D01*
X458490Y302391D01*
X458478Y302354D01*
X458478Y302351D01*
X458479Y302314D01*
X458471Y302260D01*
X458471Y299720D01*
X458482Y299655D01*
X458484Y299589D01*
X458502Y299546D01*
X458510Y299499D01*
X458544Y299442D01*
X458569Y299382D01*
X458600Y299347D01*
X458625Y299306D01*
X458676Y299265D01*
X458720Y299216D01*
X458762Y299194D01*
X458799Y299165D01*
X458861Y299144D01*
X458920Y299113D01*
X458974Y299105D01*
X459011Y299093D01*
X459051Y299094D01*
X459105Y299086D01*
X462915Y299086D01*
X462980Y299097D01*
G37*
G36*
X1049720Y299097D02*
X1049720Y299097D01*
X1049786Y299099D01*
X1049829Y299117D01*
X1049876Y299125D01*
X1049933Y299159D01*
X1049993Y299184D01*
X1050028Y299215D01*
X1050069Y299240D01*
X1050111Y299291D01*
X1050159Y299335D01*
X1050181Y299377D01*
X1050210Y299414D01*
X1050231Y299476D01*
X1050262Y299535D01*
X1050270Y299589D01*
X1050282Y299626D01*
X1050281Y299666D01*
X1050289Y299720D01*
X1050289Y302260D01*
X1050278Y302325D01*
X1050276Y302391D01*
X1050258Y302434D01*
X1050250Y302481D01*
X1050216Y302538D01*
X1050191Y302598D01*
X1050160Y302633D01*
X1050135Y302674D01*
X1050084Y302716D01*
X1050040Y302764D01*
X1049998Y302786D01*
X1049961Y302815D01*
X1049899Y302836D01*
X1049840Y302867D01*
X1049786Y302875D01*
X1049749Y302887D01*
X1049709Y302886D01*
X1049655Y302894D01*
X1045845Y302894D01*
X1045780Y302883D01*
X1045714Y302881D01*
X1045671Y302863D01*
X1045624Y302855D01*
X1045567Y302821D01*
X1045507Y302796D01*
X1045472Y302765D01*
X1045431Y302740D01*
X1045390Y302689D01*
X1045341Y302645D01*
X1045319Y302603D01*
X1045290Y302566D01*
X1045269Y302504D01*
X1045238Y302445D01*
X1045230Y302391D01*
X1045218Y302354D01*
X1045218Y302351D01*
X1045219Y302314D01*
X1045211Y302260D01*
X1045211Y299720D01*
X1045222Y299655D01*
X1045224Y299589D01*
X1045242Y299546D01*
X1045250Y299499D01*
X1045284Y299442D01*
X1045309Y299382D01*
X1045340Y299347D01*
X1045365Y299306D01*
X1045416Y299265D01*
X1045460Y299216D01*
X1045502Y299194D01*
X1045539Y299165D01*
X1045601Y299144D01*
X1045660Y299113D01*
X1045714Y299105D01*
X1045751Y299093D01*
X1045791Y299094D01*
X1045845Y299086D01*
X1049655Y299086D01*
X1049720Y299097D01*
G37*
G36*
X1039560Y299097D02*
X1039560Y299097D01*
X1039626Y299099D01*
X1039669Y299117D01*
X1039716Y299125D01*
X1039773Y299159D01*
X1039833Y299184D01*
X1039868Y299215D01*
X1039909Y299240D01*
X1039951Y299291D01*
X1039999Y299335D01*
X1040021Y299377D01*
X1040050Y299414D01*
X1040071Y299476D01*
X1040102Y299535D01*
X1040110Y299589D01*
X1040122Y299626D01*
X1040121Y299666D01*
X1040129Y299720D01*
X1040129Y302260D01*
X1040118Y302325D01*
X1040116Y302391D01*
X1040098Y302434D01*
X1040090Y302481D01*
X1040056Y302538D01*
X1040031Y302598D01*
X1040000Y302633D01*
X1039975Y302674D01*
X1039924Y302716D01*
X1039880Y302764D01*
X1039838Y302786D01*
X1039801Y302815D01*
X1039739Y302836D01*
X1039680Y302867D01*
X1039626Y302875D01*
X1039589Y302887D01*
X1039549Y302886D01*
X1039495Y302894D01*
X1035685Y302894D01*
X1035620Y302883D01*
X1035554Y302881D01*
X1035511Y302863D01*
X1035464Y302855D01*
X1035407Y302821D01*
X1035347Y302796D01*
X1035312Y302765D01*
X1035271Y302740D01*
X1035230Y302689D01*
X1035181Y302645D01*
X1035159Y302603D01*
X1035130Y302566D01*
X1035109Y302504D01*
X1035078Y302445D01*
X1035070Y302391D01*
X1035058Y302354D01*
X1035058Y302351D01*
X1035059Y302314D01*
X1035051Y302260D01*
X1035051Y299720D01*
X1035062Y299655D01*
X1035064Y299589D01*
X1035082Y299546D01*
X1035090Y299499D01*
X1035124Y299442D01*
X1035149Y299382D01*
X1035180Y299347D01*
X1035205Y299306D01*
X1035256Y299265D01*
X1035300Y299216D01*
X1035342Y299194D01*
X1035379Y299165D01*
X1035441Y299144D01*
X1035500Y299113D01*
X1035554Y299105D01*
X1035591Y299093D01*
X1035631Y299094D01*
X1035685Y299086D01*
X1039495Y299086D01*
X1039560Y299097D01*
G37*
G36*
X473140Y299097D02*
X473140Y299097D01*
X473206Y299099D01*
X473249Y299117D01*
X473296Y299125D01*
X473353Y299159D01*
X473413Y299184D01*
X473448Y299215D01*
X473489Y299240D01*
X473531Y299291D01*
X473579Y299335D01*
X473601Y299377D01*
X473630Y299414D01*
X473651Y299476D01*
X473682Y299535D01*
X473690Y299589D01*
X473702Y299626D01*
X473701Y299666D01*
X473709Y299720D01*
X473709Y302260D01*
X473698Y302325D01*
X473696Y302391D01*
X473678Y302434D01*
X473670Y302481D01*
X473636Y302538D01*
X473611Y302598D01*
X473580Y302633D01*
X473555Y302674D01*
X473504Y302716D01*
X473460Y302764D01*
X473418Y302786D01*
X473381Y302815D01*
X473319Y302836D01*
X473260Y302867D01*
X473206Y302875D01*
X473169Y302887D01*
X473129Y302886D01*
X473075Y302894D01*
X469265Y302894D01*
X469200Y302883D01*
X469134Y302881D01*
X469091Y302863D01*
X469044Y302855D01*
X468987Y302821D01*
X468927Y302796D01*
X468892Y302765D01*
X468851Y302740D01*
X468810Y302689D01*
X468761Y302645D01*
X468739Y302603D01*
X468710Y302566D01*
X468689Y302504D01*
X468658Y302445D01*
X468650Y302391D01*
X468638Y302354D01*
X468638Y302351D01*
X468639Y302314D01*
X468631Y302260D01*
X468631Y299720D01*
X468642Y299655D01*
X468644Y299589D01*
X468662Y299546D01*
X468670Y299499D01*
X468704Y299442D01*
X468729Y299382D01*
X468760Y299347D01*
X468785Y299306D01*
X468836Y299265D01*
X468880Y299216D01*
X468922Y299194D01*
X468959Y299165D01*
X469021Y299144D01*
X469080Y299113D01*
X469134Y299105D01*
X469171Y299093D01*
X469211Y299094D01*
X469265Y299086D01*
X473075Y299086D01*
X473140Y299097D01*
G37*
D10*
X357886Y59690D03*
X366014Y59690D03*
D11*
X419100Y36440D03*
X419100Y19440D03*
X403860Y36440D03*
X403860Y19440D03*
D12*
X387350Y92740D03*
X387350Y64740D03*
D11*
X441960Y138040D03*
X441960Y121040D03*
X426720Y138040D03*
X426720Y121040D03*
X411480Y138040D03*
X411480Y121040D03*
D13*
X453390Y39440D03*
X453390Y16440D03*
D14*
X357110Y27940D03*
X387110Y27940D03*
D15*
X245800Y428650D03*
D16*
X185750Y228600D03*
D17*
X385750Y228600D03*
D18*
X193250Y175850D03*
D19*
X182250Y183600D03*
X389250Y183600D03*
D18*
X195750Y251350D03*
X198250Y175850D03*
X200750Y251350D03*
X203250Y175850D03*
X205750Y251350D03*
X208250Y175850D03*
X210750Y251350D03*
X213250Y175850D03*
X215750Y251350D03*
X218250Y175850D03*
X220750Y251350D03*
X223250Y175850D03*
X225750Y251350D03*
X228250Y175850D03*
X230750Y251350D03*
X233250Y175850D03*
X235750Y251350D03*
X238250Y175850D03*
X240750Y251350D03*
X243250Y175850D03*
X245750Y251350D03*
X248250Y175850D03*
X270750Y251350D03*
X273250Y175850D03*
X275750Y251350D03*
X278250Y175850D03*
X280750Y251350D03*
X283250Y175850D03*
X285750Y251350D03*
X288250Y175850D03*
X290750Y251350D03*
X293250Y175850D03*
X295750Y251350D03*
X298250Y175850D03*
X300750Y251350D03*
X303250Y175850D03*
X305750Y251350D03*
X308250Y175850D03*
X310750Y251350D03*
X313250Y175850D03*
X315750Y251350D03*
X318250Y175850D03*
X320750Y251350D03*
X323250Y175850D03*
X325750Y251350D03*
X328250Y175850D03*
X330750Y251350D03*
X333250Y175850D03*
X335750Y251350D03*
X338250Y175850D03*
X340750Y251350D03*
X343250Y175850D03*
X345750Y251350D03*
X348250Y175850D03*
X350750Y251350D03*
X353250Y175850D03*
X355750Y251350D03*
X358250Y175850D03*
X360750Y251350D03*
X363250Y175850D03*
X365750Y251350D03*
X368250Y175850D03*
X370750Y251350D03*
X373250Y175850D03*
X375750Y251350D03*
X378250Y175850D03*
D20*
X410400Y506700D03*
X410400Y563700D03*
D21*
X541900Y579700D03*
X551900Y448200D03*
D22*
X513400Y494800D03*
X509400Y505800D03*
X513400Y516800D03*
X515400Y527800D03*
X513400Y538800D03*
X515400Y549800D03*
X513400Y560800D03*
X513400Y571800D03*
D23*
X278250Y60100D03*
X283250Y60100D03*
D24*
X253500Y60100D03*
X261250Y60100D03*
D23*
X268250Y60100D03*
X273250Y60100D03*
X293250Y60100D03*
X288250Y60100D03*
D24*
X318000Y60100D03*
X310250Y60100D03*
D23*
X303250Y60100D03*
X298250Y60100D03*
D25*
X314650Y49050D03*
X256850Y49050D03*
D26*
X224790Y95250D03*
X224790Y120650D03*
X224790Y146050D03*
X199390Y95250D03*
X199390Y120650D03*
X199390Y146050D03*
D27*
X467360Y163957D03*
X467360Y153543D03*
D28*
X349250Y124460D03*
X349250Y134620D03*
D29*
X349250Y116840D03*
X349250Y142240D03*
D11*
X266700Y97400D03*
X266700Y80400D03*
X298450Y97400D03*
X298450Y80400D03*
X436880Y36440D03*
X436880Y19440D03*
D30*
X535940Y742950D03*
X480060Y742950D03*
X535940Y704850D03*
X480060Y704850D03*
X535940Y661670D03*
X480060Y661670D03*
X535940Y623570D03*
X480060Y623570D03*
D31*
X89635Y134085D03*
D32*
X62765Y107215D03*
D33*
X422050Y92490D03*
X428550Y92490D03*
X435050Y92490D03*
X441550Y92490D03*
X441550Y64990D03*
X435050Y64990D03*
X428550Y64990D03*
X422050Y64990D03*
D34*
X431800Y78740D03*
D35*
X431410Y431800D03*
X414410Y431800D03*
X288680Y537210D03*
X305680Y537210D03*
D36*
X533400Y25400D03*
X38100Y25400D03*
X533400Y800100D03*
X38100Y800100D03*
D37*
X197250Y599000D03*
X202250Y599000D03*
X207250Y599000D03*
X212250Y599000D03*
X217250Y599000D03*
X222250Y599000D03*
X227250Y599000D03*
X232250Y599000D03*
X237250Y599000D03*
X242250Y599000D03*
X247250Y599000D03*
X252250Y599000D03*
X257250Y599000D03*
X262250Y599000D03*
X267250Y599000D03*
X272250Y599000D03*
X277250Y599000D03*
X282250Y599000D03*
X287250Y599000D03*
X292250Y599000D03*
X297250Y599000D03*
X302250Y599000D03*
X307250Y599000D03*
X312250Y599000D03*
X317250Y599000D03*
X322250Y599000D03*
X327250Y599000D03*
X332250Y599000D03*
X337250Y599000D03*
X342250Y599000D03*
X347250Y599000D03*
X352250Y599000D03*
X357250Y599000D03*
X362250Y599000D03*
X367250Y599000D03*
X372250Y599000D03*
X377250Y599000D03*
X382250Y599000D03*
X387250Y599000D03*
X392250Y599000D03*
D38*
X180750Y630500D03*
X408750Y630500D03*
D39*
X241910Y522130D03*
X222910Y522130D03*
X232410Y543130D03*
D35*
X305680Y519430D03*
X288680Y519430D03*
X414410Y416560D03*
X431410Y416560D03*
D40*
X12700Y12700D03*
X558800Y812800D03*
D41*
X549830Y412810D03*
X549830Y356810D03*
D42*
X513080Y399810D03*
X513080Y389810D03*
X513080Y379810D03*
X513080Y369810D03*
D11*
X473710Y350130D03*
X473710Y333130D03*
X458470Y350130D03*
X458470Y333130D03*
D43*
X455676Y300990D03*
X466090Y300990D03*
X476504Y300990D03*
D44*
X39370Y231140D03*
X39370Y218440D03*
X39370Y205740D03*
X39370Y193040D03*
X39370Y243840D03*
X26670Y231140D03*
X26670Y218440D03*
X26670Y205740D03*
X26670Y193040D03*
X26670Y243840D03*
D10*
X490474Y57150D03*
X482346Y57150D03*
D45*
X110490Y325760D03*
X110490Y405760D03*
D46*
X87990Y326760D03*
X149490Y388260D03*
D11*
X257810Y538090D03*
X257810Y521090D03*
D47*
X76200Y203200D03*
D11*
X374650Y519820D03*
X374650Y536820D03*
D48*
X194310Y547400D03*
X194310Y519400D03*
D49*
X105090Y229820D03*
X105090Y210820D03*
X84090Y220320D03*
D11*
X121920Y211210D03*
X121920Y228210D03*
D29*
X558800Y127000D03*
X558800Y152400D03*
X558800Y177800D03*
X558800Y203200D03*
X558800Y228600D03*
X558800Y254000D03*
X558800Y279400D03*
X558800Y304800D03*
X558800Y330200D03*
D10*
X934466Y59690D03*
X942594Y59690D03*
D11*
X995680Y36440D03*
X995680Y19440D03*
X980440Y36440D03*
X980440Y19440D03*
D12*
X963930Y92740D03*
X963930Y64740D03*
D11*
X1018540Y138040D03*
X1018540Y121040D03*
X1003300Y138040D03*
X1003300Y121040D03*
X988060Y138040D03*
X988060Y121040D03*
D13*
X1029970Y39440D03*
X1029970Y16440D03*
D14*
X933690Y27940D03*
X963690Y27940D03*
D15*
X822380Y428650D03*
D16*
X762330Y228600D03*
D17*
X962330Y228600D03*
D18*
X769830Y175850D03*
D19*
X758830Y183600D03*
X965830Y183600D03*
D18*
X772330Y251350D03*
X774830Y175850D03*
X777330Y251350D03*
X779830Y175850D03*
X782330Y251350D03*
X784830Y175850D03*
X787330Y251350D03*
X789830Y175850D03*
X792330Y251350D03*
X794830Y175850D03*
X797330Y251350D03*
X799830Y175850D03*
X802330Y251350D03*
X804830Y175850D03*
X807330Y251350D03*
X809830Y175850D03*
X812330Y251350D03*
X814830Y175850D03*
X817330Y251350D03*
X819830Y175850D03*
X822330Y251350D03*
X824830Y175850D03*
X847330Y251350D03*
X849830Y175850D03*
X852330Y251350D03*
X854830Y175850D03*
X857330Y251350D03*
X859830Y175850D03*
X862330Y251350D03*
X864830Y175850D03*
X867330Y251350D03*
X869830Y175850D03*
X872330Y251350D03*
X874830Y175850D03*
X877330Y251350D03*
X879830Y175850D03*
X882330Y251350D03*
X884830Y175850D03*
X887330Y251350D03*
X889830Y175850D03*
X892330Y251350D03*
X894830Y175850D03*
X897330Y251350D03*
X899830Y175850D03*
X902330Y251350D03*
X904830Y175850D03*
X907330Y251350D03*
X909830Y175850D03*
X912330Y251350D03*
X914830Y175850D03*
X917330Y251350D03*
X919830Y175850D03*
X922330Y251350D03*
X924830Y175850D03*
X927330Y251350D03*
X929830Y175850D03*
X932330Y251350D03*
X934830Y175850D03*
X937330Y251350D03*
X939830Y175850D03*
X942330Y251350D03*
X944830Y175850D03*
X947330Y251350D03*
X949830Y175850D03*
X952330Y251350D03*
X954830Y175850D03*
D20*
X986980Y506700D03*
X986980Y563700D03*
D21*
X1118480Y579700D03*
X1128480Y448200D03*
D22*
X1089980Y494800D03*
X1085980Y505800D03*
X1089980Y516800D03*
X1091980Y527800D03*
X1089980Y538800D03*
X1091980Y549800D03*
X1089980Y560800D03*
X1089980Y571800D03*
D23*
X854830Y60100D03*
X859830Y60100D03*
D24*
X830080Y60100D03*
X837830Y60100D03*
D23*
X844830Y60100D03*
X849830Y60100D03*
X869830Y60100D03*
X864830Y60100D03*
D24*
X894580Y60100D03*
X886830Y60100D03*
D23*
X879830Y60100D03*
X874830Y60100D03*
D25*
X891230Y49050D03*
X833430Y49050D03*
D26*
X801370Y95250D03*
X801370Y120650D03*
X801370Y146050D03*
X775970Y95250D03*
X775970Y120650D03*
X775970Y146050D03*
D27*
X1043940Y163957D03*
X1043940Y153543D03*
D28*
X925830Y124460D03*
X925830Y134620D03*
D29*
X925830Y116840D03*
X925830Y142240D03*
D11*
X843280Y97400D03*
X843280Y80400D03*
X875030Y97400D03*
X875030Y80400D03*
X1013460Y36440D03*
X1013460Y19440D03*
D30*
X1112520Y742950D03*
X1056640Y742950D03*
X1112520Y704850D03*
X1056640Y704850D03*
X1112520Y661670D03*
X1056640Y661670D03*
X1112520Y623570D03*
X1056640Y623570D03*
D31*
X666215Y134085D03*
D32*
X639345Y107215D03*
D33*
X998630Y92490D03*
X1005130Y92490D03*
X1011630Y92490D03*
X1018130Y92490D03*
X1018130Y64990D03*
X1011630Y64990D03*
X1005130Y64990D03*
X998630Y64990D03*
D34*
X1008380Y78740D03*
D35*
X1007990Y431800D03*
X990990Y431800D03*
X865260Y537210D03*
X882260Y537210D03*
D36*
X1109980Y25400D03*
X614680Y25400D03*
X1109980Y800100D03*
X614680Y800100D03*
D37*
X773830Y599000D03*
X778830Y599000D03*
X783830Y599000D03*
X788830Y599000D03*
X793830Y599000D03*
X798830Y599000D03*
X803830Y599000D03*
X808830Y599000D03*
X813830Y599000D03*
X818830Y599000D03*
X823830Y599000D03*
X828830Y599000D03*
X833830Y599000D03*
X838830Y599000D03*
X843830Y599000D03*
X848830Y599000D03*
X853830Y599000D03*
X858830Y599000D03*
X863830Y599000D03*
X868830Y599000D03*
X873830Y599000D03*
X878830Y599000D03*
X883830Y599000D03*
X888830Y599000D03*
X893830Y599000D03*
X898830Y599000D03*
X903830Y599000D03*
X908830Y599000D03*
X913830Y599000D03*
X918830Y599000D03*
X923830Y599000D03*
X928830Y599000D03*
X933830Y599000D03*
X938830Y599000D03*
X943830Y599000D03*
X948830Y599000D03*
X953830Y599000D03*
X958830Y599000D03*
X963830Y599000D03*
X968830Y599000D03*
D38*
X757330Y630500D03*
X985330Y630500D03*
D39*
X818490Y522130D03*
X799490Y522130D03*
X808990Y543130D03*
D35*
X882260Y519430D03*
X865260Y519430D03*
X990990Y416560D03*
X1007990Y416560D03*
D40*
X589280Y12700D03*
X1135380Y812800D03*
D41*
X1126410Y412810D03*
X1126410Y356810D03*
D42*
X1089660Y399810D03*
X1089660Y389810D03*
X1089660Y379810D03*
X1089660Y369810D03*
D11*
X1050290Y350130D03*
X1050290Y333130D03*
X1035050Y350130D03*
X1035050Y333130D03*
D43*
X1032256Y300990D03*
X1042670Y300990D03*
X1053084Y300990D03*
D44*
X615950Y231140D03*
X615950Y218440D03*
X615950Y205740D03*
X615950Y193040D03*
X615950Y243840D03*
X603250Y231140D03*
X603250Y218440D03*
X603250Y205740D03*
X603250Y193040D03*
X603250Y243840D03*
D10*
X1067054Y57150D03*
X1058926Y57150D03*
D45*
X687070Y325760D03*
X687070Y405760D03*
D46*
X664570Y326760D03*
X726070Y388260D03*
D11*
X834390Y538090D03*
X834390Y521090D03*
D47*
X652780Y203200D03*
D11*
X951230Y519820D03*
X951230Y536820D03*
D48*
X770890Y547400D03*
X770890Y519400D03*
D49*
X681670Y229820D03*
X681670Y210820D03*
X660670Y220320D03*
D11*
X698500Y211210D03*
X698500Y228210D03*
D29*
X1135380Y127000D03*
X1135380Y152400D03*
X1135380Y177800D03*
X1135380Y203200D03*
X1135380Y228600D03*
X1135380Y254000D03*
X1135380Y279400D03*
X1135380Y304800D03*
X1135380Y330200D03*
D10*
X357886Y915670D03*
X366014Y915670D03*
D11*
X419100Y892420D03*
X419100Y875420D03*
X403860Y892420D03*
X403860Y875420D03*
D12*
X387350Y948720D03*
X387350Y920720D03*
D11*
X441960Y994020D03*
X441960Y977020D03*
X426720Y994020D03*
X426720Y977020D03*
X411480Y994020D03*
X411480Y977020D03*
D13*
X453390Y895420D03*
X453390Y872420D03*
D14*
X357110Y883920D03*
X387110Y883920D03*
D15*
X245800Y1284630D03*
D16*
X185750Y1084580D03*
D17*
X385750Y1084580D03*
D18*
X193250Y1031830D03*
D19*
X182250Y1039580D03*
X389250Y1039580D03*
D18*
X195750Y1107330D03*
X198250Y1031830D03*
X200750Y1107330D03*
X203250Y1031830D03*
X205750Y1107330D03*
X208250Y1031830D03*
X210750Y1107330D03*
X213250Y1031830D03*
X215750Y1107330D03*
X218250Y1031830D03*
X220750Y1107330D03*
X223250Y1031830D03*
X225750Y1107330D03*
X228250Y1031830D03*
X230750Y1107330D03*
X233250Y1031830D03*
X235750Y1107330D03*
X238250Y1031830D03*
X240750Y1107330D03*
X243250Y1031830D03*
X245750Y1107330D03*
X248250Y1031830D03*
X270750Y1107330D03*
X273250Y1031830D03*
X275750Y1107330D03*
X278250Y1031830D03*
X280750Y1107330D03*
X283250Y1031830D03*
X285750Y1107330D03*
X288250Y1031830D03*
X290750Y1107330D03*
X293250Y1031830D03*
X295750Y1107330D03*
X298250Y1031830D03*
X300750Y1107330D03*
X303250Y1031830D03*
X305750Y1107330D03*
X308250Y1031830D03*
X310750Y1107330D03*
X313250Y1031830D03*
X315750Y1107330D03*
X318250Y1031830D03*
X320750Y1107330D03*
X323250Y1031830D03*
X325750Y1107330D03*
X328250Y1031830D03*
X330750Y1107330D03*
X333250Y1031830D03*
X335750Y1107330D03*
X338250Y1031830D03*
X340750Y1107330D03*
X343250Y1031830D03*
X345750Y1107330D03*
X348250Y1031830D03*
X350750Y1107330D03*
X353250Y1031830D03*
X355750Y1107330D03*
X358250Y1031830D03*
X360750Y1107330D03*
X363250Y1031830D03*
X365750Y1107330D03*
X368250Y1031830D03*
X370750Y1107330D03*
X373250Y1031830D03*
X375750Y1107330D03*
X378250Y1031830D03*
D20*
X410400Y1362680D03*
X410400Y1419680D03*
D21*
X541900Y1435680D03*
X551900Y1304180D03*
D22*
X513400Y1350780D03*
X509400Y1361780D03*
X513400Y1372780D03*
X515400Y1383780D03*
X513400Y1394780D03*
X515400Y1405780D03*
X513400Y1416780D03*
X513400Y1427780D03*
D23*
X278250Y916080D03*
X283250Y916080D03*
D24*
X253500Y916080D03*
X261250Y916080D03*
D23*
X268250Y916080D03*
X273250Y916080D03*
X293250Y916080D03*
X288250Y916080D03*
D24*
X318000Y916080D03*
X310250Y916080D03*
D23*
X303250Y916080D03*
X298250Y916080D03*
D25*
X314650Y905030D03*
X256850Y905030D03*
D26*
X224790Y951230D03*
X224790Y976630D03*
X224790Y1002030D03*
X199390Y951230D03*
X199390Y976630D03*
X199390Y1002030D03*
D27*
X467360Y1019937D03*
X467360Y1009523D03*
D28*
X349250Y980440D03*
X349250Y990600D03*
D29*
X349250Y972820D03*
X349250Y998220D03*
D11*
X266700Y953380D03*
X266700Y936380D03*
X298450Y953380D03*
X298450Y936380D03*
X436880Y892420D03*
X436880Y875420D03*
D30*
X535940Y1598930D03*
X480060Y1598930D03*
X535940Y1560830D03*
X480060Y1560830D03*
X535940Y1517650D03*
X480060Y1517650D03*
X535940Y1479550D03*
X480060Y1479550D03*
D31*
X89635Y990065D03*
D32*
X62765Y963195D03*
D33*
X422050Y948470D03*
X428550Y948470D03*
X435050Y948470D03*
X441550Y948470D03*
X441550Y920970D03*
X435050Y920970D03*
X428550Y920970D03*
X422050Y920970D03*
D34*
X431800Y934720D03*
D35*
X431410Y1287780D03*
X414410Y1287780D03*
X288680Y1393190D03*
X305680Y1393190D03*
D36*
X533400Y881380D03*
X38100Y881380D03*
X533400Y1656080D03*
X38100Y1656080D03*
D37*
X197250Y1454980D03*
X202250Y1454980D03*
X207250Y1454980D03*
X212250Y1454980D03*
X217250Y1454980D03*
X222250Y1454980D03*
X227250Y1454980D03*
X232250Y1454980D03*
X237250Y1454980D03*
X242250Y1454980D03*
X247250Y1454980D03*
X252250Y1454980D03*
X257250Y1454980D03*
X262250Y1454980D03*
X267250Y1454980D03*
X272250Y1454980D03*
X277250Y1454980D03*
X282250Y1454980D03*
X287250Y1454980D03*
X292250Y1454980D03*
X297250Y1454980D03*
X302250Y1454980D03*
X307250Y1454980D03*
X312250Y1454980D03*
X317250Y1454980D03*
X322250Y1454980D03*
X327250Y1454980D03*
X332250Y1454980D03*
X337250Y1454980D03*
X342250Y1454980D03*
X347250Y1454980D03*
X352250Y1454980D03*
X357250Y1454980D03*
X362250Y1454980D03*
X367250Y1454980D03*
X372250Y1454980D03*
X377250Y1454980D03*
X382250Y1454980D03*
X387250Y1454980D03*
X392250Y1454980D03*
D38*
X180750Y1486480D03*
X408750Y1486480D03*
D39*
X241910Y1378110D03*
X222910Y1378110D03*
X232410Y1399110D03*
D35*
X305680Y1375410D03*
X288680Y1375410D03*
X414410Y1272540D03*
X431410Y1272540D03*
D40*
X12700Y868680D03*
X558800Y1668780D03*
D41*
X549830Y1268790D03*
X549830Y1212790D03*
D42*
X513080Y1255790D03*
X513080Y1245790D03*
X513080Y1235790D03*
X513080Y1225790D03*
D11*
X473710Y1206110D03*
X473710Y1189110D03*
X458470Y1206110D03*
X458470Y1189110D03*
D43*
X455676Y1156970D03*
X466090Y1156970D03*
X476504Y1156970D03*
D44*
X39370Y1087120D03*
X39370Y1074420D03*
X39370Y1061720D03*
X39370Y1049020D03*
X39370Y1099820D03*
X26670Y1087120D03*
X26670Y1074420D03*
X26670Y1061720D03*
X26670Y1049020D03*
X26670Y1099820D03*
D10*
X490474Y913130D03*
X482346Y913130D03*
D45*
X110490Y1181740D03*
X110490Y1261740D03*
D46*
X87990Y1182740D03*
X149490Y1244240D03*
D11*
X257810Y1394070D03*
X257810Y1377070D03*
D47*
X76200Y1059180D03*
D11*
X374650Y1375800D03*
X374650Y1392800D03*
D48*
X194310Y1403380D03*
X194310Y1375380D03*
D49*
X105090Y1085800D03*
X105090Y1066800D03*
X84090Y1076300D03*
D11*
X121920Y1067190D03*
X121920Y1084190D03*
D29*
X558800Y982980D03*
X558800Y1008380D03*
X558800Y1033780D03*
X558800Y1059180D03*
X558800Y1084580D03*
X558800Y1109980D03*
X558800Y1135380D03*
X558800Y1160780D03*
X558800Y1186180D03*
D10*
X934466Y915670D03*
X942594Y915670D03*
D11*
X995680Y892420D03*
X995680Y875420D03*
X980440Y892420D03*
X980440Y875420D03*
D12*
X963930Y948720D03*
X963930Y920720D03*
D11*
X1018540Y994020D03*
X1018540Y977020D03*
X1003300Y994020D03*
X1003300Y977020D03*
X988060Y994020D03*
X988060Y977020D03*
D13*
X1029970Y895420D03*
X1029970Y872420D03*
D14*
X933690Y883920D03*
X963690Y883920D03*
D15*
X822380Y1284630D03*
D16*
X762330Y1084580D03*
D17*
X962330Y1084580D03*
D18*
X769830Y1031830D03*
D19*
X758830Y1039580D03*
X965830Y1039580D03*
D18*
X772330Y1107330D03*
X774830Y1031830D03*
X777330Y1107330D03*
X779830Y1031830D03*
X782330Y1107330D03*
X784830Y1031830D03*
X787330Y1107330D03*
X789830Y1031830D03*
X792330Y1107330D03*
X794830Y1031830D03*
X797330Y1107330D03*
X799830Y1031830D03*
X802330Y1107330D03*
X804830Y1031830D03*
X807330Y1107330D03*
X809830Y1031830D03*
X812330Y1107330D03*
X814830Y1031830D03*
X817330Y1107330D03*
X819830Y1031830D03*
X822330Y1107330D03*
X824830Y1031830D03*
X847330Y1107330D03*
X849830Y1031830D03*
X852330Y1107330D03*
X854830Y1031830D03*
X857330Y1107330D03*
X859830Y1031830D03*
X862330Y1107330D03*
X864830Y1031830D03*
X867330Y1107330D03*
X869830Y1031830D03*
X872330Y1107330D03*
X874830Y1031830D03*
X877330Y1107330D03*
X879830Y1031830D03*
X882330Y1107330D03*
X884830Y1031830D03*
X887330Y1107330D03*
X889830Y1031830D03*
X892330Y1107330D03*
X894830Y1031830D03*
X897330Y1107330D03*
X899830Y1031830D03*
X902330Y1107330D03*
X904830Y1031830D03*
X907330Y1107330D03*
X909830Y1031830D03*
X912330Y1107330D03*
X914830Y1031830D03*
X917330Y1107330D03*
X919830Y1031830D03*
X922330Y1107330D03*
X924830Y1031830D03*
X927330Y1107330D03*
X929830Y1031830D03*
X932330Y1107330D03*
X934830Y1031830D03*
X937330Y1107330D03*
X939830Y1031830D03*
X942330Y1107330D03*
X944830Y1031830D03*
X947330Y1107330D03*
X949830Y1031830D03*
X952330Y1107330D03*
X954830Y1031830D03*
D20*
X986980Y1362680D03*
X986980Y1419680D03*
D21*
X1118480Y1435680D03*
X1128480Y1304180D03*
D22*
X1089980Y1350780D03*
X1085980Y1361780D03*
X1089980Y1372780D03*
X1091980Y1383780D03*
X1089980Y1394780D03*
X1091980Y1405780D03*
X1089980Y1416780D03*
X1089980Y1427780D03*
D23*
X854830Y916080D03*
X859830Y916080D03*
D24*
X830080Y916080D03*
X837830Y916080D03*
D23*
X844830Y916080D03*
X849830Y916080D03*
X869830Y916080D03*
X864830Y916080D03*
D24*
X894580Y916080D03*
X886830Y916080D03*
D23*
X879830Y916080D03*
X874830Y916080D03*
D25*
X891230Y905030D03*
X833430Y905030D03*
D26*
X801370Y951230D03*
X801370Y976630D03*
X801370Y1002030D03*
X775970Y951230D03*
X775970Y976630D03*
X775970Y1002030D03*
D27*
X1043940Y1019937D03*
X1043940Y1009523D03*
D28*
X925830Y980440D03*
X925830Y990600D03*
D29*
X925830Y972820D03*
X925830Y998220D03*
D11*
X843280Y953380D03*
X843280Y936380D03*
X875030Y953380D03*
X875030Y936380D03*
X1013460Y892420D03*
X1013460Y875420D03*
D30*
X1112520Y1598930D03*
X1056640Y1598930D03*
X1112520Y1560830D03*
X1056640Y1560830D03*
X1112520Y1517650D03*
X1056640Y1517650D03*
X1112520Y1479550D03*
X1056640Y1479550D03*
D31*
X666215Y990065D03*
D32*
X639345Y963195D03*
D33*
X998630Y948470D03*
X1005130Y948470D03*
X1011630Y948470D03*
X1018130Y948470D03*
X1018130Y920970D03*
X1011630Y920970D03*
X1005130Y920970D03*
X998630Y920970D03*
D34*
X1008380Y934720D03*
D35*
X1007990Y1287780D03*
X990990Y1287780D03*
X865260Y1393190D03*
X882260Y1393190D03*
D36*
X1109980Y881380D03*
X614680Y881380D03*
X1109980Y1656080D03*
X614680Y1656080D03*
D37*
X773830Y1454980D03*
X778830Y1454980D03*
X783830Y1454980D03*
X788830Y1454980D03*
X793830Y1454980D03*
X798830Y1454980D03*
X803830Y1454980D03*
X808830Y1454980D03*
X813830Y1454980D03*
X818830Y1454980D03*
X823830Y1454980D03*
X828830Y1454980D03*
X833830Y1454980D03*
X838830Y1454980D03*
X843830Y1454980D03*
X848830Y1454980D03*
X853830Y1454980D03*
X858830Y1454980D03*
X863830Y1454980D03*
X868830Y1454980D03*
X873830Y1454980D03*
X878830Y1454980D03*
X883830Y1454980D03*
X888830Y1454980D03*
X893830Y1454980D03*
X898830Y1454980D03*
X903830Y1454980D03*
X908830Y1454980D03*
X913830Y1454980D03*
X918830Y1454980D03*
X923830Y1454980D03*
X928830Y1454980D03*
X933830Y1454980D03*
X938830Y1454980D03*
X943830Y1454980D03*
X948830Y1454980D03*
X953830Y1454980D03*
X958830Y1454980D03*
X963830Y1454980D03*
X968830Y1454980D03*
D38*
X757330Y1486480D03*
X985330Y1486480D03*
D39*
X818490Y1378110D03*
X799490Y1378110D03*
X808990Y1399110D03*
D35*
X882260Y1375410D03*
X865260Y1375410D03*
X990990Y1272540D03*
X1007990Y1272540D03*
D40*
X589280Y868680D03*
X1135380Y1668780D03*
D41*
X1126410Y1268790D03*
X1126410Y1212790D03*
D42*
X1089660Y1255790D03*
X1089660Y1245790D03*
X1089660Y1235790D03*
X1089660Y1225790D03*
D11*
X1050290Y1206110D03*
X1050290Y1189110D03*
X1035050Y1206110D03*
X1035050Y1189110D03*
D43*
X1032256Y1156970D03*
X1042670Y1156970D03*
X1053084Y1156970D03*
D44*
X615950Y1087120D03*
X615950Y1074420D03*
X615950Y1061720D03*
X615950Y1049020D03*
X615950Y1099820D03*
X603250Y1087120D03*
X603250Y1074420D03*
X603250Y1061720D03*
X603250Y1049020D03*
X603250Y1099820D03*
D10*
X1067054Y913130D03*
X1058926Y913130D03*
D45*
X687070Y1181740D03*
X687070Y1261740D03*
D46*
X664570Y1182740D03*
X726070Y1244240D03*
D11*
X834390Y1394070D03*
X834390Y1377070D03*
D47*
X652780Y1059180D03*
D11*
X951230Y1375800D03*
X951230Y1392800D03*
D48*
X770890Y1403380D03*
X770890Y1375380D03*
D49*
X681670Y1085800D03*
X681670Y1066800D03*
X660670Y1076300D03*
D11*
X698500Y1067190D03*
X698500Y1084190D03*
D29*
X1135380Y982980D03*
X1135380Y1008380D03*
X1135380Y1033780D03*
X1135380Y1059180D03*
X1135380Y1084580D03*
X1135380Y1109980D03*
X1135380Y1135380D03*
X1135380Y1160780D03*
X1135380Y1186180D03*
D44*
X68580Y1727835D03*
X1078865Y1727835D03*
D50*
X59525Y-46355D02*
X59528Y-46133D01*
X59536Y-45911D01*
X59550Y-45689D01*
X59569Y-45467D01*
X59593Y-45247D01*
X59623Y-45026D01*
X59658Y-44807D01*
X59699Y-44588D01*
X59745Y-44371D01*
X59796Y-44155D01*
X59853Y-43940D01*
X59915Y-43726D01*
X59982Y-43515D01*
X60054Y-43304D01*
X60132Y-43096D01*
X60214Y-42890D01*
X60302Y-42686D01*
X60394Y-42483D01*
X60492Y-42284D01*
X60594Y-42087D01*
X60701Y-41892D01*
X60813Y-41700D01*
X60930Y-41511D01*
X61051Y-41324D01*
X61177Y-41141D01*
X61307Y-40961D01*
X61442Y-40784D01*
X61580Y-40611D01*
X61723Y-40441D01*
X61871Y-40274D01*
X62022Y-40111D01*
X62177Y-39952D01*
X62336Y-39797D01*
X62499Y-39646D01*
X62666Y-39498D01*
X62836Y-39355D01*
X63009Y-39217D01*
X63186Y-39082D01*
X63366Y-38952D01*
X63549Y-38826D01*
X63736Y-38705D01*
X63925Y-38588D01*
X64117Y-38476D01*
X64312Y-38369D01*
X64509Y-38267D01*
X64708Y-38169D01*
X64911Y-38077D01*
X65115Y-37989D01*
X65321Y-37907D01*
X65529Y-37829D01*
X65740Y-37757D01*
X65951Y-37690D01*
X66165Y-37628D01*
X66380Y-37571D01*
X66596Y-37520D01*
X66813Y-37474D01*
X67032Y-37433D01*
X67251Y-37398D01*
X67472Y-37368D01*
X67692Y-37344D01*
X67914Y-37325D01*
X68136Y-37311D01*
X68358Y-37303D01*
X68580Y-37300D01*
X68802Y-37303D01*
X69024Y-37311D01*
X69246Y-37325D01*
X69468Y-37344D01*
X69688Y-37368D01*
X69909Y-37398D01*
X70128Y-37433D01*
X70347Y-37474D01*
X70564Y-37520D01*
X70780Y-37571D01*
X70995Y-37628D01*
X71209Y-37690D01*
X71420Y-37757D01*
X71631Y-37829D01*
X71839Y-37907D01*
X72045Y-37989D01*
X72249Y-38077D01*
X72452Y-38169D01*
X72651Y-38267D01*
X72848Y-38369D01*
X73043Y-38476D01*
X73235Y-38588D01*
X73424Y-38705D01*
X73611Y-38826D01*
X73794Y-38952D01*
X73974Y-39082D01*
X74151Y-39217D01*
X74324Y-39355D01*
X74494Y-39498D01*
X74661Y-39646D01*
X74824Y-39797D01*
X74983Y-39952D01*
X75138Y-40111D01*
X75289Y-40274D01*
X75437Y-40441D01*
X75580Y-40611D01*
X75718Y-40784D01*
X75853Y-40961D01*
X75983Y-41141D01*
X76109Y-41324D01*
X76230Y-41511D01*
X76347Y-41700D01*
X76459Y-41892D01*
X76566Y-42087D01*
X76668Y-42284D01*
X76766Y-42483D01*
X76858Y-42686D01*
X76946Y-42890D01*
X77028Y-43096D01*
X77106Y-43304D01*
X77178Y-43515D01*
X77245Y-43726D01*
X77307Y-43940D01*
X77364Y-44155D01*
X77415Y-44371D01*
X77461Y-44588D01*
X77502Y-44807D01*
X77537Y-45026D01*
X77567Y-45247D01*
X77591Y-45467D01*
X77610Y-45689D01*
X77624Y-45911D01*
X77632Y-46133D01*
X77635Y-46355D01*
X77632Y-46577D01*
X77624Y-46799D01*
X77610Y-47021D01*
X77591Y-47243D01*
X77567Y-47463D01*
X77537Y-47684D01*
X77502Y-47903D01*
X77461Y-48122D01*
X77415Y-48339D01*
X77364Y-48555D01*
X77307Y-48770D01*
X77245Y-48984D01*
X77178Y-49195D01*
X77106Y-49406D01*
X77028Y-49614D01*
X76946Y-49820D01*
X76858Y-50024D01*
X76766Y-50227D01*
X76668Y-50426D01*
X76566Y-50623D01*
X76459Y-50818D01*
X76347Y-51010D01*
X76230Y-51199D01*
X76109Y-51386D01*
X75983Y-51569D01*
X75853Y-51749D01*
X75718Y-51926D01*
X75580Y-52099D01*
X75437Y-52269D01*
X75289Y-52436D01*
X75138Y-52599D01*
X74983Y-52758D01*
X74824Y-52913D01*
X74661Y-53064D01*
X74494Y-53212D01*
X74324Y-53355D01*
X74151Y-53493D01*
X73974Y-53628D01*
X73794Y-53758D01*
X73611Y-53884D01*
X73424Y-54005D01*
X73235Y-54122D01*
X73043Y-54234D01*
X72848Y-54341D01*
X72651Y-54443D01*
X72452Y-54541D01*
X72249Y-54633D01*
X72045Y-54721D01*
X71839Y-54803D01*
X71631Y-54881D01*
X71420Y-54953D01*
X71209Y-55020D01*
X70995Y-55082D01*
X70780Y-55139D01*
X70564Y-55190D01*
X70347Y-55236D01*
X70128Y-55277D01*
X69909Y-55312D01*
X69688Y-55342D01*
X69468Y-55366D01*
X69246Y-55385D01*
X69024Y-55399D01*
X68802Y-55407D01*
X68580Y-55410D01*
X68358Y-55407D01*
X68136Y-55399D01*
X67914Y-55385D01*
X67692Y-55366D01*
X67472Y-55342D01*
X67251Y-55312D01*
X67032Y-55277D01*
X66813Y-55236D01*
X66596Y-55190D01*
X66380Y-55139D01*
X66165Y-55082D01*
X65951Y-55020D01*
X65740Y-54953D01*
X65529Y-54881D01*
X65321Y-54803D01*
X65115Y-54721D01*
X64911Y-54633D01*
X64708Y-54541D01*
X64509Y-54443D01*
X64312Y-54341D01*
X64117Y-54234D01*
X63925Y-54122D01*
X63736Y-54005D01*
X63549Y-53884D01*
X63366Y-53758D01*
X63186Y-53628D01*
X63009Y-53493D01*
X62836Y-53355D01*
X62666Y-53212D01*
X62499Y-53064D01*
X62336Y-52913D01*
X62177Y-52758D01*
X62022Y-52599D01*
X61871Y-52436D01*
X61723Y-52269D01*
X61580Y-52099D01*
X61442Y-51926D01*
X61307Y-51749D01*
X61177Y-51569D01*
X61051Y-51386D01*
X60930Y-51199D01*
X60813Y-51010D01*
X60701Y-50818D01*
X60594Y-50623D01*
X60492Y-50426D01*
X60394Y-50227D01*
X60302Y-50024D01*
X60214Y-49820D01*
X60132Y-49614D01*
X60054Y-49406D01*
X59982Y-49195D01*
X59915Y-48984D01*
X59853Y-48770D01*
X59796Y-48555D01*
X59745Y-48339D01*
X59699Y-48122D01*
X59658Y-47903D01*
X59623Y-47684D01*
X59593Y-47463D01*
X59569Y-47243D01*
X59550Y-47021D01*
X59536Y-46799D01*
X59528Y-46577D01*
X59525Y-46355D01*
D51*
X68580Y-46355D03*
M02*
