G04 EAGLE Gerber RS-274X export*
G75*
%MOMM*%
%FSLAX34Y34*%
%LPD*%
%INSoldermask Top*%
%IPPOS*%
%AMOC8*
5,1,8,0,0,1.08239X$1,22.5*%
G01*
%ADD10R,1.203200X1.303200*%
%ADD11C,0.505344*%
%ADD12R,1.203200X2.403200*%
%ADD13R,1.303200X2.403200*%
%ADD14C,6.203200*%
%ADD15C,1.303200*%
%ADD16C,1.803200*%
%ADD17C,0.853200*%
%ADD18C,2.082800*%
%ADD19R,1.303200X1.203200*%
%ADD20R,1.727200X0.965200*%
%ADD21R,2.053200X1.303200*%
%ADD22R,2.103200X2.203200*%
%ADD23C,0.953200*%
%ADD24C,1.253200*%
%ADD25R,1.403200X0.803200*%
%ADD26C,3.505200*%
%ADD27C,0.838200*%
%ADD28C,1.203200*%
%ADD29C,1.003200*%
%ADD30C,1.270000*%
%ADD31C,1.703200*%


D10*
X222250Y55490D03*
X222250Y38490D03*
D11*
X452320Y189550D02*
X452320Y196530D01*
X459300Y196530D01*
X459300Y189550D01*
X452320Y189550D01*
X452320Y194350D02*
X459300Y194350D01*
X434780Y196530D02*
X434780Y189550D01*
X434780Y196530D02*
X441760Y196530D01*
X441760Y189550D01*
X434780Y189550D01*
X434780Y194350D02*
X441760Y194350D01*
D12*
X55600Y353900D03*
D13*
X38100Y353900D03*
D12*
X20600Y353900D03*
X20600Y311900D03*
D13*
X38100Y311900D03*
D12*
X55600Y311900D03*
X55600Y430100D03*
D13*
X38100Y430100D03*
D12*
X20600Y430100D03*
X20600Y388100D03*
D13*
X38100Y388100D03*
D12*
X55600Y388100D03*
X55600Y506300D03*
D13*
X38100Y506300D03*
D12*
X20600Y506300D03*
X20600Y464300D03*
D13*
X38100Y464300D03*
D12*
X55600Y464300D03*
X55600Y582500D03*
D13*
X38100Y582500D03*
D12*
X20600Y582500D03*
X20600Y540500D03*
D13*
X38100Y540500D03*
D12*
X55600Y540500D03*
X55600Y658700D03*
D13*
X38100Y658700D03*
D12*
X20600Y658700D03*
X20600Y616700D03*
D13*
X38100Y616700D03*
D12*
X55600Y616700D03*
X55600Y734900D03*
D13*
X38100Y734900D03*
D12*
X20600Y734900D03*
X20600Y692900D03*
D13*
X38100Y692900D03*
D12*
X55600Y692900D03*
D14*
X245800Y428650D03*
D15*
X185750Y228600D03*
D16*
X385750Y228600D03*
D17*
X314650Y49050D03*
X256850Y49050D03*
D18*
X349250Y116840D03*
X349250Y142240D03*
D19*
X438540Y177800D03*
X455540Y177800D03*
D10*
X204470Y55490D03*
X204470Y38490D03*
D20*
X378460Y139700D03*
X434340Y139700D03*
X378460Y101600D03*
X434340Y101600D03*
X464820Y139700D03*
X520700Y139700D03*
X464820Y101600D03*
X520700Y101600D03*
D21*
G36*
X65239Y142195D02*
X50722Y156712D01*
X59937Y165927D01*
X74454Y151410D01*
X65239Y142195D01*
G37*
G36*
X112262Y95172D02*
X97745Y109689D01*
X106960Y118904D01*
X121477Y104387D01*
X112262Y95172D01*
G37*
G36*
X45440Y122396D02*
X30923Y136913D01*
X40138Y146128D01*
X54655Y131611D01*
X45440Y122396D01*
G37*
G36*
X55340Y132295D02*
X40823Y146812D01*
X50038Y156027D01*
X64555Y141510D01*
X55340Y132295D01*
G37*
G36*
X92463Y75373D02*
X77946Y89890D01*
X87161Y99105D01*
X101678Y84588D01*
X92463Y75373D01*
G37*
G36*
X102362Y85273D02*
X87845Y99790D01*
X97060Y109005D01*
X111577Y94488D01*
X102362Y85273D01*
G37*
D22*
G36*
X105051Y134629D02*
X90179Y149501D01*
X105757Y165079D01*
X120629Y150207D01*
X105051Y134629D01*
G37*
G36*
X46643Y76221D02*
X31771Y91093D01*
X47349Y106671D01*
X62221Y91799D01*
X46643Y76221D01*
G37*
D23*
X89635Y134085D03*
D24*
X62765Y107215D03*
D25*
X240090Y76200D03*
X240090Y88900D03*
X240090Y101600D03*
X240090Y114300D03*
X240090Y127000D03*
X240090Y139700D03*
X240090Y152400D03*
X184090Y152400D03*
X184090Y139700D03*
X184090Y127000D03*
X184090Y114300D03*
X184090Y101600D03*
X184090Y88900D03*
X184090Y76200D03*
D26*
X533400Y25400D03*
X38100Y25400D03*
X533400Y800100D03*
X38100Y800100D03*
D27*
X12700Y12700D03*
X558800Y812800D03*
D28*
X39370Y231140D03*
X39370Y218440D03*
X39370Y205740D03*
X39370Y193040D03*
X39370Y243840D03*
X26670Y231140D03*
X26670Y218440D03*
X26670Y205740D03*
X26670Y193040D03*
X26670Y243840D03*
D29*
X87990Y326760D03*
X149490Y388260D03*
D18*
X558800Y127000D03*
X558800Y152400D03*
X558800Y177800D03*
X558800Y203200D03*
X558800Y228600D03*
X558800Y254000D03*
X558800Y279400D03*
X558800Y304800D03*
X558800Y330200D03*
D10*
X798830Y55490D03*
X798830Y38490D03*
D11*
X1028900Y189550D02*
X1028900Y196530D01*
X1035880Y196530D01*
X1035880Y189550D01*
X1028900Y189550D01*
X1028900Y194350D02*
X1035880Y194350D01*
X1011360Y196530D02*
X1011360Y189550D01*
X1011360Y196530D02*
X1018340Y196530D01*
X1018340Y189550D01*
X1011360Y189550D01*
X1011360Y194350D02*
X1018340Y194350D01*
D12*
X632180Y353900D03*
D13*
X614680Y353900D03*
D12*
X597180Y353900D03*
X597180Y311900D03*
D13*
X614680Y311900D03*
D12*
X632180Y311900D03*
X632180Y430100D03*
D13*
X614680Y430100D03*
D12*
X597180Y430100D03*
X597180Y388100D03*
D13*
X614680Y388100D03*
D12*
X632180Y388100D03*
X632180Y506300D03*
D13*
X614680Y506300D03*
D12*
X597180Y506300D03*
X597180Y464300D03*
D13*
X614680Y464300D03*
D12*
X632180Y464300D03*
X632180Y582500D03*
D13*
X614680Y582500D03*
D12*
X597180Y582500D03*
X597180Y540500D03*
D13*
X614680Y540500D03*
D12*
X632180Y540500D03*
X632180Y658700D03*
D13*
X614680Y658700D03*
D12*
X597180Y658700D03*
X597180Y616700D03*
D13*
X614680Y616700D03*
D12*
X632180Y616700D03*
X632180Y734900D03*
D13*
X614680Y734900D03*
D12*
X597180Y734900D03*
X597180Y692900D03*
D13*
X614680Y692900D03*
D12*
X632180Y692900D03*
D14*
X822380Y428650D03*
D15*
X762330Y228600D03*
D16*
X962330Y228600D03*
D17*
X891230Y49050D03*
X833430Y49050D03*
D18*
X925830Y116840D03*
X925830Y142240D03*
D19*
X1015120Y177800D03*
X1032120Y177800D03*
D10*
X781050Y55490D03*
X781050Y38490D03*
D20*
X955040Y139700D03*
X1010920Y139700D03*
X955040Y101600D03*
X1010920Y101600D03*
X1041400Y139700D03*
X1097280Y139700D03*
X1041400Y101600D03*
X1097280Y101600D03*
D21*
G36*
X641819Y142195D02*
X627302Y156712D01*
X636517Y165927D01*
X651034Y151410D01*
X641819Y142195D01*
G37*
G36*
X688842Y95172D02*
X674325Y109689D01*
X683540Y118904D01*
X698057Y104387D01*
X688842Y95172D01*
G37*
G36*
X622020Y122396D02*
X607503Y136913D01*
X616718Y146128D01*
X631235Y131611D01*
X622020Y122396D01*
G37*
G36*
X631920Y132295D02*
X617403Y146812D01*
X626618Y156027D01*
X641135Y141510D01*
X631920Y132295D01*
G37*
G36*
X669043Y75373D02*
X654526Y89890D01*
X663741Y99105D01*
X678258Y84588D01*
X669043Y75373D01*
G37*
G36*
X678942Y85273D02*
X664425Y99790D01*
X673640Y109005D01*
X688157Y94488D01*
X678942Y85273D01*
G37*
D22*
G36*
X681631Y134629D02*
X666759Y149501D01*
X682337Y165079D01*
X697209Y150207D01*
X681631Y134629D01*
G37*
G36*
X623223Y76221D02*
X608351Y91093D01*
X623929Y106671D01*
X638801Y91799D01*
X623223Y76221D01*
G37*
D23*
X666215Y134085D03*
D24*
X639345Y107215D03*
D25*
X816670Y76200D03*
X816670Y88900D03*
X816670Y101600D03*
X816670Y114300D03*
X816670Y127000D03*
X816670Y139700D03*
X816670Y152400D03*
X760670Y152400D03*
X760670Y139700D03*
X760670Y127000D03*
X760670Y114300D03*
X760670Y101600D03*
X760670Y88900D03*
X760670Y76200D03*
D26*
X1109980Y25400D03*
X614680Y25400D03*
X1109980Y800100D03*
X614680Y800100D03*
D27*
X589280Y12700D03*
X1135380Y812800D03*
D28*
X615950Y231140D03*
X615950Y218440D03*
X615950Y205740D03*
X615950Y193040D03*
X615950Y243840D03*
X603250Y231140D03*
X603250Y218440D03*
X603250Y205740D03*
X603250Y193040D03*
X603250Y243840D03*
D29*
X664570Y326760D03*
X726070Y388260D03*
D18*
X1135380Y127000D03*
X1135380Y152400D03*
X1135380Y177800D03*
X1135380Y203200D03*
X1135380Y228600D03*
X1135380Y254000D03*
X1135380Y279400D03*
X1135380Y304800D03*
X1135380Y330200D03*
D10*
X222250Y911470D03*
X222250Y894470D03*
D11*
X452320Y1045530D02*
X452320Y1052510D01*
X459300Y1052510D01*
X459300Y1045530D01*
X452320Y1045530D01*
X452320Y1050330D02*
X459300Y1050330D01*
X434780Y1052510D02*
X434780Y1045530D01*
X434780Y1052510D02*
X441760Y1052510D01*
X441760Y1045530D01*
X434780Y1045530D01*
X434780Y1050330D02*
X441760Y1050330D01*
D12*
X55600Y1209880D03*
D13*
X38100Y1209880D03*
D12*
X20600Y1209880D03*
X20600Y1167880D03*
D13*
X38100Y1167880D03*
D12*
X55600Y1167880D03*
X55600Y1286080D03*
D13*
X38100Y1286080D03*
D12*
X20600Y1286080D03*
X20600Y1244080D03*
D13*
X38100Y1244080D03*
D12*
X55600Y1244080D03*
X55600Y1362280D03*
D13*
X38100Y1362280D03*
D12*
X20600Y1362280D03*
X20600Y1320280D03*
D13*
X38100Y1320280D03*
D12*
X55600Y1320280D03*
X55600Y1438480D03*
D13*
X38100Y1438480D03*
D12*
X20600Y1438480D03*
X20600Y1396480D03*
D13*
X38100Y1396480D03*
D12*
X55600Y1396480D03*
X55600Y1514680D03*
D13*
X38100Y1514680D03*
D12*
X20600Y1514680D03*
X20600Y1472680D03*
D13*
X38100Y1472680D03*
D12*
X55600Y1472680D03*
X55600Y1590880D03*
D13*
X38100Y1590880D03*
D12*
X20600Y1590880D03*
X20600Y1548880D03*
D13*
X38100Y1548880D03*
D12*
X55600Y1548880D03*
D14*
X245800Y1284630D03*
D15*
X185750Y1084580D03*
D16*
X385750Y1084580D03*
D17*
X314650Y905030D03*
X256850Y905030D03*
D18*
X349250Y972820D03*
X349250Y998220D03*
D19*
X438540Y1033780D03*
X455540Y1033780D03*
D10*
X204470Y911470D03*
X204470Y894470D03*
D20*
X378460Y995680D03*
X434340Y995680D03*
X378460Y957580D03*
X434340Y957580D03*
X464820Y995680D03*
X520700Y995680D03*
X464820Y957580D03*
X520700Y957580D03*
D21*
G36*
X65239Y998175D02*
X50722Y1012692D01*
X59937Y1021907D01*
X74454Y1007390D01*
X65239Y998175D01*
G37*
G36*
X112262Y951152D02*
X97745Y965669D01*
X106960Y974884D01*
X121477Y960367D01*
X112262Y951152D01*
G37*
G36*
X45440Y978376D02*
X30923Y992893D01*
X40138Y1002108D01*
X54655Y987591D01*
X45440Y978376D01*
G37*
G36*
X55340Y988275D02*
X40823Y1002792D01*
X50038Y1012007D01*
X64555Y997490D01*
X55340Y988275D01*
G37*
G36*
X92463Y931353D02*
X77946Y945870D01*
X87161Y955085D01*
X101678Y940568D01*
X92463Y931353D01*
G37*
G36*
X102362Y941253D02*
X87845Y955770D01*
X97060Y964985D01*
X111577Y950468D01*
X102362Y941253D01*
G37*
D22*
G36*
X105051Y990609D02*
X90179Y1005481D01*
X105757Y1021059D01*
X120629Y1006187D01*
X105051Y990609D01*
G37*
G36*
X46643Y932201D02*
X31771Y947073D01*
X47349Y962651D01*
X62221Y947779D01*
X46643Y932201D01*
G37*
D23*
X89635Y990065D03*
D24*
X62765Y963195D03*
D25*
X240090Y932180D03*
X240090Y944880D03*
X240090Y957580D03*
X240090Y970280D03*
X240090Y982980D03*
X240090Y995680D03*
X240090Y1008380D03*
X184090Y1008380D03*
X184090Y995680D03*
X184090Y982980D03*
X184090Y970280D03*
X184090Y957580D03*
X184090Y944880D03*
X184090Y932180D03*
D26*
X533400Y881380D03*
X38100Y881380D03*
X533400Y1656080D03*
X38100Y1656080D03*
D27*
X12700Y868680D03*
X558800Y1668780D03*
D28*
X39370Y1087120D03*
X39370Y1074420D03*
X39370Y1061720D03*
X39370Y1049020D03*
X39370Y1099820D03*
X26670Y1087120D03*
X26670Y1074420D03*
X26670Y1061720D03*
X26670Y1049020D03*
X26670Y1099820D03*
D29*
X87990Y1182740D03*
X149490Y1244240D03*
D18*
X558800Y982980D03*
X558800Y1008380D03*
X558800Y1033780D03*
X558800Y1059180D03*
X558800Y1084580D03*
X558800Y1109980D03*
X558800Y1135380D03*
X558800Y1160780D03*
X558800Y1186180D03*
D10*
X798830Y911470D03*
X798830Y894470D03*
D11*
X1028900Y1045530D02*
X1028900Y1052510D01*
X1035880Y1052510D01*
X1035880Y1045530D01*
X1028900Y1045530D01*
X1028900Y1050330D02*
X1035880Y1050330D01*
X1011360Y1052510D02*
X1011360Y1045530D01*
X1011360Y1052510D02*
X1018340Y1052510D01*
X1018340Y1045530D01*
X1011360Y1045530D01*
X1011360Y1050330D02*
X1018340Y1050330D01*
D12*
X632180Y1209880D03*
D13*
X614680Y1209880D03*
D12*
X597180Y1209880D03*
X597180Y1167880D03*
D13*
X614680Y1167880D03*
D12*
X632180Y1167880D03*
X632180Y1286080D03*
D13*
X614680Y1286080D03*
D12*
X597180Y1286080D03*
X597180Y1244080D03*
D13*
X614680Y1244080D03*
D12*
X632180Y1244080D03*
X632180Y1362280D03*
D13*
X614680Y1362280D03*
D12*
X597180Y1362280D03*
X597180Y1320280D03*
D13*
X614680Y1320280D03*
D12*
X632180Y1320280D03*
X632180Y1438480D03*
D13*
X614680Y1438480D03*
D12*
X597180Y1438480D03*
X597180Y1396480D03*
D13*
X614680Y1396480D03*
D12*
X632180Y1396480D03*
X632180Y1514680D03*
D13*
X614680Y1514680D03*
D12*
X597180Y1514680D03*
X597180Y1472680D03*
D13*
X614680Y1472680D03*
D12*
X632180Y1472680D03*
X632180Y1590880D03*
D13*
X614680Y1590880D03*
D12*
X597180Y1590880D03*
X597180Y1548880D03*
D13*
X614680Y1548880D03*
D12*
X632180Y1548880D03*
D14*
X822380Y1284630D03*
D15*
X762330Y1084580D03*
D16*
X962330Y1084580D03*
D17*
X891230Y905030D03*
X833430Y905030D03*
D18*
X925830Y972820D03*
X925830Y998220D03*
D19*
X1015120Y1033780D03*
X1032120Y1033780D03*
D10*
X781050Y911470D03*
X781050Y894470D03*
D20*
X955040Y995680D03*
X1010920Y995680D03*
X955040Y957580D03*
X1010920Y957580D03*
X1041400Y995680D03*
X1097280Y995680D03*
X1041400Y957580D03*
X1097280Y957580D03*
D21*
G36*
X641819Y998175D02*
X627302Y1012692D01*
X636517Y1021907D01*
X651034Y1007390D01*
X641819Y998175D01*
G37*
G36*
X688842Y951152D02*
X674325Y965669D01*
X683540Y974884D01*
X698057Y960367D01*
X688842Y951152D01*
G37*
G36*
X622020Y978376D02*
X607503Y992893D01*
X616718Y1002108D01*
X631235Y987591D01*
X622020Y978376D01*
G37*
G36*
X631920Y988275D02*
X617403Y1002792D01*
X626618Y1012007D01*
X641135Y997490D01*
X631920Y988275D01*
G37*
G36*
X669043Y931353D02*
X654526Y945870D01*
X663741Y955085D01*
X678258Y940568D01*
X669043Y931353D01*
G37*
G36*
X678942Y941253D02*
X664425Y955770D01*
X673640Y964985D01*
X688157Y950468D01*
X678942Y941253D01*
G37*
D22*
G36*
X681631Y990609D02*
X666759Y1005481D01*
X682337Y1021059D01*
X697209Y1006187D01*
X681631Y990609D01*
G37*
G36*
X623223Y932201D02*
X608351Y947073D01*
X623929Y962651D01*
X638801Y947779D01*
X623223Y932201D01*
G37*
D23*
X666215Y990065D03*
D24*
X639345Y963195D03*
D25*
X816670Y932180D03*
X816670Y944880D03*
X816670Y957580D03*
X816670Y970280D03*
X816670Y982980D03*
X816670Y995680D03*
X816670Y1008380D03*
X760670Y1008380D03*
X760670Y995680D03*
X760670Y982980D03*
X760670Y970280D03*
X760670Y957580D03*
X760670Y944880D03*
X760670Y932180D03*
D26*
X1109980Y881380D03*
X614680Y881380D03*
X1109980Y1656080D03*
X614680Y1656080D03*
D27*
X589280Y868680D03*
X1135380Y1668780D03*
D28*
X615950Y1087120D03*
X615950Y1074420D03*
X615950Y1061720D03*
X615950Y1049020D03*
X615950Y1099820D03*
X603250Y1087120D03*
X603250Y1074420D03*
X603250Y1061720D03*
X603250Y1049020D03*
X603250Y1099820D03*
D29*
X664570Y1182740D03*
X726070Y1244240D03*
D18*
X1135380Y982980D03*
X1135380Y1008380D03*
X1135380Y1033780D03*
X1135380Y1059180D03*
X1135380Y1084580D03*
X1135380Y1109980D03*
X1135380Y1135380D03*
X1135380Y1160780D03*
X1135380Y1186180D03*
D28*
X68580Y1727835D03*
X1078865Y1727835D03*
D30*
X59525Y-46355D02*
X59528Y-46133D01*
X59536Y-45911D01*
X59550Y-45689D01*
X59569Y-45467D01*
X59593Y-45247D01*
X59623Y-45026D01*
X59658Y-44807D01*
X59699Y-44588D01*
X59745Y-44371D01*
X59796Y-44155D01*
X59853Y-43940D01*
X59915Y-43726D01*
X59982Y-43515D01*
X60054Y-43304D01*
X60132Y-43096D01*
X60214Y-42890D01*
X60302Y-42686D01*
X60394Y-42483D01*
X60492Y-42284D01*
X60594Y-42087D01*
X60701Y-41892D01*
X60813Y-41700D01*
X60930Y-41511D01*
X61051Y-41324D01*
X61177Y-41141D01*
X61307Y-40961D01*
X61442Y-40784D01*
X61580Y-40611D01*
X61723Y-40441D01*
X61871Y-40274D01*
X62022Y-40111D01*
X62177Y-39952D01*
X62336Y-39797D01*
X62499Y-39646D01*
X62666Y-39498D01*
X62836Y-39355D01*
X63009Y-39217D01*
X63186Y-39082D01*
X63366Y-38952D01*
X63549Y-38826D01*
X63736Y-38705D01*
X63925Y-38588D01*
X64117Y-38476D01*
X64312Y-38369D01*
X64509Y-38267D01*
X64708Y-38169D01*
X64911Y-38077D01*
X65115Y-37989D01*
X65321Y-37907D01*
X65529Y-37829D01*
X65740Y-37757D01*
X65951Y-37690D01*
X66165Y-37628D01*
X66380Y-37571D01*
X66596Y-37520D01*
X66813Y-37474D01*
X67032Y-37433D01*
X67251Y-37398D01*
X67472Y-37368D01*
X67692Y-37344D01*
X67914Y-37325D01*
X68136Y-37311D01*
X68358Y-37303D01*
X68580Y-37300D01*
X68802Y-37303D01*
X69024Y-37311D01*
X69246Y-37325D01*
X69468Y-37344D01*
X69688Y-37368D01*
X69909Y-37398D01*
X70128Y-37433D01*
X70347Y-37474D01*
X70564Y-37520D01*
X70780Y-37571D01*
X70995Y-37628D01*
X71209Y-37690D01*
X71420Y-37757D01*
X71631Y-37829D01*
X71839Y-37907D01*
X72045Y-37989D01*
X72249Y-38077D01*
X72452Y-38169D01*
X72651Y-38267D01*
X72848Y-38369D01*
X73043Y-38476D01*
X73235Y-38588D01*
X73424Y-38705D01*
X73611Y-38826D01*
X73794Y-38952D01*
X73974Y-39082D01*
X74151Y-39217D01*
X74324Y-39355D01*
X74494Y-39498D01*
X74661Y-39646D01*
X74824Y-39797D01*
X74983Y-39952D01*
X75138Y-40111D01*
X75289Y-40274D01*
X75437Y-40441D01*
X75580Y-40611D01*
X75718Y-40784D01*
X75853Y-40961D01*
X75983Y-41141D01*
X76109Y-41324D01*
X76230Y-41511D01*
X76347Y-41700D01*
X76459Y-41892D01*
X76566Y-42087D01*
X76668Y-42284D01*
X76766Y-42483D01*
X76858Y-42686D01*
X76946Y-42890D01*
X77028Y-43096D01*
X77106Y-43304D01*
X77178Y-43515D01*
X77245Y-43726D01*
X77307Y-43940D01*
X77364Y-44155D01*
X77415Y-44371D01*
X77461Y-44588D01*
X77502Y-44807D01*
X77537Y-45026D01*
X77567Y-45247D01*
X77591Y-45467D01*
X77610Y-45689D01*
X77624Y-45911D01*
X77632Y-46133D01*
X77635Y-46355D01*
X77632Y-46577D01*
X77624Y-46799D01*
X77610Y-47021D01*
X77591Y-47243D01*
X77567Y-47463D01*
X77537Y-47684D01*
X77502Y-47903D01*
X77461Y-48122D01*
X77415Y-48339D01*
X77364Y-48555D01*
X77307Y-48770D01*
X77245Y-48984D01*
X77178Y-49195D01*
X77106Y-49406D01*
X77028Y-49614D01*
X76946Y-49820D01*
X76858Y-50024D01*
X76766Y-50227D01*
X76668Y-50426D01*
X76566Y-50623D01*
X76459Y-50818D01*
X76347Y-51010D01*
X76230Y-51199D01*
X76109Y-51386D01*
X75983Y-51569D01*
X75853Y-51749D01*
X75718Y-51926D01*
X75580Y-52099D01*
X75437Y-52269D01*
X75289Y-52436D01*
X75138Y-52599D01*
X74983Y-52758D01*
X74824Y-52913D01*
X74661Y-53064D01*
X74494Y-53212D01*
X74324Y-53355D01*
X74151Y-53493D01*
X73974Y-53628D01*
X73794Y-53758D01*
X73611Y-53884D01*
X73424Y-54005D01*
X73235Y-54122D01*
X73043Y-54234D01*
X72848Y-54341D01*
X72651Y-54443D01*
X72452Y-54541D01*
X72249Y-54633D01*
X72045Y-54721D01*
X71839Y-54803D01*
X71631Y-54881D01*
X71420Y-54953D01*
X71209Y-55020D01*
X70995Y-55082D01*
X70780Y-55139D01*
X70564Y-55190D01*
X70347Y-55236D01*
X70128Y-55277D01*
X69909Y-55312D01*
X69688Y-55342D01*
X69468Y-55366D01*
X69246Y-55385D01*
X69024Y-55399D01*
X68802Y-55407D01*
X68580Y-55410D01*
X68358Y-55407D01*
X68136Y-55399D01*
X67914Y-55385D01*
X67692Y-55366D01*
X67472Y-55342D01*
X67251Y-55312D01*
X67032Y-55277D01*
X66813Y-55236D01*
X66596Y-55190D01*
X66380Y-55139D01*
X66165Y-55082D01*
X65951Y-55020D01*
X65740Y-54953D01*
X65529Y-54881D01*
X65321Y-54803D01*
X65115Y-54721D01*
X64911Y-54633D01*
X64708Y-54541D01*
X64509Y-54443D01*
X64312Y-54341D01*
X64117Y-54234D01*
X63925Y-54122D01*
X63736Y-54005D01*
X63549Y-53884D01*
X63366Y-53758D01*
X63186Y-53628D01*
X63009Y-53493D01*
X62836Y-53355D01*
X62666Y-53212D01*
X62499Y-53064D01*
X62336Y-52913D01*
X62177Y-52758D01*
X62022Y-52599D01*
X61871Y-52436D01*
X61723Y-52269D01*
X61580Y-52099D01*
X61442Y-51926D01*
X61307Y-51749D01*
X61177Y-51569D01*
X61051Y-51386D01*
X60930Y-51199D01*
X60813Y-51010D01*
X60701Y-50818D01*
X60594Y-50623D01*
X60492Y-50426D01*
X60394Y-50227D01*
X60302Y-50024D01*
X60214Y-49820D01*
X60132Y-49614D01*
X60054Y-49406D01*
X59982Y-49195D01*
X59915Y-48984D01*
X59853Y-48770D01*
X59796Y-48555D01*
X59745Y-48339D01*
X59699Y-48122D01*
X59658Y-47903D01*
X59623Y-47684D01*
X59593Y-47463D01*
X59569Y-47243D01*
X59550Y-47021D01*
X59536Y-46799D01*
X59528Y-46577D01*
X59525Y-46355D01*
D31*
X68580Y-46355D03*
M02*
