M48
;GenerationSoftware,Autodesk,EAGLE,9.6.2*%
;CreationDate,2020-08-20T19:05:31Z*%
FMAT,2
ICI,OFF
METRIC,TZ,000.000
T12C0.381
T11C0.400
T10C0.508
T9C0.650
T8C0.750
T7C0.800
T6C1.016
T5C1.050
T4C1.100
T3C1.600
T2C3.302
T1C3.900
%
G90
M71
T1
X24580Y42865
X82238Y42865
X24580Y128463
X82238Y128463
T2
X61468Y80010
X61468Y165608
X53340Y2540
X3810Y2540
X53340Y80010
X3810Y80010
X110998Y88138
X53340Y88138
X3810Y88138
X53340Y165608
X110998Y2540
X61468Y2540
X110998Y80010
X61468Y88138
X3810Y165608
X110998Y165608
T3
X38575Y22860
X96233Y108458
X96233Y22860
X38575Y108458
T4
X18575Y22860
X76233Y108458
X76233Y22860
X18575Y108458
T5
X6276Y10721
X6276Y96319
X63934Y10721
X63934Y96319
T6
X55880Y17780
X55880Y15240
X92583Y11684
X55880Y12700
X113538Y17780
X34925Y11684
X113538Y20320
X113538Y22860
X113538Y25400
X34925Y14224
X55880Y22860
X55880Y25400
X55880Y27940
X55880Y30480
X55880Y33020
X113538Y27940
X113538Y118618
X113538Y15240
X113538Y12700
X92583Y14224
X113538Y30480
X113538Y33020
X55880Y116078
X34925Y97282
X34925Y99822
X55880Y98298
X55880Y100838
X55880Y103378
X55880Y105918
X55880Y108458
X55880Y110998
X55880Y113538
X55880Y118618
X55880Y20320
X92583Y97282
X92583Y99822
X113538Y98298
X113538Y100838
X113538Y103378
X113538Y105918
X113538Y108458
X113538Y110998
X113538Y113538
X113538Y116078
T7
X66457Y118274
X14949Y38826
X72607Y124424
X14949Y124424
X8799Y32676
X66457Y32676
X72607Y38826
X8799Y118274
T8
X66622Y99006
X8964Y99006
X66622Y13408
X8964Y13408
T9
X31465Y4905
X83343Y90503
X89123Y90503
X25685Y90503
X31465Y90503
X83343Y4905
X89123Y4905
X25685Y4905
T10
X61595Y24384
X60325Y23114
X60325Y21844
X60325Y20574
X60325Y19304
X60325Y24384
X77597Y12065
X19939Y14605
X19939Y9525
X22479Y9525
X19939Y95123
X22479Y95123
X19939Y97663
X22479Y97663
X19939Y100203
X22479Y100203
X19939Y12065
X22479Y12065
X3937Y108712
X3937Y107442
X3937Y106172
X3937Y104902
X3937Y109982
X2667Y108712
X2667Y107442
X2667Y106172
X2667Y104902
X2667Y109982
X22479Y14605
X3937Y23114
X3937Y21844
X3937Y20574
X3937Y19304
X2667Y23114
X2667Y21844
X2667Y20574
X2667Y19304
X2667Y24384
X77597Y95123
X80137Y95123
X77597Y97663
X80137Y97663
X77597Y100203
X80137Y100203
X77597Y9525
X80137Y9525
X61595Y108712
X61595Y107442
X61595Y106172
X61595Y104902
X61595Y109982
X60325Y108712
X60325Y107442
X60325Y106172
X60325Y104902
X60325Y109982
X3937Y24384
X80137Y12065
X77597Y14605
X80137Y14605
X61595Y23114
X61595Y21844
X61595Y20574
X61595Y19304
T11
X90551Y86853
X81915Y86853
X81915Y91033
X90551Y91033
X81915Y1255
X90551Y1255
X32893Y86853
X24257Y86853
X24257Y91033
X32893Y5435
X24257Y5435
X24257Y1255
X32893Y1255
X90551Y5435
X81915Y5435
X32893Y91033
T12
X43180Y93472
X27940Y107823
X17399Y101854
X26670Y105029
X37592Y104775
X28194Y101473
X44958Y93472
X41402Y93472
X53340Y140589
X40005Y128778
X48387Y104902
X28829Y143129
X33725Y146812
X20193Y109220
X36703Y109093
X7239Y135255
X41148Y108966
X14732Y109982
X7239Y126111
X29464Y89789
X30861Y99441
X20701Y105156
X46863Y103353
X19685Y112395
X49530Y97663
X3683Y114951
X29464Y114046
X20447Y115316
X2159Y114697
X17907Y114173
X30353Y113551
X31750Y119761
X47371Y121920
X30607Y120523
X45847Y121920
X25768Y99528
X37338Y135001
X30353Y115443
X25654Y104521
X24511Y104902
X32004Y104775
X13462Y106680
X33020Y117221
X33020Y115824
X11049Y111252
X11049Y120650
X93383Y132620
X93345Y135128
X96393Y131826
X96393Y135890
X92964Y123698
X92329Y133858
X89408Y137541
X92710Y139700
X89789Y141097
X91821Y141097
X84328Y115316
X81915Y136525
X78486Y112141
X108458Y156083
X31750Y34163
X76708Y91186
X83312Y111379
X107696Y147955
X83185Y92710
X90424Y92710
X69215Y93853
X103505Y97536
X95250Y98298
X87122Y97409
X74803Y93218
X77216Y104775
X98806Y86360
X104394Y88392
X100838Y93472
X85598Y107823
X75057Y101854
X84328Y105029
X95250Y104775
X85852Y101473
X102616Y93472
X99060Y93472
X110998Y140589
X97663Y128778
X106045Y104902
X86487Y143129
X91383Y146812
X77851Y109220
X94361Y109093
X64897Y135255
X98806Y108966
X72390Y109982
X64897Y126111
X87122Y89789
X88519Y99441
X78359Y105156
X104521Y103353
X77343Y112395
X107188Y97663
X61341Y114951
X87122Y114046
X78105Y115316
X59817Y114697
X75565Y114173
X88011Y113551
X89408Y119761
X105029Y121920
X88265Y120523
X103505Y121920
X83426Y99528
X94996Y135001
X88011Y115443
X83312Y104521
X82169Y104902
X89662Y104775
X71120Y106680
X90678Y117221
X90678Y115824
X68707Y111252
X68707Y120650
X35725Y47022
X35687Y49530
X38735Y46228
X38735Y50292
X35306Y38100
X34671Y48260
X31750Y51943
X35052Y54102
X32131Y55499
X34163Y55499
X26670Y29718
X24257Y50927
X20828Y26543
X50800Y70485
X25781Y11430
X19050Y5588
X25654Y25781
X50038Y62357
X25527Y7112
X32766Y7112
X11557Y8255
X45847Y11938
X37592Y12700
X29464Y11811
X17145Y7620
X19558Y19177
X41148Y762
X46736Y2794
X43180Y7874
X27940Y22225
X17399Y16256
X26670Y19431
X37592Y19177
X28194Y15875
X44958Y7874
X41402Y7874
X53340Y54991
X40005Y43180
X48387Y19304
X28829Y57531
X33725Y61214
X20193Y23622
X36703Y23495
X7239Y49657
X41148Y23368
X14732Y24384
X7239Y40513
X29464Y4191
X30861Y13843
X20701Y19558
X46863Y17755
X19685Y26797
X49530Y12065
X3683Y29353
X29464Y28448
X20447Y29718
X2159Y29099
X17907Y28575
X30353Y27953
X47371Y36322
X30607Y34925
X45847Y36322
X25768Y13930
X37338Y49403
X30353Y29845
X25654Y18923
X24511Y19304
X32004Y19177
X13462Y21082
X33020Y31623
X33020Y30226
X11049Y25654
X11049Y35052
X93383Y47022
X93345Y49530
X96393Y46228
X96393Y50292
X92964Y38100
X92329Y48260
X89408Y51943
X92710Y54102
X89789Y55499
X91821Y55499
X84328Y29718
X81915Y50927
X78486Y26543
X108458Y70485
X83439Y11430
X76708Y5588
X83312Y25781
X107696Y62357
X83185Y7112
X90424Y7112
X69215Y8255
X103505Y11938
X95250Y12700
X87122Y11811
X74803Y7620
X77216Y19177
X98806Y762
X104394Y2794
X100838Y7874
X85598Y22225
X75057Y16256
X84328Y19431
X95250Y19177
X85852Y15875
X102616Y7874
X99060Y7874
X110998Y54991
X97663Y43180
X106045Y19304
X86487Y57531
X91383Y61214
X77851Y23622
X94361Y23495
X83439Y97028
X64897Y49657
X98806Y23368
X72390Y24384
X64897Y40513
X87122Y4191
X88519Y13843
X78359Y19558
X104521Y17755
X77343Y26797
X107188Y12065
X61341Y29353
X87122Y28448
X78105Y29718
X59817Y29099
X75565Y28575
X88011Y27953
X89408Y34163
X105029Y36322
X88265Y34925
X103505Y36322
X83426Y13930
X94996Y49403
X88011Y29845
X83312Y18923
X82169Y19304
X89662Y19177
X71120Y21082
X90678Y31623
X90678Y30226
X68707Y25654
X68707Y35052
X35725Y132620
X35687Y135128
X38735Y131826
X38735Y135890
X35306Y123698
X34671Y133858
X31750Y137541
X35052Y139700
X32131Y141097
X34163Y141097
X26670Y115316
X24257Y136525
X20828Y112141
X50800Y156083
X25781Y97028
X19050Y91186
X25654Y111379
X50038Y147955
X25527Y92710
X32766Y92710
X11557Y93853
X45847Y97536
X37592Y98298
X29464Y97409
X17145Y93218
X19558Y104775
X41148Y86360
X46736Y88392
M30